<?xml version="1.0" standalone="no"?>
<!DOCTYPE svg PUBLIC "-//W3C//DTD SVG 1.1//EN" "http://www.w3.org/Graphics/SVG/1.1/DTD/svg11.dtd" >
<svg xmlns="http://www.w3.org/2000/svg" xmlns:xlink="http://www.w3.org/1999/xlink" version="1.1">
<metadata>
Created by FontForge 20161013 at Wed Dec 12 23:57:31 2012
 By ,,,
(c) 1992, 1994, 1997, 2000, 2004 Adobe Systems Incorporated. All rights reserved.
</metadata>
<defs>
<font id="MyriadPro-SemiboldIt" horiz-adv-x="389" >
  <font-face 
    font-family="Myriad Pro Light"
    font-weight="600"
    font-style="italic"
    font-stretch="normal"
    units-per-em="1000"
    panose-1="2 11 6 3 3 4 3 9 2 4"
    ascent="750"
    descent="-250"
    x-height="487"
    cap-height="674"
    bbox="-193 -250 1164 972"
    underline-thickness="50"
    underline-position="-200"
    slope="-11"
    unicode-range="U+0020-FB04"
  />
<missing-glyph horiz-adv-x="500" 
d="M0 0v700h500v-700h-500zM250 395l170 255h-340zM280 350l170 -255v510zM80 50h340l-170 255zM50 605v-510l170 255z" />
    <glyph glyph-name="f_f_j" unicode="ffj" horiz-adv-x="813" 
d="M801 694l-33 -91q-46 23 -102 23q-108 0 -129 -118l-3 -21h272l-90 -477q-22 -122 -65 -169q-44 -50 -123 -50q-35 0 -63 7l13 89q15 -3 35 -3q31 0 51.5 24.5t33.5 89.5l76 399h-157l-75 -397h-116l75 397h-176l-75 -397h-116l75 397h-64l17 90h64l5 22q19 95 71 147
q52 54 138 54q45 0 80 -21l-39 -86q-21 12 -44 12q-31 0 -53 -20q-27 -27 -39 -90l-3 -18h177l4 22q19 101 85.5 156.5t168.5 55.5q80 0 124 -27z" />
    <glyph glyph-name="f_j" unicode="fj" horiz-adv-x="522" 
d="M510 694l-33 -91q-46 23 -102 23q-108 0 -129 -118l-3 -21h272l-90 -477q-22 -122 -65 -169q-44 -50 -123 -50q-35 0 -63 7l14 89q13 -3 34 -3q31 0 51.5 24.5t33.5 89.5l75 399h-156l-74 -397h-117l75 397h-63l17 90h64l4 22q19 101 85.5 156.5t168.5 55.5q80 0 124 -27
z" />
    <glyph glyph-name="f_f" unicode="ff" horiz-adv-x="600" 
d="M704 708l-22 -92q-21 8 -47 8q-75 0 -97 -114l-4 -23h101l-17 -90h-101l-75 -397h-116l75 397h-176l-74 -397h-117l75 397h-63l17 90h64l3 20q22 101 72 152q51 51 133 51q38 0 68 -14l-33 -89q-16 8 -36 8q-67 0 -89 -109l-3 -19h176l5 25q20 111 81 164q51 45 128 45
q48 0 72 -13z" />
    <glyph glyph-name="f_f_i" unicode="ffi" horiz-adv-x="826" 
d="M801 694l-33 -91q-46 23 -102 23q-108 0 -129 -118l-3 -21h272l-92 -487h-117l75 397h-155l-74 -397h-117l75 397h-176l-75 -397h-116l75 397h-64l17 90h64l5 22q19 95 71 147q52 54 138 54q46 0 81 -21l-40 -86q-21 12 -44 12q-31 0 -53 -20q-27 -27 -39 -90l-3 -18h177
l4 22q19 101 85.5 156.5t168.5 55.5q80 0 124 -27z" />
    <glyph glyph-name="f_f_l" unicode="ffl" horiz-adv-x="826" 
d="M421 691l-37 -87q-22 11 -46 11q-30 0 -54 -22q-27 -27 -39 -87l-3 -19h176l4 21q19 106 96 165q64 48 168 48q100 0 157 -37l-129 -684h-117l117 617q-20 11 -59 11q-48 0 -77.5 -33t-39.5 -86l-4 -22h92l-17 -90h-92l-75 -397h-116l75 397h-176l-75 -397h-116l75 397
h-64l17 90h64l4 20q17 97 72 149q52 54 137 54q44 0 82 -19z" />
    <glyph glyph-name="f_i" unicode="fi" horiz-adv-x="535" 
d="M151 0h-116l76 397h-64l17 90h64l4 22q18 100 85 156t169 56q80 0 124 -27l-33 -91q-46 23 -102 23q-108 0 -129 -118l-3 -21h272l-92 -487h-117l75 397h-155z" />
    <glyph glyph-name="f_l" unicode="fl" horiz-adv-x="535" 
d="M151 0h-116l75 397h-64l17 90h64l4 21q19 106 96 165q65 48 168 48q100 0 157 -37l-129 -684h-117l117 617q-20 11 -59 11q-48 0 -77.5 -33t-39.5 -86l-4 -22h92l-17 -90h-92z" />
    <glyph glyph-name=".notdef" horiz-adv-x="500" 
d="M0 0v700h500v-700h-500zM250 395l170 255h-340zM280 350l170 -255v510zM80 50h340l-170 255zM50 605v-510l170 255z" />
    <glyph glyph-name=".null" horiz-adv-x="0" 
 />
    <glyph glyph-name="nonmarkingreturn" horiz-adv-x="333" 
 />
    <glyph glyph-name="space" unicode=" " horiz-adv-x="183" 
 />
    <glyph glyph-name="exclam" unicode="!" horiz-adv-x="254" 
d="M166 209h-92l72 465h127zM87 -11q-31 0 -50 20t-19 51q0 35 23 60t58 25q31 0 51 -20.5t20 -52.5q0 -35 -23.5 -59t-59.5 -24z" />
    <glyph glyph-name="quotedbl" unicode="&#x22;" horiz-adv-x="350" 
d="M116 685h113l-69 -262h-74zM289 685h113l-69 -262h-74z" />
    <glyph glyph-name="numbersign" unicode="#" horiz-adv-x="519" 
d="M209 262h88l40 130h-88zM126 0h-75l58 187h-82l13 75h94l41 130h-86l13 75h96l58 183h74l-58 -183h89l58 183h74l-57 -183h81l-12 -75h-93l-40 -130h85l-13 -75h-97l-57 -187h-76l59 187h-89z" />
    <glyph glyph-name="dollar" unicode="$" horiz-adv-x="519" 
d="M232 -87h-79l18 98q-39 1 -80 16t-65 33l38 89q63 -47 147 -47q50 0 82.5 24.5t32.5 64.5q0 29 -19 52t-65 46q-138 71 -138 166q0 72 53 123.5t138 60.5l18 93h79l-17 -93q74 -3 120 -35l-38 -87q-63 34 -127 34q-46 0 -73.5 -23t-27.5 -56q0 -27 21.5 -48t77.5 -49
q124 -64 124 -165q0 -85 -57 -137t-144 -62z" />
    <glyph glyph-name="percent" unicode="%" horiz-adv-x="826" 
d="M266 660q63 0 98 -40.5t35 -101.5q0 -108 -56.5 -182.5t-141.5 -74.5q-61 0 -98.5 40.5t-37.5 109.5q0 100 56.5 174.5t144.5 74.5zM255 591q-30 0 -53.5 -31t-34.5 -71.5t-11 -79.5q0 -79 55 -79q43 0 70 62t27 124q0 75 -53 75zM220 -11h-74l486 672h73zM657 392
q63 0 98 -40.5t35 -102.5q0 -108 -56 -182.5t-141 -74.5q-62 0 -99.5 40.5t-37.5 109.5q0 99 56.5 174.5t144.5 75.5zM646 323q-44 0 -71.5 -60.5t-27.5 -123.5q0 -78 55 -78q43 0 70 62t27 125q0 75 -53 75z" />
    <glyph glyph-name="ampersand" unicode="&#x26;" horiz-adv-x="631" 
d="M575 0h-137q-12 13 -41 53q-78 -64 -185 -64q-90 0 -143 48t-53 126q0 135 164 212l1 3q-37 64 -37 118q0 80 55.5 134.5t140.5 54.5q71 0 113.5 -40t42.5 -102q0 -112 -170 -191v-3q42 -68 104 -155q56 67 96 185h108q-58 -168 -151 -260q47 -65 92 -119zM244 78
q60 0 106 44q-87 122 -129 189q-87 -58 -87 -129q0 -45 29 -74.5t81 -29.5zM330 607q-34 0 -57 -28t-23 -71q0 -49 30 -94q110 52 110 127q0 29 -15 47.5t-45 18.5z" />
    <glyph glyph-name="quotesingle" unicode="'" horiz-adv-x="184" 
d="M121 685h112l-68 -261h-75z" />
    <glyph glyph-name="parenleft" unicode="(" horiz-adv-x="301" 
d="M269 691h90q-87 -104 -143 -241.5t-56 -292.5q0 -147 47 -274h-84q-59 124 -59 272q0 164 58 301.5t147 234.5z" />
    <glyph glyph-name="parenright" unicode=")" horiz-adv-x="301" 
d="M50 -117h-91q87 106 143.5 243.5t56.5 291.5q0 147 -48 273h86q58 -124 58 -271q0 -164 -58 -301.5t-147 -235.5z" />
    <glyph glyph-name="asterisk" unicode="*" horiz-adv-x="435" 
d="M343 685l72 -43l-117 -126l1 -2l159 27l-17 -87l-149 23v-2l89 -122l-81 -45l-44 148h-2l-76 -148l-69 45l116 123v2l-156 -24l16 87l144 -27v3l-86 125l82 43l43 -147h2z" />
    <glyph glyph-name="plus" unicode="+" horiz-adv-x="596" 
d="M261 532h81v-226h213v-78h-213v-228h-81v228h-213v78h213v226z" />
    <glyph glyph-name="comma" unicode="," horiz-adv-x="238" 
d="M35 -113l-86 -8q70 141 106 264l131 10q-71 -160 -151 -266z" />
    <glyph glyph-name="hyphen" unicode="-" horiz-adv-x="315" 
d="M46 309h250l-16 -85h-251z" />
    <glyph glyph-name="period" unicode="." horiz-adv-x="238" 
d="M89 -10q-31 0 -50.5 20.5t-19.5 51.5q0 36 23.5 61t58.5 25q32 0 51.5 -20.5t19.5 -53.5q0 -36 -23.5 -60t-59.5 -24z" />
    <glyph glyph-name="slash" unicode="/" horiz-adv-x="326" 
d="M40 -40h-86l372 725h87z" />
    <glyph glyph-name="zero" unicode="0" horiz-adv-x="519" 
d="M337 661q63 0 103.5 -32t56 -78t15.5 -104q0 -80 -19 -159.5t-54.5 -147t-93 -109.5t-127.5 -42q-91 0 -134 63t-43 166q0 108 33.5 207.5t103 167.5t159.5 68zM323 568q-48 0 -88 -64t-59.5 -144t-19.5 -146q0 -132 77 -132q38 0 71 41t52 100.5t29.5 118t10.5 101.5
q0 125 -73 125z" />
    <glyph glyph-name="one" unicode="1" horiz-adv-x="519" 
d="M182 0l102 538h-2l-120 -56l-7 91l166 77h97l-123 -650h-113z" />
    <glyph glyph-name="two" unicode="2" horiz-adv-x="519" 
d="M419 0h-421l14 76l121 96q127 105 184 172t57 131q0 37 -24 62.5t-70 25.5q-73 0 -136 -43l-26 84q85 57 189 57q91 0 139.5 -48.5t48.5 -120.5q0 -39 -14 -78t-34.5 -71t-55.5 -68.5t-66.5 -64t-77.5 -64.5l-60 -45v-2h251z" />
    <glyph glyph-name="three" unicode="3" horiz-adv-x="519" 
d="M11 32l37 91q65 -35 135 -35q67 0 105.5 34t38.5 81q0 49 -36.5 74t-99.5 25h-29l18 90h27q56 0 104 27.5t48 75.5q0 68 -86 68q-75 0 -129 -34l-19 88q76 44 171 44q83 0 134.5 -40t51.5 -107q0 -60 -41 -103.5t-103 -60.5l-1 -2q52 -11 82 -50.5t30 -93.5
q0 -95 -79.5 -155t-189.5 -60q-55 0 -101.5 12.5t-67.5 30.5z" />
    <glyph glyph-name="four" unicode="4" horiz-adv-x="519" 
d="M367 0h-110l32 167h-278l15 78l326 405h138l-74 -392h81l-17 -91h-81zM145 258h161l36 175q1 7 28 116h-4q-68 -102 -80 -118l-140 -171z" />
    <glyph glyph-name="five" unicode="5" horiz-adv-x="519" 
d="M512 650l-20 -100h-226l-40 -130q11 2 30 2q73 0 125 -36q74 -45 74 -144q0 -116 -82.5 -184.5t-202.5 -68.5q-51 0 -93.5 11t-62.5 26l32 93q53 -32 128 -32q63 0 111.5 38t48.5 96q0 111 -159 111q-25 0 -77 -4l92 322h322z" />
    <glyph glyph-name="six" unicode="6" horiz-adv-x="519" 
d="M493 659l-17 -96q-34 0 -57 -3q-86 -12 -149.5 -63t-92.5 -128l2 -1q60 65 145 65q73 -1 117.5 -51t44.5 -129q0 -104 -71.5 -184t-178.5 -80q-98 0 -150 61.5t-52 159.5q0 107 46 201.5t116 151.5q103 84 243 95q31 3 54 1zM241 80q55 0 90 50.5t35 111.5q0 49 -24 75.5
t-67 26.5q-33 0 -63 -20t-50 -53q-9 -16 -11 -32q-3 -21 -3 -43q0 -51 24.5 -83.5t68.5 -32.5z" />
    <glyph glyph-name="seven" unicode="7" horiz-adv-x="519" 
d="M126 650h418l-15 -79q-153 -240 -366 -571h-129q153 230 363 548l-1 2h-289z" />
    <glyph glyph-name="eight" unicode="8" horiz-adv-x="519" 
d="M324 661q79 0 129.5 -41t50.5 -112q0 -104 -121 -161v-3q45 -25 68.5 -64.5t23.5 -83.5q0 -96 -74.5 -151.5t-172.5 -55.5q-96 0 -151.5 46t-55.5 119q0 67 40.5 115.5t104.5 73.5v3q-67 50 -67 124q0 83 66 137t159 54zM239 75q48 0 81 30.5t33 79.5q0 79 -98 114
q-47 -12 -80 -46.5t-33 -84.5q0 -39 26 -66t71 -27zM311 575q-42 0 -71 -29t-29 -68q0 -66 84 -95q41 14 69 44t28 68q0 34 -20.5 57t-60.5 23z" />
    <glyph glyph-name="nine" unicode="9" horiz-adv-x="519" 
d="M52 -9l14 97q22 -3 61 2q75 8 133 51q75 52 111 143l-2 1q-52 -58 -134 -58q-77 0 -122 49.5t-45 123.5q0 104 74.5 182.5t179.5 78.5q96 0 145 -60.5t49 -156.5q0 -111 -49 -210t-117 -154q-93 -76 -224 -88q-44 -3 -74 -1zM311 570q-50 0 -87 -48t-37 -108
q0 -44 23 -71t63 -27q68 0 106 57q10 14 14 30q6 23 6 59q0 49 -22 78.5t-66 29.5z" />
    <glyph glyph-name="colon" unicode=":" horiz-adv-x="238" 
d="M153 326q-31 0 -50.5 20.5t-19.5 50.5q0 35 23.5 60.5t58.5 25.5q31 0 50.5 -20.5t19.5 -53.5q0 -36 -23 -59.5t-59 -23.5zM89 -11q-31 0 -50.5 20.5t-19.5 50.5q0 36 23.5 61t58.5 25q31 0 50.5 -20.5t19.5 -52.5q0 -36 -23 -60t-59 -24z" />
    <glyph glyph-name="semicolon" unicode=";" horiz-adv-x="238" 
d="M34 -113l-85 -8q73 145 107 264l129 10q-70 -160 -151 -266zM157 326q-30 0 -49.5 20.5t-19.5 50.5q0 35 23 60.5t58 25.5q31 0 51 -21t20 -53q0 -35 -23.5 -59t-59.5 -24z" />
    <glyph glyph-name="less" unicode="&#x3c;" horiz-adv-x="596" 
d="M64 230v72l463 230v-89l-366 -176v-2l366 -176v-89z" />
    <glyph glyph-name="equal" unicode="=" horiz-adv-x="596" 
d="M555 331h-507v78h507v-78zM555 128h-507v78h507v-78z" />
    <glyph glyph-name="greater" unicode="&#x3e;" horiz-adv-x="596" 
d="M547 304v-76l-464 -228v89l372 176v2l-372 176v89z" />
    <glyph glyph-name="question" unicode="?" horiz-adv-x="413" 
d="M242 209h-113q0 10 2 26q11 81 93 171q3 3 17.5 18t18 19t14.5 16.5t14.5 19t9.5 16.5t8 19t2 18q0 57 -67 58q-59 0 -105 -28l-17 83q69 40 155 40q70 0 112 -37.5t42 -93.5q0 -37 -17 -73t-36 -59t-56 -60q-61 -61 -72 -127q-1 -4 -2.5 -12.5t-2.5 -13.5zM153 -11
q-31 0 -50 20t-19 51q0 35 23 60t58 25q31 0 50.5 -20.5t19.5 -52.5q0 -36 -23 -59.5t-59 -23.5z" />
    <glyph glyph-name="at" unicode="@" horiz-adv-x="736" 
d="M435 252l17 103q-18 6 -39 6q-57 0 -97 -47.5t-40 -111.5q0 -31 15 -50t42 -19q34 0 64 36.5t38 82.5zM508 -15l17 -51q-75 -38 -178 -38q-132 0 -221 86t-89 228q0 158 103.5 270t266.5 112q131 0 214 -81.5t83 -207.5q0 -108 -53 -173t-131 -65q-35 0 -57.5 20.5
t-23.5 61.5h-3q-49 -82 -135 -82q-47 0 -78.5 35t-31.5 93q0 96 66.5 165.5t169.5 69.5q69 0 113 -23l-31 -183q-18 -98 27 -98q39 -2 70.5 45.5t31.5 128.5q0 106 -64 172.5t-177 66.5q-122 0 -207 -88.5t-85 -231.5q0 -123 70.5 -194t187.5 -71q85 0 145 33z" />
    <glyph glyph-name="A" unicode="A" horiz-adv-x="596" 
d="M400 192h-212l-92 -192h-124l338 674h146l85 -674h-122zM225 282h168l-19 168q-4 48 -10 128h-2q-7 -16 -26 -61t-29 -67z" />
    <glyph glyph-name="B" unicode="B" horiz-adv-x="553" 
d="M26 6l124 657q72 16 162 16q104 0 162 -41q65 -40 65 -115q0 -61 -40.5 -104t-99.5 -59v-3q49 -15 78.5 -53.5t29.5 -94.5q0 -98 -87 -158q-77 -55 -238 -55q-103 0 -156 10zM250 582l-35 -184h54q67 0 108.5 29.5t41.5 80.5q0 79 -107 79q-42 0 -62 -5zM197 312
l-42 -221q28 -3 62 -3q72 0 119.5 31t47.5 94q0 51 -37 75t-95 24h-55z" />
    <glyph glyph-name="C" unicode="C" horiz-adv-x="571" 
d="M501 115l11 -95q-68 -30 -176 -30q-132 0 -209.5 76t-77.5 207q0 104 42 190.5t116 141.5q106 80 251 80q102 0 147 -31l-34 -94q-44 24 -127 24q-101 0 -172 -62q-45 -40 -71 -101.5t-26 -133.5q0 -90 47.5 -144t143.5 -54q80 0 135 26z" />
    <glyph glyph-name="D" unicode="D" horiz-adv-x="666" 
d="M26 6l125 658q83 15 178 15q164 0 247 -81q77 -70 77 -198q0 -95 -36.5 -177.5t-100.5 -135.5q-111 -91 -315 -91q-99 0 -175 10zM252 579l-92 -484q31 -4 74 -4q138 0 213 83q80 85 80 224q0 88 -49 137.5t-151 49.5q-47 0 -75 -6z" />
    <glyph glyph-name="E" unicode="E" horiz-adv-x="496" 
d="M459 398l-19 -98h-242l-38 -201h272l-19 -99h-389l128 674h374l-19 -99h-257l-34 -177h243z" />
    <glyph glyph-name="F" unicode="F" horiz-adv-x="490" 
d="M24 0l128 674h372l-20 -99h-254l-36 -190h236l-19 -98h-236l-54 -287h-117z" />
    <glyph glyph-name="G" unicode="G" horiz-adv-x="651" 
d="M618 370l-64 -340q-106 -37 -206 -37q-143 0 -222 79q-77 74 -77 202q0 91 35 171.5t100 136.5q116 99 288 99q113 0 170 -31l-36 -98q-56 28 -143 28q-111 0 -188 -66q-46 -39 -72.5 -100.5t-26.5 -130.5q0 -92 49 -141.5t143 -49.5q49 0 86 15l32 169h-119l19 94h232z
" />
    <glyph glyph-name="H" unicode="H" horiz-adv-x="648" 
d="M153 674h116l-52 -272h274l52 272h117l-128 -674h-117l57 298h-275l-56 -298h-116z" />
    <glyph glyph-name="I" unicode="I" horiz-adv-x="256" 
d="M150 674h117l-128 -674h-117z" />
    <glyph glyph-name="J" unicode="J" horiz-adv-x="383" 
d="M-33 6l23 99q36 -13 82 -13q52 0 83.5 32t45.5 110l84 440h116l-86 -453q-23 -123 -80 -177.5t-162 -54.5q-70 0 -106 17z" />
    <glyph glyph-name="K" unicode="K" horiz-adv-x="556" 
d="M24 0l128 674h115l-59 -313h4q8 11 63 77l210 236h145l-278 -291l164 -383h-127l-128 310l-76 -71l-46 -239h-115z" />
    <glyph glyph-name="L" unicode="L" horiz-adv-x="467" 
d="M24 0l128 674h117l-109 -572h265l-19 -102h-382z" />
    <glyph glyph-name="M" unicode="M" horiz-adv-x="802" 
d="M701 0h-113l45 317q23 160 41 247h-3q-65 -147 -112 -237l-166 -319h-90l-35 314q-11 104 -18 242h-2q-8 -32 -27 -121t-28 -126l-77 -317h-108l171 674h154l36 -315q12 -147 13 -194h4q34 92 85 193l163 316h156z" />
    <glyph glyph-name="N" unicode="N" horiz-adv-x="651" 
d="M133 0h-109l128 674h134l118 -313q38 -106 61 -211h2q6 99 30 228l56 296h110l-128 -674h-119l-121 319q-44 126 -64 217l-4 -1q-8 -77 -39 -247z" />
    <glyph glyph-name="O" unicode="O" horiz-adv-x="688" 
d="M411 685q129 0 197 -78.5t68 -200.5q0 -92 -32 -178.5t-90 -143.5q-97 -95 -241 -95q-125 0 -195 79.5t-70 198.5q0 92 33 179.5t93 144.5q97 94 237 94zM397 587q-75 0 -133 -58q-43 -43 -68 -115.5t-25 -140.5q0 -82 39.5 -134t119.5 -52q76 0 131 57q42 42 66.5 116
t24.5 142q0 36 -7 67t-23.5 58.5t-48.5 43.5t-76 16z" />
    <glyph glyph-name="P" unicode="P" horiz-adv-x="535" 
d="M24 0l126 663q66 16 163 16q113 0 172 -48q62 -47 62 -134q0 -115 -86 -183q-80 -64 -211 -64q-18 0 -63 5l-48 -255h-115zM249 579l-44 -228q28 -6 61 -6q73 0 118.5 41t45.5 102q0 97 -117 97q-45 0 -64 -6z" />
    <glyph glyph-name="Q" unicode="Q" horiz-adv-x="688" 
d="M612 -15l-41 -94q-157 43 -244 84q-34 14 -47 16q-101 6 -166.5 80.5t-65.5 197.5q0 87 31.5 172.5t88.5 143.5q100 100 243 100q88 0 149 -40t88 -101.5t27 -137.5q0 -86 -30.5 -172t-85.5 -141q-47 -49 -112 -71v-3q117 -26 165 -34zM397 587q-75 0 -132 -57
q-43 -43 -68.5 -117.5t-25.5 -142.5q0 -81 39 -132.5t118 -51.5q74 0 132 56q42 42 67 118t25 145q0 34 -7 63.5t-23 57.5t-48 44.5t-77 16.5z" />
    <glyph glyph-name="R" unicode="R" horiz-adv-x="556" 
d="M25 0l126 663q69 16 166 16q109 0 169 -44q64 -44 64 -122q0 -71 -44 -121.5t-112 -71.5l-1 -3q59 -23 69 -128q16 -170 24 -189h-120q-8 25 -18 161q-4 63 -27.5 90t-70.5 27h-57l-53 -278h-115zM251 580l-41 -213h66q67 0 109.5 36.5t42.5 92.5q0 45 -31.5 67.5
t-83.5 22.5q-41 0 -62 -6z" />
    <glyph glyph-name="S" unicode="S" horiz-adv-x="490" 
d="M5 37l40 96q65 -43 152 -43q52 0 88.5 26.5t36.5 73.5q0 32 -22 57t-73 52q-137 74 -137 176q0 94 71.5 152t176.5 58q91 0 150 -34l-38 -97q-57 31 -122 30q-53 0 -84.5 -26t-31.5 -62q0 -32 23.5 -55t77.5 -54q131 -69 131 -179q0 -100 -72.5 -159t-187.5 -59
q-58 0 -106.5 13.5t-72.5 33.5z" />
    <glyph glyph-name="T" unicode="T" horiz-adv-x="503" 
d="M144 0l109 572h-187l20 102h491l-20 -102h-188l-108 -572h-117z" />
    <glyph glyph-name="U" unicode="U" horiz-adv-x="639" 
d="M150 674h117l-75 -393q-8 -40 -8 -82q1 -52 30.5 -82t80.5 -30q129 0 166 193l75 394h117l-75 -392q-29 -152 -101.5 -222.5t-196.5 -70.5q-99 0 -155.5 52.5t-56.5 155.5q0 37 9 93z" />
    <glyph glyph-name="V" unicode="V" horiz-adv-x="579" 
d="M298 0h-133l-83 674h119l39 -371q10 -89 15 -182h2q42 105 83 187l180 366h129z" />
    <glyph glyph-name="W" unicode="W" horiz-adv-x="848" 
d="M252 0h-128l-29 674h117l7 -347q1 -91 -3 -199h2q59 158 75 196l151 350h127l5 -340q1 -120 -3 -203h2q44 128 71 196l145 347h123l-304 -674h-126l-10 325q-3 106 4 210h-3q-44 -132 -75 -205z" />
    <glyph glyph-name="X" unicode="X" horiz-adv-x="547" 
d="M494 0h-124l-54 150q-20 57 -39 116h-2q-11 -17 -34.5 -55.5t-38.5 -62.5l-99 -148h-139l257 344l-122 330h123l51 -149q26 -81 33 -108h2q34 58 66 109l102 148h139l-252 -331z" />
    <glyph glyph-name="Y" unicode="Y" horiz-adv-x="546" 
d="M271 0h-116l53 277l-131 397h124l53 -192q19 -75 28 -118h2q30 53 70 120l121 190h138l-289 -395z" />
    <glyph glyph-name="Z" unicode="Z" horiz-adv-x="540" 
d="M-23 0l13 69l421 501v4h-295l19 100h452l-14 -73l-416 -497l1 -4h325l-19 -100h-487z" />
    <glyph glyph-name="bracketleft" unicode="[" horiz-adv-x="301" 
d="M198 -112h-189l152 798h189l-14 -70h-99l-126 -658h100z" />
    <glyph glyph-name="backslash" unicode="\" horiz-adv-x="333" 
d="M312 -40h-84l-172 725h84z" />
    <glyph glyph-name="bracketright" unicode="]" horiz-adv-x="301" 
d="M119 686h189l-152 -798h-189l13 70h99l126 658h-100z" />
    <glyph glyph-name="asciicircum" unicode="^" horiz-adv-x="596" 
d="M540 182h-90l-154 371h-2l-154 -371h-89l206 468h78z" />
    <glyph glyph-name="underscore" unicode="_" horiz-adv-x="500" 
d="M-52 -75h500l-10 -50h-500z" />
    <glyph glyph-name="grave" unicode="`" 
d="M130 694h119l71 -148h-83z" />
    <glyph glyph-name="a" unicode="a" horiz-adv-x="540" 
d="M448 0h-108q1 24 9 110h-3q-65 -121 -174 -121q-65 0 -104.5 46t-39.5 120q0 64 22 124t63.5 109.5t108.5 79.5t149 30q79 0 147 -22l-50 -254q-23 -122 -20 -222zM362 275l26 128q-20 5 -48 5q-78 0 -134.5 -72.5t-56.5 -159.5q0 -93 70 -93q43 0 85 52t58 140z" />
    <glyph glyph-name="b" unicode="b" horiz-adv-x="545" 
d="M152 710h117l-61 -295h2q61 83 160 83q73 0 110 -50t37 -122q0 -81 -34 -156t-107.5 -128t-172.5 -53q-78 0 -120.5 33t-41.5 98q0 35 9 84zM176 243l-10 -45q-6 -34 -5 -58q0 -62 65 -62q48 0 88 37t60.5 88.5t20.5 100.5q0 43 -19.5 71t-57.5 28q-46 0 -86.5 -44
t-55.5 -116z" />
    <glyph glyph-name="c" unicode="c" horiz-adv-x="430" 
d="M364 107l4 -90q-54 -27 -140 -27q-91 0 -144 53t-53 141q0 130 88.5 222t221.5 92q56 0 99 -19l-30 -91q-34 15 -73 15q-81 0 -132.5 -62.5t-51.5 -142.5q0 -54 29 -84t78 -30q52 0 104 23z" />
    <glyph glyph-name="d" unicode="d" horiz-adv-x="544" 
d="M451 710h116l-102 -537q-17 -87 -22 -173h-107l10 87h-2q-64 -98 -167 -98q-66 0 -107 49.5t-41 131.5q0 132 86.5 230t217.5 98q42 0 75 -14zM362 241l29 148q-27 19 -67 19q-73 0 -123.5 -67.5t-50.5 -152.5q0 -47 19.5 -76t58.5 -29q42 0 81 43t53 115z" />
    <glyph glyph-name="e" unicode="e" horiz-adv-x="479" 
d="M391 113l11 -85q-73 -38 -172 -38q-98 0 -149 54.5t-51 146.5q0 117 78 212t198 95q71 0 114 -38t43 -99q0 -168 -319 -161q-5 -39 13 -69q29 -50 100 -50q72 0 134 32zM353 360q0 24 -17 37.5t-45 13.5q-51 0 -87 -37.5t-48 -86.5q197 -3 197 73z" />
    <glyph glyph-name="f" unicode="f" horiz-adv-x="308" 
d="M150 0h-116l75 397h-63l17 90h63l5 25q20 111 81 164q52 45 128 45q48 0 72 -13l-22 -92q-19 8 -47 8q-39 0 -63.5 -31.5t-33.5 -82.5l-4 -23h101l-17 -90h-101z" />
    <glyph glyph-name="g" unicode="g" horiz-adv-x="543" 
d="M11 -176l28 89q49 -29 129 -29q61 0 101 34t57 115l12 55h-2q-59 -86 -153 -86q-70 0 -111 50t-42 122q0 129 87.5 226.5t231.5 97.5q93 0 169 -34l-74 -402q-30 -157 -100 -217q-66 -54 -181 -54q-99 0 -152 33zM364 250l27 145q-24 12 -64 12q-74 0 -124 -66.5
t-50 -148.5q-1 -42 18 -70.5t60 -28.5q43 0 81.5 45.5t51.5 111.5z" />
    <glyph glyph-name="h" unicode="h" horiz-adv-x="550" 
d="M136 0h-116l134 710h117l-57 -296h2q68 84 163 84q53 0 87.5 -33.5t34.5 -97.5q0 -43 -8 -86l-54 -281h-116l52 273q6 38 6 64q0 66 -61 66q-44 0 -85 -48t-55 -123z" />
    <glyph glyph-name="i" unicode="i" horiz-adv-x="249" 
d="M136 0h-116l92 487h117zM191 557q-27 0 -44 17.5t-16 44.5q0 31 20.5 51t49.5 20q27 0 44.5 -17.5t17.5 -45.5q-1 -32 -21.5 -51t-50.5 -19z" />
    <glyph glyph-name="j" unicode="j" horiz-adv-x="254" 
d="M123 487h116l-90 -477q-24 -123 -66 -169q-44 -50 -123 -50q-35 0 -63 7l14 89q14 -3 35 -3q31 0 51.5 24.5t32.5 89.5zM196 557q-26 0 -43 17.5t-17 44.5q0 31 20.5 51t49.5 20q28 0 45 -17.5t17 -45.5q0 -32 -20.5 -51t-51.5 -19z" />
    <glyph glyph-name="k" unicode="k" horiz-adv-x="496" 
d="M136 0h-116l135 710h115l-82 -434h2q27 32 44 52l146 159h144l-210 -201l140 -286h-129l-100 223l-57 -54z" />
    <glyph glyph-name="l" unicode="l" horiz-adv-x="249" 
d="M137 0h-117l136 710h116z" />
    <glyph glyph-name="m" unicode="m" horiz-adv-x="821" 
d="M133 0h-113l62 336q16 85 24 151h101l-10 -85h1q68 96 169 96q54 0 83 -28.5t32 -71.5q63 98 172 100q53 0 86 -33.5t33 -96.5q0 -31 -8 -83l-54 -285h-113l51 272q7 47 7 62q0 69 -60 69q-41 0 -79 -47.5t-52 -122.5l-44 -233h-112l52 276q6 30 6 57q0 70 -58 70
q-41 0 -81 -49.5t-53 -122.5z" />
    <glyph glyph-name="n" unicode="n" horiz-adv-x="550" 
d="M136 0h-116l63 336q11 54 25 151h103l-10 -88h2q67 99 175 99q55 0 89.5 -34t34.5 -100q0 -36 -9 -81l-54 -283h-116l52 275q6 36 6 58q0 70 -61 70q-43 0 -85 -48.5t-57 -129.5z" />
    <glyph glyph-name="o" unicode="o" horiz-adv-x="543" 
d="M313 498q94 0 147 -58t53 -144q0 -127 -80 -217t-202 -90q-91 0 -145 56.5t-54 144.5q0 127 79.5 217.5t201.5 90.5zM299 408q-65 0 -106 -69.5t-41 -145.5q0 -51 25.5 -82.5t69.5 -31.5q62 0 103.5 69t41.5 148q0 45 -22 78.5t-71 33.5z" />
    <glyph glyph-name="p" unicode="p" horiz-adv-x="545" 
d="M95 -198h-116l95 504q17 90 28 181h105l-11 -80h2q66 91 165 91q75 0 114.5 -52t39.5 -129q0 -131 -81.5 -229.5t-202.5 -98.5q-63 0 -97 21h-2zM174 222l-21 -119q29 -24 78 -24q66 0 115 72t49 157q0 39 -19 67t-58 28q-46 0 -87.5 -49t-56.5 -132z" />
    <glyph glyph-name="q" unicode="q" horiz-adv-x="545" 
d="M395 -198h-117l59 277h-2q-28 -44 -70.5 -67t-87.5 -23q-68 0 -108 50.5t-40 130.5q0 82 36 155.5t111 123t175 49.5q77 0 169 -30zM363 246l28 148q-23 13 -67 13q-72 0 -123 -68.5t-51 -154.5q0 -47 19.5 -74t51.5 -27q47 0 88 46.5t54 116.5z" />
    <glyph glyph-name="r" unicode="r" horiz-adv-x="347" 
d="M136 0h-116l57 300q6 31 10.5 66.5t8.5 71.5t6 49h101q-6 -69 -11 -103h3q57 114 153 114q9 0 25 -2l-23 -114q-12 2 -22 2q-59 0 -99.5 -52.5t-55.5 -135.5z" />
    <glyph glyph-name="s" unicode="s" horiz-adv-x="397" 
d="M2 25l30 84q59 -33 117 -33q34 1 54.5 18t20.5 42q0 23 -14 39.5t-50 35.5q-96 50 -96 127q0 70 55.5 115t141.5 45q73 0 115 -25l-30 -84q-40 22 -91 22q-33 0 -53.5 -16t-20.5 -41q0 -35 63 -67q101 -55 101 -131q0 -78 -58 -122t-149 -44q-88 0 -136 35z" />
    <glyph glyph-name="t" unicode="t" horiz-adv-x="333" 
d="M150 592l119 29l-25 -134h110l-18 -90h-109l-39 -197q-8 -46 -8 -69q0 -43 43 -43q28 0 40 2l-11 -91q-28 -10 -76 -10q-57 0 -86.5 28t-29.5 72q0 41 11 91l42 217h-66l17 90h66z" />
    <glyph glyph-name="u" unicode="u" horiz-adv-x="545" 
d="M408 487h116l-64 -336q-10 -52 -24 -151h-103l10 85h-2q-72 -96 -169 -96q-57 0 -92 33.5t-35 104.5q0 40 10 87l52 273h116l-50 -266q-8 -38 -8 -67q0 -69 62 -69q42 0 82 46t54 119z" />
    <glyph glyph-name="v" unicode="v" horiz-adv-x="486" 
d="M48 487h120l31 -242q2 -23 7.5 -66t6.5 -61h3q23 60 53 124l121 245h129l-271 -487h-117z" />
    <glyph glyph-name="w" unicode="w" horiz-adv-x="721" 
d="M56 487h116l9 -237q3 -72 -2 -144h2q16 45 57 137l118 244h97l20 -238q6 -87 5 -143h2q24 76 50 143l105 238h118l-239 -487h-109l-22 212q-5 60 -5 144h-2q-51 -125 -58 -139l-108 -217h-109z" />
    <glyph glyph-name="x" unicode="x" horiz-adv-x="472" 
d="M55 487h127l38 -88q8 -19 18 -45.5t13 -34.5h3q46 67 53 76l70 92h134l-206 -237l114 -250h-127l-39 92q-18 44 -33 88h-3q-36 -60 -49 -79l-77 -101h-134l212 251z" />
    <glyph glyph-name="y" unicode="y" horiz-adv-x="472" 
d="M45 487h122l38 -235q14 -84 19 -121h2q39 98 47 116l105 240h123l-178 -359q-91 -184 -178 -268q-69 -68 -150 -84l-27 100q51 16 86 42q53 39 86 97q5 10 2 23z" />
    <glyph glyph-name="z" unicode="z" horiz-adv-x="434" 
d="M-24 0l13 71l193 211q41 44 111 107l1 3h-227l19 95h366l-14 -75l-189 -207q-58 -62 -111 -108v-2h247l-19 -95h-390z" />
    <glyph glyph-name="braceleft" unicode="{" horiz-adv-x="301" 
d="M32 255l12 65q46 1 64.5 20.5t25.5 50.5q4 25 8.5 79.5t9.5 82.5q24 133 166 133h31l-14 -70h-18q-64 -1 -81 -79q-4 -21 -7 -66t-7 -70q-8 -51 -32 -77.5t-65 -35.5v-2q60 -14 60 -73q0 -36 -23 -105t-23 -96q0 -53 53 -53h18l-13 -71h-25q-125 0 -125 105q0 36 25 113
t25 98t-15 36t-50 15z" />
    <glyph glyph-name="bar" unicode="|" horiz-adv-x="229" 
d="M91 750h82v-1000h-82v1000z" />
    <glyph glyph-name="braceright" unicode="}" horiz-adv-x="301" 
d="M282 319l-12 -66q-46 -1 -65 -20t-25 -50q-5 -26 -9 -81t-9 -81q-26 -133 -166 -133h-31l13 71h19q64 0 80 78q5 21 8 66t7 70q15 95 97 112v2q-60 15 -60 74q0 29 23 104q23 77 23 97q0 53 -54 54h-17l13 70h24q125 0 125 -104q0 -39 -24 -115q-26 -72 -26 -97
q0 -51 66 -51z" />
    <glyph glyph-name="asciitilde" unicode="~" horiz-adv-x="596" 
d="M134 201h-79q-2 84 34 126.5t95 42.5q52 0 136 -45q75 -41 107 -41q46 0 47 81h79q4 -89 -31 -129.5t-94 -40.5q-57 0 -143 50q-71 38 -100 38q-48 0 -51 -82z" />
    <glyph glyph-name="uni00A0" unicode="&#xa0;" horiz-adv-x="183" 
 />
    <glyph glyph-name="exclamdown" unicode="&#xa1;" horiz-adv-x="254" 
d="M107 -198h-128l107 463h92zM166 492q31 0 50 -20t19 -51q0 -35 -23 -60t-58 -25q-31 0 -50.5 20.5t-19.5 52.5q0 36 23 59.5t59 23.5z" />
    <glyph glyph-name="cent" unicode="&#xa2;" horiz-adv-x="519" 
d="M297 -13h-79l19 100q-75 13 -116 67q-38 52 -38 127q0 114 72 196t177 98l18 98h79l-17 -94q54 -2 88 -22l-36 -88q-38 19 -90 19q-68 0 -117.5 -56t-49.5 -138q0 -53 31.5 -85.5t84.5 -32.5q48 0 96 21l7 -87q-45 -23 -110 -25z" />
    <glyph glyph-name="sterling" unicode="&#xa3;" horiz-adv-x="519" 
d="M444 0h-426l12 68q43 19 78.5 58t49.5 83q9 28 9 72h-92l16 85h76q2 71 12 115q20 84 78 132t146 48q63 0 100 -24l-32 -90q-29 17 -75 17q-91 0 -111 -103q-8 -43 -6 -95h141l-15 -85h-130q-3 -38 -12 -68q-19 -69 -77 -112v-2h275z" />
    <glyph glyph-name="currency" unicode="&#xa4;" horiz-adv-x="519" 
d="M272 543q70 0 115 -38l75 80l56 -59l-83 -75q34 -47 34 -116q0 -70 -35 -121l81 -77l-56 -57l-73 82q-44 -41 -114 -41q-69 0 -113 39l-70 -80l-57 57l80 75q-37 51 -37 119q0 69 37 120l-83 74l58 60l73 -80q44 38 112 38zM272 462q-47 0 -77.5 -37t-30.5 -92
q0 -63 33.5 -97t74.5 -34q43 0 75.5 33.5t32.5 97.5q0 54 -30 91.5t-78 37.5z" />
    <glyph glyph-name="yen" unicode="&#xa5;" horiz-adv-x="519" 
d="M262 0h-110l32 167h-148l11 61h148l13 68h-148l12 61h118l-104 293h120l48 -181q1 -6 9.5 -43.5t12.5 -57.5h4q38 69 59 103l118 179h128l-223 -293h117l-12 -61h-150l-12 -68h150l-12 -61h-150z" />
    <glyph glyph-name="brokenbar" unicode="&#xa6;" horiz-adv-x="229" 
d="M91 174h82v-350h-82v350zM91 674h82v-350h-82v350z" />
    <glyph glyph-name="section" unicode="&#xa7;" horiz-adv-x="531" 
d="M168 343q0 -27 17 -46t61 -39q71 -31 95 -47q49 29 49 75q0 49 -64 82q-88 40 -103 49q-24 -12 -39.5 -32t-15.5 -42zM505 650l-31 -73q-54 31 -123 31q-42 0 -69.5 -19t-27.5 -49q0 -24 22 -40.5t75 -37.5q68 -28 104.5 -62t36.5 -87q0 -87 -94 -145q26 -27 26 -71
q0 -82 -64.5 -124.5t-150.5 -41.5q-107 0 -169 45l33 74q65 -42 137 -42q46 0 74.5 19.5t28.5 51.5q0 24 -21 43.5t-74 42.5q-70 30 -110.5 64t-40.5 84q0 44 28.5 82.5t77.5 62.5q-25 29 -25 66q0 75 63.5 118t150.5 43q88 0 143 -35z" />
    <glyph glyph-name="dieresis" unicode="&#xa8;" 
d="M167 561q-25 0 -41.5 16t-16.5 42q0 29 19 47.5t46 18.5q26 0 41.5 -17t15.5 -42q0 -28 -18.5 -46.5t-45.5 -18.5zM363 561q-25 0 -42 16t-17 42q0 29 19 47.5t46 18.5q26 0 41.5 -17t15.5 -42q0 -28 -18 -46.5t-45 -18.5z" />
    <glyph glyph-name="copyright" unicode="&#xa9;" horiz-adv-x="674" 
d="M362 648q126 0 214 -90t88 -218q0 -129 -87.5 -219.5t-214.5 -90.5t-216 90.5t-89 219.5q0 128 89 218t216 90zM362 598q-104 0 -175.5 -75t-71.5 -185q0 -109 71.5 -183.5t175.5 -74.5q102 0 173 75t71 184t-71 184t-173 75zM496 492l-13 -48q-39 24 -97 24
q-62 0 -96 -35.5t-34 -95.5q0 -57 35 -94.5t95 -37.5q62 0 102 26l13 -46q-47 -32 -124 -32q-85 0 -134 51t-49 130q0 83 57 134.5t135 51.5q36 0 68 -9t42 -19z" />
    <glyph glyph-name="ordfeminine" unicode="&#xaa;" horiz-adv-x="378" 
d="M350 266h-80q0 18 2 58h-1q-43 -63 -113 -63q-44 0 -71 31.5t-27 85.5q0 87 58 150t163 63q59 0 112 -20l-36 -203q-7 -44 -7 -102zM281 413l18 108q-17 6 -39 6q-47 0 -79 -40t-33 -93q0 -29 12.5 -47t37.5 -18q27 0 51 25t32 59z" />
    <glyph glyph-name="guillemotleft" unicode="&#xab;" horiz-adv-x="438" 
d="M261 440l-147 -190l98 -186h-85l-100 188l140 188h94zM441 440l-148 -190l99 -186h-85l-100 188l140 188h94z" />
    <glyph glyph-name="logicalnot" unicode="&#xac;" horiz-adv-x="596" 
d="M41 412h506v-300h-81v222h-425v78z" />
    <glyph glyph-name="uni00AD" unicode="&#xad;" horiz-adv-x="315" 
d="M46 309h250l-16 -85h-251z" />
    <glyph glyph-name="registered" unicode="&#xae;" horiz-adv-x="403" 
d="M233 493v-61h-44v161q36 6 67 6q42 0 60 -13q17 -12 17 -35q0 -27 -35 -37v-2q24 -8 31 -41q4 -17 11 -39h-48q-5 6 -12 37q-4 24 -30 24h-17zM234 566v-42h16q34 0 34 21q0 22 -31 22q-4 0 -10.5 -0.5t-8.5 -0.5zM257 684q73 0 123 -49t50 -119q0 -71 -50 -120.5
t-123 -49.5t-123.5 49.5t-50.5 120.5q0 70 50.5 119t123.5 49zM256 646q-53 0 -89 -38t-36 -93t36 -92.5t90 -37.5t89.5 37.5t35.5 92.5t-36 93t-90 38z" />
    <glyph glyph-name="macron" unicode="&#xaf;" 
d="M158 655h234l-13 -67h-235z" />
    <glyph glyph-name="degree" unicode="&#xb0;" horiz-adv-x="339" 
d="M231 685q62 0 100.5 -39t38.5 -95q0 -61 -44 -102.5t-101 -41.5q-61 0 -100 39t-39 96q0 58 43 100.5t102 42.5zM230 626q-32 0 -53.5 -25.5t-21.5 -57.5q0 -33 20.5 -55t51.5 -22q32 0 53 24t21 59q0 31 -18 54t-53 23z" />
    <glyph glyph-name="plusminus" unicode="&#xb1;" horiz-adv-x="596" 
d="M257 576h82v-183h212v-78h-212v-187h-82v187h-212v78h212v183zM45 78h506v-78h-506v78z" />
    <glyph glyph-name="twosuperior" unicode="&#xb2;" horiz-adv-x="322" 
d="M331 406h-286l10 49l74 58q77 59 112.5 96t35.5 72q0 20 -13.5 33t-41.5 13q-41 0 -87 -29l-17 60q60 43 135 43q55 0 90 -28t35 -76q0 -28 -12 -54.5t-37.5 -52t-46.5 -42.5t-58 -44l-31 -24v-2h152z" />
    <glyph glyph-name="threesuperior" unicode="&#xb3;" horiz-adv-x="315" 
d="M133 706l-10 60q51 35 126 35q54 0 88 -25t34 -64q0 -34 -26 -59t-68 -37v-2q32 -6 54 -29.5t22 -56.5q-1 -58 -50.5 -92.5t-125.5 -34.5q-81 0 -126 31l30 63q39 -27 91 -27q37 0 59.5 17.5t22.5 43.5q0 27 -24.5 41t-62.5 14h-19l12 57h18q35 0 64.5 15.5t29.5 40.5
q0 37 -51 37q-48 0 -88 -28z" />
    <glyph glyph-name="acute" unicode="&#xb4;" 
d="M285 694h123l-131 -148h-88z" />
    <glyph glyph-name="mu" unicode="&#xb5;" horiz-adv-x="543" 
d="M223 487l-53 -280q-23 -123 66 -123q30 0 58 26.5t45 62.5q13 22 17 47l51 267h117l-63 -336q-7 -40 -0.5 -54t29.5 -16l-24 -86q-20 -6 -38 -6q-76 0 -77 95h-4q-52 -92 -133 -92q-61 0 -83 43l-10 -54q-24 -124 -21 -179h-105q-9 44 17 180l95 505h116z" />
    <glyph glyph-name="paragraph" unicode="&#xb6;" horiz-adv-x="518" 
d="M232 -49h-78l60 312q-2 1 -6 1t-6 1q-53 13 -91 56t-38 111q0 112 86 178t233 66q90 0 128 -9l-137 -716h-79l125 650h-72z" />
    <glyph glyph-name="periodcentered" unicode="&#xb7;" horiz-adv-x="238" 
d="M114 181q-31 0 -50 20.5t-19 51.5q0 36 23 61t59 25q31 0 50.5 -20.5t19.5 -53.5q0 -37 -23 -60.5t-60 -23.5z" />
    <glyph glyph-name="cedilla" unicode="&#xb8;" 
d="M127 3h67l-36 -50q26 -6 42 -23.5t16 -40.5q0 -46 -35.5 -69.5t-83.5 -23.5t-72 19l22 51q23 -15 53 -15q16 0 27.5 8t11.5 23q0 31 -69 37z" />
    <glyph glyph-name="onesuperior" unicode="&#xb9;" horiz-adv-x="253" 
d="M230 406h-95l59 310h-2l-75 -32l-8 66l112 46h83z" />
    <glyph glyph-name="ordmasculine" unicode="&#xba;" horiz-adv-x="366" 
d="M239 591q67 0 105.5 -38.5t38.5 -98.5q0 -84 -53.5 -138.5t-135.5 -54.5q-63 0 -102 39t-39 96q0 85 53.5 140t132.5 55zM233 528q-39 0 -65 -41t-26 -91q0 -33 17 -52.5t44 -19.5q38 0 64 40t26 94q0 70 -60 70z" />
    <glyph glyph-name="guillemotright" unicode="&#xbb;" horiz-adv-x="437" 
d="M154 255l-99 185h85l100 -188l-140 -188h-94zM333 255l-98 185h85l100 -188l-141 -188h-93z" />
    <glyph glyph-name="onequarter" unicode="&#xbc;" horiz-adv-x="793" 
d="M225 266h-94l59 310h-2l-75 -32l-8 66l112 46h83zM184 -11h-74l489 672h74zM656 0h-88l19 97h-184l10 53l210 243h108l-44 -233h52l-12 -63h-53zM599 160l17 91q3 14 9.5 40l7.5 30h-2q-45 -63 -47 -66l-79 -93v-2h94z" />
    <glyph glyph-name="onehalf" unicode="&#xbd;" horiz-adv-x="793" 
d="M219 266h-95l60 310h-2l-75 -32l-8 66l112 46h82zM166 -11h-75l489 672h75zM703 0h-285l9 49l74 58q77 59 112.5 96t35.5 72q0 20 -13.5 33t-41.5 13q-41 0 -87 -29l-16 60q58 43 134 43q56 0 90.5 -28t34.5 -76q0 -28 -12 -54.5t-37.5 -52t-46.5 -42.5t-58 -44l-31 -24
v-2h152z" />
    <glyph glyph-name="threequarters" unicode="&#xbe;" horiz-adv-x="793" 
d="M117 566l-10 60q49 35 126 35q53 0 87.5 -25.5t34.5 -63.5q0 -34 -26.5 -59t-68.5 -37v-2q32 -6 54.5 -29.5t21.5 -56.5q0 -58 -50 -92.5t-126 -34.5q-80 0 -125 31l30 63q37 -27 91 -27q37 0 59.5 17.5t22.5 43.5q0 27 -24.5 41t-62.5 14h-19l11 57h18q36 0 65.5 15.5
t29.5 40.5q0 37 -52 37q-47 0 -87 -28zM217 -11h-74l489 672h74zM667 0h-88l19 97h-184l10 53l210 243h108l-44 -233h53l-13 -63h-52zM610 160l18 91q4 25 17 70h-3q-25 -37 -46 -66l-80 -93v-2h94z" />
    <glyph glyph-name="questiondown" unicode="&#xbf;" horiz-adv-x="413" 
d="M180 270h113q-1 -5 -2 -13t-1 -13q-9 -82 -94 -173q-58 -61 -71 -86q-11 -21 -11 -40q0 -58 66 -59q61 0 105 28l18 -83q-67 -40 -154 -40q-72 0 -114 38.5t-42 95.5q0 50 27 92.5t81 97.5q63 63 74 129zM269 493q30 0 49.5 -20.5t19.5 -50.5q0 -35 -23.5 -60t-58.5 -25
q-31 0 -50.5 20.5t-19.5 52.5q0 36 23.5 59.5t59.5 23.5z" />
    <glyph glyph-name="Agrave" unicode="&#xc0;" horiz-adv-x="596" 
d="M400 192h-212l-92 -192h-124l338 674h146l85 -674h-122zM225 282h168l-19 168q-4 48 -10 128h-2q-7 -16 -26 -61t-29 -67zM228 832h133l77 -121h-97z" />
    <glyph glyph-name="Aacute" unicode="&#xc1;" horiz-adv-x="596" 
d="M400 192h-212l-92 -192h-124l338 674h146l85 -674h-122zM225 282h168l-19 168q-4 48 -10 128h-2q-7 -16 -26 -61t-29 -67zM420 832h137l-134 -122h-100z" />
    <glyph glyph-name="Acircumflex" unicode="&#xc2;" horiz-adv-x="596" 
d="M400 192h-212l-92 -192h-124l338 674h146l85 -674h-122zM225 282h168l-19 168q-4 48 -10 128h-2q-7 -16 -26 -61t-29 -67zM361 832h89l80 -122h-86l-45 66h-2l-64 -66h-94z" />
    <glyph glyph-name="Atilde" unicode="&#xc3;" horiz-adv-x="596" 
d="M400 192h-212l-92 -192h-124l338 674h146l85 -674h-122zM225 282h168l-19 168q-4 48 -10 128h-2q-7 -16 -26 -61t-29 -67zM308 714h-60q9 54 33.5 84t57.5 30q29 0 62 -20q28 -19 42 -19q23 0 34 42h59q-18 -111 -93 -111q-32 0 -61 19q-30 19 -41 18q-22 0 -33 -43z" />
    <glyph glyph-name="Adieresis" unicode="&#xc4;" horiz-adv-x="596" 
d="M400 192h-212l-92 -192h-124l338 674h146l85 -674h-122zM225 282h168l-19 168q-4 48 -10 128h-2q-7 -16 -26 -61t-29 -67zM289 716q-24 0 -40.5 16t-16.5 40q0 27 18.5 45.5t45.5 18.5q25 0 40.5 -16.5t15.5 -40.5q0 -27 -18.5 -45t-44.5 -18zM486 716q-24 0 -40.5 16
t-16.5 40q0 27 18.5 45.5t45.5 18.5q25 0 40.5 -16.5t15.5 -40.5q0 -27 -18.5 -45t-44.5 -18z" />
    <glyph glyph-name="Aring" unicode="&#xc5;" horiz-adv-x="596" 
d="M400 192h-212l-92 -192h-124l338 674h146l85 -674h-122zM225 282h168l-19 168q-4 48 -10 128h-2q-7 -16 -26 -61t-29 -67zM402 882q45 0 74 -24t29 -66q-1 -43 -34 -69.5t-81 -26.5q-43 0 -71.5 24t-29.5 62q-1 44 31 72t82 28zM398 839q-21 0 -34 -15.5t-13 -38.5
q0 -19 11.5 -32t31.5 -13q21 0 34.5 14.5t13.5 35.5q0 22 -12 35.5t-32 13.5z" />
    <glyph glyph-name="AE" unicode="&#xc6;" horiz-adv-x="812" 
d="M75 0h-125l429 674h437l-18 -99h-254l-18 -180h242l-19 -98h-227l-18 -198h255l-19 -99h-355l18 209h-198zM262 306h147l17 178q10 102 10 103h-4q-36 -65 -58 -103z" />
    <glyph glyph-name="Ccedilla" unicode="&#xc7;" horiz-adv-x="571" 
d="M605 654l-34 -94q-44 24 -127 24q-101 0 -172 -62q-45 -40 -71 -101.5t-26 -133.5q0 -90 47.5 -144t143.5 -54q80 0 135 26l11 -95q-61 -26 -154 -30l-26 -37q26 -6 42 -23.5t16 -42.5q0 -45 -36 -68t-82 -23t-73 20l22 51q24 -16 52 -16q16 0 28 8t12 23q0 31 -69 37
l49 73q-113 13 -178.5 87.5t-65.5 193.5q0 104 42 190.5t116 141.5q106 80 251 80q102 0 147 -31z" />
    <glyph glyph-name="Egrave" unicode="&#xc8;" horiz-adv-x="496" 
d="M459 398l-19 -98h-242l-38 -201h272l-19 -99h-389l128 674h374l-19 -99h-257l-34 -177h243zM203 832h133l76 -121h-96z" />
    <glyph glyph-name="Eacute" unicode="&#xc9;" horiz-adv-x="496" 
d="M459 398l-19 -98h-242l-38 -201h272l-19 -99h-389l128 674h374l-19 -99h-257l-34 -177h243zM378 832h137l-134 -122h-100z" />
    <glyph glyph-name="Ecircumflex" unicode="&#xca;" horiz-adv-x="496" 
d="M459 398l-19 -98h-242l-38 -201h272l-19 -99h-389l128 674h374l-19 -99h-257l-34 -177h243zM321 832h89l80 -122h-86l-45 66h-2l-64 -66h-94z" />
    <glyph glyph-name="Edieresis" unicode="&#xcb;" horiz-adv-x="496" 
d="M459 398l-19 -98h-242l-38 -201h272l-19 -99h-389l128 674h374l-19 -99h-257l-34 -177h243zM255 716q-24 0 -40.5 16t-16.5 40q0 28 18.5 46t45.5 18q25 0 40.5 -16.5t15.5 -40.5q0 -27 -18.5 -45t-44.5 -18zM452 716q-24 0 -40.5 16t-16.5 40q0 28 18.5 46t45.5 18
q24 0 40 -16.5t16 -40.5q0 -27 -18.5 -45t-44.5 -18z" />
    <glyph glyph-name="Igrave" unicode="&#xcc;" horiz-adv-x="256" 
d="M150 674h117l-128 -674h-117zM69 832h133l76 -121h-96z" />
    <glyph glyph-name="Iacute" unicode="&#xcd;" horiz-adv-x="256" 
d="M150 674h117l-128 -674h-117zM248 832h137l-134 -122h-101z" />
    <glyph glyph-name="Icircumflex" unicode="&#xce;" horiz-adv-x="256" 
d="M150 674h117l-128 -674h-117zM185 832h89l80 -122h-86l-44 66h-2l-65 -66h-94z" />
    <glyph glyph-name="Idieresis" unicode="&#xcf;" horiz-adv-x="256" 
d="M150 674h117l-128 -674h-117zM122 716q-24 0 -40.5 16t-16.5 40q0 28 18.5 46t44.5 18q25 0 41 -16.5t16 -40.5q0 -27 -18.5 -45t-44.5 -18zM319 716q-24 0 -40.5 16t-16.5 40q0 28 18 46t45 18q25 0 41 -16.5t16 -40.5q0 -27 -18.5 -45t-44.5 -18z" />
    <glyph glyph-name="Eth" unicode="&#xd0;" horiz-adv-x="676" 
d="M12 301l19 96h79l51 267q85 15 178 15q167 0 245 -78q79 -69 79 -200q0 -94 -37.5 -177t-102.5 -136q-113 -92 -312 -92q-105 0 -175 11l56 294h-80zM374 397l-19 -96h-146l-39 -205q27 -5 76 -5q131 0 209 84q82 87 82 221q0 89 -48.5 139t-149.5 50q-40 0 -77 -5
l-34 -183h146z" />
    <glyph glyph-name="Ntilde" unicode="&#xd1;" horiz-adv-x="651" 
d="M133 0h-109l128 674h134l118 -313q38 -106 61 -211h2q6 99 30 228l56 296h110l-128 -674h-119l-121 319q-44 126 -64 217l-4 -1q-8 -77 -39 -247zM344 715h-60q8 55 32.5 85t58.5 30q30 0 61 -20q26 -19 43 -19q21 0 34 42h59q-17 -111 -93 -111q-30 0 -61 18
q-32 19 -42 19q-23 -2 -32 -44z" />
    <glyph glyph-name="Ograve" unicode="&#xd2;" horiz-adv-x="688" 
d="M411 685q129 0 197 -78.5t68 -200.5q0 -92 -32 -178.5t-90 -143.5q-97 -95 -241 -95q-125 0 -195 79.5t-70 198.5q0 92 33 179.5t93 144.5q97 94 237 94zM397 587q-75 0 -133 -58q-43 -43 -68 -115.5t-25 -140.5q0 -82 39.5 -134t119.5 -52q76 0 131 57q42 42 66.5 116
t24.5 142q0 36 -7 67t-23.5 58.5t-48.5 43.5t-76 16zM275 832h133l76 -121h-96z" />
    <glyph glyph-name="Oacute" unicode="&#xd3;" horiz-adv-x="688" 
d="M411 685q129 0 197 -78.5t68 -200.5q0 -92 -32 -178.5t-90 -143.5q-97 -95 -241 -95q-125 0 -195 79.5t-70 198.5q0 92 33 179.5t93 144.5q97 94 237 94zM397 587q-75 0 -133 -58q-43 -43 -68 -115.5t-25 -140.5q0 -82 39.5 -134t119.5 -52q76 0 131 57q42 42 66.5 116
t24.5 142q0 36 -7 67t-23.5 58.5t-48.5 43.5t-76 16zM461 835h137l-135 -123h-100z" />
    <glyph glyph-name="Ocircumflex" unicode="&#xd4;" horiz-adv-x="688" 
d="M411 685q129 0 197 -78.5t68 -200.5q0 -92 -32 -178.5t-90 -143.5q-97 -95 -241 -95q-125 0 -195 79.5t-70 198.5q0 92 33 179.5t93 144.5q97 94 237 94zM397 587q-75 0 -133 -58q-43 -43 -68 -115.5t-25 -140.5q0 -82 39.5 -134t119.5 -52q76 0 131 57q42 42 66.5 116
t24.5 142q0 36 -7 67t-23.5 58.5t-48.5 43.5t-76 16zM398 832h89l80 -122h-86l-44 66h-2l-65 -66h-94z" />
    <glyph glyph-name="Otilde" unicode="&#xd5;" horiz-adv-x="688" 
d="M411 685q129 0 197 -78.5t68 -200.5q0 -92 -32 -178.5t-90 -143.5q-97 -95 -241 -95q-125 0 -195 79.5t-70 198.5q0 92 33 179.5t93 144.5q97 94 237 94zM397 587q-75 0 -133 -58q-43 -43 -68 -115.5t-25 -140.5q0 -82 39.5 -134t119.5 -52q76 0 131 57q42 42 66.5 116
t24.5 142q0 36 -7 67t-23.5 58.5t-48.5 43.5t-76 16zM353 715h-60q8 55 32.5 85t58.5 30q30 0 61 -20q26 -19 43 -19q21 0 34 42h59q-17 -111 -93 -111q-30 0 -62 18q-30 19 -41 19q-23 -2 -32 -44z" />
    <glyph glyph-name="Odieresis" unicode="&#xd6;" horiz-adv-x="688" 
d="M411 685q129 0 197 -78.5t68 -200.5q0 -92 -32 -178.5t-90 -143.5q-97 -95 -241 -95q-125 0 -195 79.5t-70 198.5q0 92 33 179.5t93 144.5q97 94 237 94zM397 587q-75 0 -133 -58q-43 -43 -68 -115.5t-25 -140.5q0 -82 39.5 -134t119.5 -52q76 0 131 57q42 42 66.5 116
t24.5 142q0 36 -7 67t-23.5 58.5t-48.5 43.5t-76 16zM336 716q-24 0 -40.5 16t-16.5 40q0 27 18.5 45.5t45.5 18.5q25 0 40.5 -16.5t15.5 -40.5q0 -27 -18.5 -45t-44.5 -18zM533 716q-24 0 -40.5 16t-16.5 40q0 28 18.5 46t45.5 18q25 0 40.5 -16.5t15.5 -40.5
q0 -27 -18.5 -45t-44.5 -18z" />
    <glyph glyph-name="multiply" unicode="&#xd7;" horiz-adv-x="596" 
d="M48 470l55 56l198 -210l197 210l55 -56l-199 -207l199 -207l-55 -56l-198 209l-198 -209l-53 57l197 206z" />
    <glyph glyph-name="Oslash" unicode="&#xd8;" horiz-adv-x="686" 
d="M84 -56l-56 53l74 88q-55 75 -55 188q0 90 32 172t89 140q102 100 238 100q100 0 161 -49l75 87l61 -48l-79 -93q50 -67 50 -178q1 -90 -31 -174.5t-88 -141.5q-46 -47 -108.5 -73t-128.5 -26q-96 0 -155 47zM186 183l312 369q-36 36 -100 36q-73 0 -131 -54t-84 -137
q-35 -113 0 -214h3zM538 480l-306 -361q34 -33 98 -33q68 0 123 50t82 131q37 111 6 213h-3z" />
    <glyph glyph-name="Ugrave" unicode="&#xd9;" horiz-adv-x="639" 
d="M150 674h117l-75 -393q-8 -40 -8 -82q1 -52 30.5 -82t80.5 -30q129 0 166 193l75 394h117l-75 -392q-29 -152 -101.5 -222.5t-196.5 -70.5q-99 0 -155.5 52.5t-56.5 155.5q0 37 9 93zM263 832h133l76 -121h-96z" />
    <glyph glyph-name="Uacute" unicode="&#xda;" horiz-adv-x="639" 
d="M150 674h117l-75 -393q-8 -40 -8 -82q1 -52 30.5 -82t80.5 -30q129 0 166 193l75 394h117l-75 -392q-29 -152 -101.5 -222.5t-196.5 -70.5q-99 0 -155.5 52.5t-56.5 155.5q0 37 9 93zM435 832h137l-134 -122h-100z" />
    <glyph glyph-name="Ucircumflex" unicode="&#xdb;" horiz-adv-x="639" 
d="M150 674h117l-75 -393q-8 -40 -8 -82q1 -52 30.5 -82t80.5 -30q129 0 166 193l75 394h117l-75 -392q-29 -152 -101.5 -222.5t-196.5 -70.5q-99 0 -155.5 52.5t-56.5 155.5q0 37 9 93zM386 832h89l80 -122h-86l-44 66h-2l-65 -66h-94z" />
    <glyph glyph-name="Udieresis" unicode="&#xdc;" horiz-adv-x="639" 
d="M150 674h117l-75 -393q-8 -40 -8 -82q1 -52 30.5 -82t80.5 -30q129 0 166 193l75 394h117l-75 -392q-29 -152 -101.5 -222.5t-196.5 -70.5q-99 0 -155.5 52.5t-56.5 155.5q0 37 9 93zM315 716q-23 0 -40 16t-17 40q0 27 18.5 45.5t45.5 18.5q25 0 40.5 -16.5t15.5 -40.5
q0 -27 -18 -45t-45 -18zM512 716q-24 0 -40.5 16t-16.5 40q0 27 18.5 45.5t45.5 18.5q25 0 40.5 -16.5t15.5 -40.5q0 -27 -18.5 -45t-44.5 -18z" />
    <glyph glyph-name="Yacute" unicode="&#xdd;" horiz-adv-x="546" 
d="M271 0h-116l53 277l-131 397h124l53 -192q19 -75 28 -118h2q30 53 70 120l121 190h138l-289 -395zM382 832h137l-135 -122h-100z" />
    <glyph glyph-name="Thorn" unicode="&#xde;" horiz-adv-x="535" 
d="M24 0l128 674h114l-24 -126q38 6 73 6q103 0 157 -50q52 -46 52 -122q0 -118 -83 -181t-204 -63q-41 0 -71 5l-28 -143h-114zM224 454l-40 -216q30 -5 63 -5q67 0 113.5 37t46.5 96q0 47 -31.5 70.5t-86.5 23.5q-39 0 -65 -6z" />
    <glyph glyph-name="germandbls" unicode="&#xdf;" horiz-adv-x="561" 
d="M136 0h-116l86 454q50 267 267 267q77 0 125.5 -42.5t48.5 -110.5q0 -64 -42 -104q-76 -34 -76 -86q0 -34 31 -78q47 -68 47 -128q0 -88 -58 -135.5t-147 -47.5q-67 0 -106 23l29 86q31 -18 75 -18q40 0 64.5 21.5t24.5 57.5q0 35 -32 81q-48 67 -48 115q0 46 29 82.5
t75 58.5q19 21 19 60q0 30 -19 50.5t-56 20.5q-48 0 -83 -41t-50 -123z" />
    <glyph glyph-name="agrave" unicode="&#xe0;" horiz-adv-x="540" 
d="M448 0h-108q1 24 9 110h-3q-65 -121 -174 -121q-65 0 -104.5 46t-39.5 120q0 64 22 124t63.5 109.5t108.5 79.5t149 30q79 0 147 -22l-50 -254q-23 -122 -20 -222zM362 275l26 128q-20 5 -48 5q-78 0 -134.5 -72.5t-56.5 -159.5q0 -93 70 -93q43 0 85 52t58 140zM212 694
h119l71 -148h-83z" />
    <glyph glyph-name="aacute" unicode="&#xe1;" horiz-adv-x="540" 
d="M448 0h-108q1 24 9 110h-3q-65 -121 -174 -121q-65 0 -104.5 46t-39.5 120q0 64 22 124t63.5 109.5t108.5 79.5t149 30q79 0 147 -22l-50 -254q-23 -122 -20 -222zM362 275l26 128q-20 5 -48 5q-78 0 -134.5 -72.5t-56.5 -159.5q0 -93 70 -93q43 0 85 52t58 140zM393 694
h123l-131 -148h-88z" />
    <glyph glyph-name="acircumflex" unicode="&#xe2;" horiz-adv-x="540" 
d="M448 0h-108q1 24 9 110h-3q-65 -121 -174 -121q-65 0 -104.5 46t-39.5 120q0 64 22 124t63.5 109.5t108.5 79.5t149 30q79 0 147 -22l-50 -254q-23 -122 -20 -222zM362 275l26 128q-20 5 -48 5q-78 0 -134.5 -72.5t-56.5 -159.5q0 -93 70 -93q43 0 85 52t58 140zM330 694
h81l72 -148h-79l-41 84h-2l-64 -84h-86z" />
    <glyph glyph-name="atilde" unicode="&#xe3;" horiz-adv-x="540" 
d="M448 0h-108q1 24 9 110h-3q-65 -121 -174 -121q-65 0 -104.5 46t-39.5 120q0 64 22 124t63.5 109.5t108.5 79.5t149 30q79 0 147 -22l-50 -254q-23 -122 -20 -222zM362 275l26 128q-20 5 -48 5q-78 0 -134.5 -72.5t-56.5 -159.5q0 -93 70 -93q43 0 85 52t58 140zM268 563
h-60q7 53 29.5 83.5t57.5 30.5q26 0 62 -21q28 -18 39 -18q12 0 19 9t12 34h59q-15 -111 -88 -111q-33 0 -62 20q-25 18 -40 18q-19 0 -28 -45z" />
    <glyph glyph-name="adieresis" unicode="&#xe4;" horiz-adv-x="540" 
d="M448 0h-108q1 24 9 110h-3q-65 -121 -174 -121q-65 0 -104.5 46t-39.5 120q0 64 22 124t63.5 109.5t108.5 79.5t149 30q79 0 147 -22l-50 -254q-23 -122 -20 -222zM362 275l26 128q-20 5 -48 5q-78 0 -134.5 -72.5t-56.5 -159.5q0 -93 70 -93q43 0 85 52t58 140zM245 561
q-25 0 -41.5 16t-16.5 42q0 29 19 47.5t46 18.5q26 0 41.5 -17t15.5 -42q0 -28 -18.5 -46.5t-45.5 -18.5zM441 561q-25 0 -42 16t-17 42q0 29 19 47.5t46 18.5q26 0 41.5 -17t15.5 -42q0 -28 -18 -46.5t-45 -18.5z" />
    <glyph glyph-name="aring" unicode="&#xe5;" horiz-adv-x="540" 
d="M448 0h-108q1 24 9 110h-3q-65 -121 -174 -121q-65 0 -104.5 46t-39.5 120q0 64 22 124t63.5 109.5t108.5 79.5t149 30q79 0 147 -22l-50 -254q-23 -122 -20 -222zM362 275l26 128q-20 5 -48 5q-78 0 -134.5 -72.5t-56.5 -159.5q0 -93 70 -93q43 0 85 52t58 140zM353 728
q44 0 73 -24.5t29 -67.5q-1 -46 -33.5 -73t-80.5 -27q-43 0 -72 24.5t-30 64.5q-1 46 31.5 74.5t82.5 28.5zM349 684q-22 0 -36 -15.5t-14 -39.5q0 -20 12.5 -34t32.5 -14q23 0 37 15.5t14 38.5q0 21 -12.5 35t-33.5 14z" />
    <glyph glyph-name="ae" unicode="&#xe6;" horiz-adv-x="743" 
d="M656 113l7 -83q-70 -41 -170 -41q-56 0 -99 25.5t-61 70.5h-3q-65 -96 -183 -96q-64 0 -103 37t-39 93q0 66 46 112t115 65.5t153 17.5l3 15q6 30 -14.5 57t-70.5 27q-70 0 -132 -41l-20 76q78 50 166 50q116 0 142 -90h3q29 43 76 66.5t101 23.5q74 0 114 -37.5
t40 -88.5q0 -50 -24.5 -83.5t-71 -49t-100 -20.5t-124.5 -2q-7 -51 7 -83q30 -53 106 -53q64 0 136 32zM298 187l9 49q-30 1 -59 -3t-59 -13.5t-48.5 -31t-18.5 -51.5q0 -27 16.5 -42.5t45.5 -15.5q40 0 72.5 29t41.5 79zM614 361q0 21 -16.5 36t-45.5 15q-50 0 -85.5 -36
t-45.5 -77q92 -4 142.5 8t50.5 54z" />
    <glyph glyph-name="ccedilla" unicode="&#xe7;" horiz-adv-x="430" 
d="M440 479l-30 -91q-34 15 -73 15q-81 0 -132.5 -62.5t-51.5 -142.5q0 -54 29 -84t78 -30q52 0 104 23l4 -90q-38 -19 -102 -25l-28 -39q26 -6 42 -23.5t16 -40.5q0 -46 -35.5 -69.5t-83.5 -23.5t-72 19l22 51q23 -15 53 -15q16 0 27.5 8t11.5 23q0 31 -69 37l49 73
q-78 8 -123 59.5t-45 132.5q0 130 88.5 222t221.5 92q56 0 99 -19z" />
    <glyph glyph-name="egrave" unicode="&#xe8;" horiz-adv-x="479" 
d="M391 113l11 -85q-73 -38 -172 -38q-98 0 -149 54.5t-51 146.5q0 117 78 212t198 95q71 0 114 -38t43 -99q0 -168 -319 -161q-5 -39 13 -69q29 -50 100 -50q72 0 134 32zM353 360q0 24 -17 37.5t-45 13.5q-51 0 -87 -37.5t-48 -86.5q197 -3 197 73zM178 694h119l71 -148
h-84z" />
    <glyph glyph-name="eacute" unicode="&#xe9;" horiz-adv-x="479" 
d="M391 113l11 -85q-73 -38 -172 -38q-98 0 -149 54.5t-51 146.5q0 117 78 212t198 95q71 0 114 -38t43 -99q0 -168 -319 -161q-5 -39 13 -69q29 -50 100 -50q72 0 134 32zM353 360q0 24 -17 37.5t-45 13.5q-51 0 -87 -37.5t-48 -86.5q197 -3 197 73zM351 694h123l-131 -148
h-88z" />
    <glyph glyph-name="ecircumflex" unicode="&#xea;" horiz-adv-x="479" 
d="M391 113l11 -85q-73 -38 -172 -38q-98 0 -149 54.5t-51 146.5q0 117 78 212t198 95q71 0 114 -38t43 -99q0 -168 -319 -161q-5 -39 13 -69q29 -50 100 -50q72 0 134 32zM353 360q0 24 -17 37.5t-45 13.5q-51 0 -87 -37.5t-48 -86.5q197 -3 197 73zM292 694h81l72 -148
h-79l-41 84h-2l-63 -84h-87z" />
    <glyph glyph-name="edieresis" unicode="&#xeb;" horiz-adv-x="479" 
d="M391 113l11 -85q-73 -38 -172 -38q-98 0 -149 54.5t-51 146.5q0 117 78 212t198 95q71 0 114 -38t43 -99q0 -168 -319 -161q-5 -39 13 -69q29 -50 100 -50q72 0 134 32zM353 360q0 24 -17 37.5t-45 13.5q-51 0 -87 -37.5t-48 -86.5q197 -3 197 73zM223 561
q-25 0 -41.5 16t-16.5 42q0 29 19 47.5t46 18.5q26 0 41.5 -17t15.5 -42q0 -28 -18.5 -46.5t-45.5 -18.5zM419 561q-25 0 -42 16t-17 42q0 29 19 47.5t46 18.5q26 0 41.5 -17t15.5 -42q0 -28 -18 -46.5t-45 -18.5z" />
    <glyph glyph-name="igrave" unicode="&#xec;" horiz-adv-x="249" 
d="M136 0h-116l92 487h117zM41 694h118l71 -148h-83z" />
    <glyph glyph-name="iacute" unicode="&#xed;" horiz-adv-x="249" 
d="M136 0h-116l92 487h117zM221 694h123l-131 -148h-88z" />
    <glyph glyph-name="icircumflex" unicode="&#xee;" horiz-adv-x="249" 
d="M136 0h-116l92 487h117zM162 694h81l72 -148h-79l-41 84h-2l-64 -84h-86z" />
    <glyph glyph-name="idieresis" unicode="&#xef;" horiz-adv-x="249" 
d="M136 0h-116l92 487h117zM93 561q-25 0 -41.5 16t-16.5 42q0 29 19 47.5t46 18.5q26 0 41.5 -17t15.5 -42q0 -28 -18.5 -46.5t-45.5 -18.5zM289 561q-25 0 -42 16t-17 42q0 29 19 47.5t46 18.5q26 0 41.5 -17t15.5 -42q0 -28 -18 -46.5t-45 -18.5z" />
    <glyph glyph-name="eth" unicode="&#xf0;" horiz-adv-x="539" 
d="M240 79q63 0 103 61.5t42 142.5q2 46 -12 69q-22 41 -77 41q-63 0 -105 -64t-41 -140q0 -47 23.5 -78.5t66.5 -31.5zM157 491l-19 52l124 54q-35 32 -86 55l54 66q69 -28 133 -79l136 58l20 -51l-111 -48q101 -106 101 -266q0 -151 -79.5 -247t-198.5 -96
q-96 0 -149 57.5t-53 143.5q0 116 75 201t183 87q58 2 90 -34l3 2q-25 67 -72 112z" />
    <glyph glyph-name="ntilde" unicode="&#xf1;" horiz-adv-x="550" 
d="M136 0h-116l63 336q11 54 25 151h103l-10 -88h2q67 99 175 99q55 0 89.5 -34t34.5 -100q0 -36 -9 -81l-54 -283h-116l52 275q6 36 6 58q0 70 -61 70q-43 0 -85 -48.5t-57 -129.5zM262 563h-60q7 53 29.5 83.5t57.5 30.5q26 0 62 -21q28 -18 39 -18q12 0 19 9t12 34h59
q-15 -111 -88 -111q-33 0 -62 20q-25 18 -39 18q-20 0 -29 -45z" />
    <glyph glyph-name="ograve" unicode="&#xf2;" horiz-adv-x="543" 
d="M313 498q94 0 147 -58t53 -144q0 -127 -80 -217t-202 -90q-91 0 -145 56.5t-54 144.5q0 127 79.5 217.5t201.5 90.5zM299 408q-65 0 -106 -69.5t-41 -145.5q0 -51 25.5 -82.5t69.5 -31.5q62 0 103.5 69t41.5 148q0 45 -22 78.5t-71 33.5zM185 694h119l71 -148h-83z" />
    <glyph glyph-name="oacute" unicode="&#xf3;" horiz-adv-x="543" 
d="M313 498q94 0 147 -58t53 -144q0 -127 -80 -217t-202 -90q-91 0 -145 56.5t-54 144.5q0 127 79.5 217.5t201.5 90.5zM299 408q-65 0 -106 -69.5t-41 -145.5q0 -51 25.5 -82.5t69.5 -31.5q62 0 103.5 69t41.5 148q0 45 -22 78.5t-71 33.5zM362 694h123l-131 -148h-88z" />
    <glyph glyph-name="ocircumflex" unicode="&#xf4;" horiz-adv-x="543" 
d="M313 498q94 0 147 -58t53 -144q0 -127 -80 -217t-202 -90q-91 0 -145 56.5t-54 144.5q0 127 79.5 217.5t201.5 90.5zM299 408q-65 0 -106 -69.5t-41 -145.5q0 -51 25.5 -82.5t69.5 -31.5q62 0 103.5 69t41.5 148q0 45 -22 78.5t-71 33.5zM309 694h81l72 -148h-79l-41 84
h-2l-64 -84h-86z" />
    <glyph glyph-name="otilde" unicode="&#xf5;" horiz-adv-x="543" 
d="M313 498q94 0 147 -58t53 -144q0 -127 -80 -217t-202 -90q-91 0 -145 56.5t-54 144.5q0 127 79.5 217.5t201.5 90.5zM299 408q-65 0 -106 -69.5t-41 -145.5q0 -51 25.5 -82.5t69.5 -31.5q62 0 103.5 69t41.5 148q0 45 -22 78.5t-71 33.5zM248 563h-60q7 53 29.5 83.5
t57.5 30.5q26 0 62 -21q28 -18 39 -18q12 0 19 9t12 34h59q-15 -111 -88 -111q-33 0 -62 20q-25 18 -39 18q-20 0 -29 -45z" />
    <glyph glyph-name="odieresis" unicode="&#xf6;" horiz-adv-x="543" 
d="M313 498q94 0 147 -58t53 -144q0 -127 -80 -217t-202 -90q-91 0 -145 56.5t-54 144.5q0 127 79.5 217.5t201.5 90.5zM299 408q-65 0 -106 -69.5t-41 -145.5q0 -51 25.5 -82.5t69.5 -31.5q62 0 103.5 69t41.5 148q0 45 -22 78.5t-71 33.5zM238 561q-25 0 -41.5 16
t-16.5 42q0 29 19 47.5t46 18.5q26 0 41.5 -17t15.5 -42q0 -28 -18.5 -46.5t-45.5 -18.5zM434 561q-25 0 -42 16t-17 42q0 29 19 47.5t46 18.5q26 0 41.5 -17t15.5 -42q0 -28 -18 -46.5t-45 -18.5z" />
    <glyph glyph-name="divide" unicode="&#xf7;" horiz-adv-x="596" 
d="M302 377q-28 0 -46 18t-18 47q0 30 17.5 48t46.5 18t46 -18t18 -48q0 -29 -17.5 -47t-46.5 -18zM555 228h-506v78h506v-78zM302 26q-28 0 -46 18t-18 47q0 30 17.5 48t46.5 18t46 -18t18 -48q0 -29 -17.5 -47t-46.5 -18z" />
    <glyph glyph-name="oslash" unicode="&#xf8;" horiz-adv-x="543" 
d="M55 -48l-36 36l59 69q-46 52 -46 137q0 124 79.5 214t199.5 90q69 0 115 -32l58 67l39 -34l-57 -67q47 -56 47 -135q0 -132 -80.5 -220t-193.5 -88q-75 0 -123 34zM163 151l196 237q-22 24 -62 24q-63 0 -104 -66t-42 -134q-1 -36 10 -60zM382 335l-198 -234
q24 -26 65 -26q59 0 101.5 63.5t43.5 136.5q0 31 -9 60h-3z" />
    <glyph glyph-name="ugrave" unicode="&#xf9;" horiz-adv-x="545" 
d="M408 487h116l-64 -336q-10 -52 -24 -151h-103l10 85h-2q-72 -96 -169 -96q-57 0 -92 33.5t-35 104.5q0 40 10 87l52 273h116l-50 -266q-8 -38 -8 -67q0 -69 62 -69q42 0 82 46t54 119zM186 694h119l71 -148h-83z" />
    <glyph glyph-name="uacute" unicode="&#xfa;" horiz-adv-x="545" 
d="M408 487h116l-64 -336q-10 -52 -24 -151h-103l10 85h-2q-72 -96 -169 -96q-57 0 -92 33.5t-35 104.5q0 40 10 87l52 273h116l-50 -266q-8 -38 -8 -67q0 -69 62 -69q42 0 82 46t54 119zM361 694h123l-131 -148h-88z" />
    <glyph glyph-name="ucircumflex" unicode="&#xfb;" horiz-adv-x="545" 
d="M408 487h116l-64 -336q-10 -52 -24 -151h-103l10 85h-2q-72 -96 -169 -96q-57 0 -92 33.5t-35 104.5q0 40 10 87l52 273h116l-50 -266q-8 -38 -8 -67q0 -69 62 -69q42 0 82 46t54 119zM313 694h82l72 -148h-80l-41 84h-2l-63 -84h-86z" />
    <glyph glyph-name="udieresis" unicode="&#xfc;" horiz-adv-x="545" 
d="M408 487h116l-64 -336q-10 -52 -24 -151h-103l10 85h-2q-72 -96 -169 -96q-57 0 -92 33.5t-35 104.5q0 40 10 87l52 273h116l-50 -266q-8 -38 -8 -67q0 -69 62 -69q42 0 82 46t54 119zM237 561q-25 0 -41.5 16t-16.5 42q0 29 19 47.5t46 18.5q26 0 41.5 -17t15.5 -42
q0 -28 -18.5 -46.5t-45.5 -18.5zM433 561q-25 0 -42 16t-17 42q0 29 19 47.5t46 18.5q26 0 41.5 -17t15.5 -42q0 -28 -18 -46.5t-45 -18.5z" />
    <glyph glyph-name="yacute" unicode="&#xfd;" horiz-adv-x="472" 
d="M45 487h122l38 -235q14 -84 19 -121h2q39 98 47 116l105 240h123l-178 -359q-91 -184 -178 -268q-69 -68 -150 -84l-27 100q51 16 86 42q53 39 86 97q5 10 2 23zM325 694h123l-131 -148h-88z" />
    <glyph glyph-name="thorn" unicode="&#xfe;" horiz-adv-x="547" 
d="M-21 -198l171 908h117l-57 -295h2q25 38 64.5 60.5t86.5 22.5q75 0 115 -51.5t39 -129.5q0 -135 -82 -231.5t-201 -96.5q-61 0 -97 21h-3l-39 -208h-116zM173 218l-21 -116q29 -24 78 -24q67 0 116 71.5t49 157.5q0 39 -18.5 67.5t-57.5 28.5q-46 0 -88 -49t-58 -136z
" />
    <glyph glyph-name="ydieresis" unicode="&#xff;" horiz-adv-x="472" 
d="M45 487h122l38 -235q14 -84 19 -121h2q39 98 47 116l105 240h123l-178 -359q-91 -184 -178 -268q-69 -68 -150 -84l-27 100q51 16 86 42q53 39 86 97q5 10 2 23zM195 561q-25 0 -42 16t-17 42q0 29 19 47.5t46 18.5q26 0 41.5 -17t15.5 -42q0 -28 -18 -46.5t-45 -18.5z
M390 561q-25 0 -41.5 16t-16.5 42q0 29 18.5 47.5t46.5 18.5q25 0 41 -17t16 -42q0 -28 -18.5 -46.5t-45.5 -18.5z" />
    <glyph glyph-name="Amacron" unicode="&#x100;" horiz-adv-x="596" 
d="M400 192h-212l-92 -192h-124l338 674h146l85 -674h-122zM225 282h168l-19 168q-4 48 -10 128h-2q-7 -16 -26 -61t-29 -67zM282 802h243l-13 -68h-244z" />
    <glyph glyph-name="amacron" unicode="&#x101;" horiz-adv-x="540" 
d="M448 0h-108q1 24 9 110h-3q-65 -121 -174 -121q-65 0 -104.5 46t-39.5 120q0 64 22 124t63.5 109.5t108.5 79.5t149 30q79 0 147 -22l-50 -254q-23 -122 -20 -222zM362 275l26 128q-20 5 -48 5q-78 0 -134.5 -72.5t-56.5 -159.5q0 -93 70 -93q43 0 85 52t58 140zM239 655
h235l-14 -67h-234z" />
    <glyph glyph-name="Abreve" unicode="&#x102;" horiz-adv-x="596" 
d="M400 192h-212l-92 -192h-124l338 674h146l85 -674h-122zM225 282h168l-19 168q-4 48 -10 128h-2q-7 -16 -26 -61t-29 -67zM275 841h68q-1 -22 13 -37t43 -15q57 0 70 52h70q-9 -52 -45 -83.5t-101 -31.5q-66 0 -95 32t-23 83z" />
    <glyph glyph-name="abreve" unicode="&#x103;" horiz-adv-x="540" 
d="M448 0h-108q1 24 9 110h-3q-65 -121 -174 -121q-65 0 -104.5 46t-39.5 120q0 64 22 124t63.5 109.5t108.5 79.5t149 30q79 0 147 -22l-50 -254q-23 -122 -20 -222zM362 275l26 128q-20 5 -48 5q-78 0 -134.5 -72.5t-56.5 -159.5q0 -93 70 -93q43 0 85 52t58 140zM231 687
h62q0 -62 51 -62q55 0 72 62h64q-9 -58 -45.5 -92t-94.5 -34q-64 0 -90 35t-19 91z" />
    <glyph glyph-name="Aogonek" unicode="&#x104;" horiz-adv-x="596" 
d="M456 674l85 -674h-54q-44 -55 -44 -94q0 -40 41 -40q23 0 45 9l9 -59q-35 -29 -94 -29q-43 0 -66.5 22t-23.5 62q0 55 65 132l-19 189h-212l-92 -192h-124l338 674h146zM225 282h168l-19 168q-4 48 -10 128h-2q-7 -16 -26 -61t-29 -67z" />
    <glyph glyph-name="aogonek" unicode="&#x105;" horiz-adv-x="540" 
d="M519 476l-49 -254q-23 -122 -20 -222h-31q-53 -55 -53 -99q0 -16 10.5 -25.5t28.5 -9.5q26 0 48 9l9 -59q-35 -29 -94 -29q-43 0 -66.5 22t-23.5 62q0 55 65 132q1 41 8 107h-2q-66 -121 -176 -121q-65 0 -104.5 46t-39.5 120q0 64 22 124t63.5 109.5t108.5 79.5t149 30
q79 0 147 -22zM364 275l24 128q-18 5 -47 5q-78 0 -134.5 -72.5t-56.5 -159.5q0 -93 70 -93q44 0 86 51.5t58 140.5z" />
    <glyph glyph-name="Cacute" unicode="&#x106;" horiz-adv-x="571" 
d="M501 115l11 -95q-68 -30 -176 -30q-132 0 -209.5 76t-77.5 207q0 104 42 190.5t116 141.5q106 80 251 80q102 0 147 -31l-34 -94q-44 24 -127 24q-101 0 -172 -62q-45 -40 -71 -101.5t-26 -133.5q0 -90 47.5 -144t143.5 -54q80 0 135 26zM452 837h137l-134 -123h-100z
" />
    <glyph glyph-name="cacute" unicode="&#x107;" horiz-adv-x="430" 
d="M364 107l4 -90q-54 -27 -140 -27q-91 0 -144 53t-53 141q0 130 88.5 222t221.5 92q56 0 99 -19l-30 -91q-34 15 -73 15q-81 0 -132.5 -62.5t-51.5 -142.5q0 -54 29 -84t78 -30q52 0 104 23zM339 694h123l-131 -148h-88z" />
    <glyph glyph-name="Ccircumflex" unicode="&#x108;" horiz-adv-x="571" 
d="M501 115l11 -95q-68 -30 -176 -30q-132 0 -209.5 76t-77.5 207q0 104 42 190.5t116 141.5q106 80 251 80q102 0 147 -31l-34 -94q-44 24 -127 24q-101 0 -172 -62q-45 -40 -71 -101.5t-26 -133.5q0 -90 47.5 -144t143.5 -54q80 0 135 26zM398 835h89l80 -123h-86l-44 66
h-2l-65 -66h-94z" />
    <glyph glyph-name="ccircumflex" unicode="&#x109;" horiz-adv-x="430" 
d="M364 107l4 -90q-54 -27 -140 -27q-91 0 -144 53t-53 141q0 130 88.5 222t221.5 92q56 0 99 -19l-30 -91q-34 15 -73 15q-81 0 -132.5 -62.5t-51.5 -142.5q0 -54 29 -84t78 -30q52 0 104 23zM277 694h81l72 -148h-79l-41 84h-2l-64 -84h-86z" />
    <glyph glyph-name="Cdotaccent" unicode="&#x10a;" horiz-adv-x="571" 
d="M501 115l11 -95q-68 -30 -176 -30q-132 0 -209.5 76t-77.5 207q0 104 42 190.5t116 141.5q106 80 251 80q102 0 147 -31l-34 -94q-44 24 -127 24q-101 0 -172 -62q-45 -40 -71 -101.5t-26 -133.5q0 -90 47.5 -144t143.5 -54q80 0 135 26zM440 718q-24 0 -41 16.5
t-17 40.5q0 27 19 46t45 19t42 -17t16 -41q0 -27 -18.5 -45.5t-45.5 -18.5z" />
    <glyph glyph-name="cdotaccent" unicode="&#x10b;" horiz-adv-x="430" 
d="M364 107l4 -90q-54 -27 -140 -27q-91 0 -144 53t-53 141q0 130 88.5 222t221.5 92q56 0 99 -19l-30 -91q-34 15 -73 15q-81 0 -132.5 -62.5t-51.5 -142.5q0 -54 29 -84t78 -30q52 0 104 23zM319 560q-25 0 -42 16.5t-17 42.5q0 29 19 47.5t47 18.5q26 0 41.5 -16.5
t15.5 -42.5q0 -29 -18.5 -47.5t-45.5 -18.5z" />
    <glyph glyph-name="Ccaron" unicode="&#x10c;" horiz-adv-x="571" 
d="M501 115l11 -95q-68 -30 -176 -30q-132 0 -209.5 76t-77.5 207q0 104 42 190.5t116 141.5q106 80 251 80q102 0 147 -31l-34 -94q-44 24 -127 24q-101 0 -172 -62q-45 -40 -71 -101.5t-26 -133.5q0 -90 47.5 -144t143.5 -54q80 0 135 26zM466 714h-89l-80 123h87l43 -68
h3l64 68h95z" />
    <glyph glyph-name="ccaron" unicode="&#x10d;" horiz-adv-x="430" 
d="M364 107l4 -90q-54 -27 -140 -27q-91 0 -144 53t-53 141q0 130 88.5 222t221.5 92q56 0 99 -19l-30 -91q-34 15 -73 15q-81 0 -132.5 -62.5t-51.5 -142.5q0 -54 29 -84t78 -30q52 0 104 23zM343 546h-81l-73 148h80l41 -85h2l65 85h86z" />
    <glyph glyph-name="Dcaron" unicode="&#x10e;" horiz-adv-x="666" 
d="M26 6l125 658q83 15 178 15q164 0 247 -81q77 -70 77 -198q0 -95 -36.5 -177.5t-100.5 -135.5q-111 -91 -315 -91q-99 0 -175 10zM252 579l-92 -484q31 -4 74 -4q138 0 213 83q80 85 80 224q0 88 -49 137.5t-151 49.5q-47 0 -75 -6zM420 710h-90l-80 122h87l43 -67h3
l64 67h95z" />
    <glyph glyph-name="dcaron" unicode="&#x10f;" horiz-adv-x="553" 
d="M606 514l-40 47q54 38 54 98q0 27 -14 45l82 16q24 -22 24 -62q0 -47 -31.5 -86t-74.5 -58zM451 710h116l-102 -537q-17 -87 -22 -173h-107l10 87h-2q-64 -98 -167 -98q-66 0 -107 49.5t-41 131.5q0 132 86.5 230t217.5 98q42 0 75 -14zM362 241l29 148q-27 19 -67 19
q-73 0 -123.5 -67.5t-50.5 -152.5q0 -47 19.5 -76t58.5 -29q42 0 81 43t53 115z" />
    <glyph glyph-name="Dcroat" unicode="&#x110;" horiz-adv-x="676" 
d="M12 301l19 96h79l51 267q85 15 178 15q167 0 245 -78q79 -69 79 -200q0 -94 -37.5 -177t-102.5 -136q-113 -92 -312 -92q-105 0 -175 11l56 294h-80zM374 397l-19 -96h-146l-39 -205q27 -5 76 -5q131 0 209 84q82 87 82 221q0 89 -48.5 139t-149.5 50q-40 0 -77 -5
l-34 -183h146z" />
    <glyph glyph-name="dcroat" unicode="&#x111;" horiz-adv-x="544" 
d="M362 241l29 148q-27 19 -67 19q-73 0 -123.5 -67.5t-50.5 -152.5q0 -47 19.5 -76t58.5 -29q41 0 80 43t54 115zM243 616h190l18 94h116l-18 -94h78l-13 -67h-78l-71 -376q-17 -87 -22 -173h-107l10 87h-2q-64 -98 -167 -98q-66 0 -107 49.5t-41 131.5q0 132 86.5 230
t217.5 98q42 0 75 -14l12 65h-190z" />
    <glyph glyph-name="Emacron" unicode="&#x112;" horiz-adv-x="496" 
d="M459 398l-19 -98h-242l-38 -201h272l-19 -99h-389l128 674h374l-19 -99h-257l-34 -177h243zM237 802h244l-14 -68h-243z" />
    <glyph glyph-name="emacron" unicode="&#x113;" horiz-adv-x="479" 
d="M391 113l11 -85q-73 -38 -172 -38q-98 0 -149 54.5t-51 146.5q0 117 78 212t198 95q71 0 114 -38t43 -99q0 -168 -319 -161q-5 -39 13 -69q29 -50 100 -50q72 0 134 32zM353 360q0 24 -17 37.5t-45 13.5q-51 0 -87 -37.5t-48 -86.5q197 -3 197 73zM203 655h234l-13 -67
h-235z" />
    <glyph glyph-name="Ebreve" unicode="&#x114;" horiz-adv-x="496" 
d="M459 398l-19 -98h-242l-38 -201h272l-19 -99h-389l128 674h374l-19 -99h-257l-34 -177h243zM227 835h67q0 -51 57 -51q58 0 70 51h70q-9 -51 -45.5 -83t-100.5 -32q-66 0 -95 32t-23 83z" />
    <glyph glyph-name="ebreve" unicode="&#x115;" horiz-adv-x="479" 
d="M391 113l11 -85q-73 -38 -172 -38q-98 0 -149 54.5t-51 146.5q0 117 78 212t198 95q71 0 114 -38t43 -99q0 -168 -319 -161q-5 -39 13 -69q29 -50 100 -50q72 0 134 32zM353 360q0 24 -17 37.5t-45 13.5q-51 0 -87 -37.5t-48 -86.5q197 -3 197 73zM200 687h62
q0 -62 51 -62q55 0 72 62h64q-9 -58 -45.5 -92t-94.5 -34q-64 0 -90 35t-19 91z" />
    <glyph glyph-name="Edotaccent" unicode="&#x116;" horiz-adv-x="496" 
d="M459 398l-19 -98h-242l-38 -201h272l-19 -99h-389l128 674h374l-19 -99h-257l-34 -177h243zM355 716q-24 0 -41 16t-17 41q0 27 19 45.5t45 18.5q25 0 41 -17t16 -40q0 -27 -18.5 -45.5t-44.5 -18.5z" />
    <glyph glyph-name="edotaccent" unicode="&#x117;" horiz-adv-x="479" 
d="M391 113l11 -85q-73 -38 -172 -38q-98 0 -149 54.5t-51 146.5q0 117 78 212t198 95q71 0 114 -38t43 -99q0 -168 -319 -161q-5 -39 13 -69q29 -50 100 -50q72 0 134 32zM353 360q0 24 -17 37.5t-45 13.5q-51 0 -87 -37.5t-48 -86.5q197 -3 197 73zM315 560
q-24 0 -41 16.5t-17 42.5q0 29 19 47.5t46 18.5t42.5 -16.5t15.5 -42.5q0 -29 -18.5 -47.5t-46.5 -18.5z" />
    <glyph glyph-name="Eogonek" unicode="&#x118;" horiz-adv-x="496" 
d="M24 0l128 674h374l-19 -99h-257l-34 -177h243l-19 -98h-242l-38 -201h272l-19 -99h-18q-81 -56 -81 -106q0 -30 30 -30q25 0 45 10l16 -59q-41 -29 -96 -29q-40 0 -62.5 21.5t-22.5 56.5q0 37 26.5 74t62.5 62h-289z" />
    <glyph glyph-name="eogonek" unicode="&#x119;" horiz-adv-x="479" 
d="M353 360q0 24 -17 37.5t-45 13.5q-51 0 -87 -37.5t-48 -86.5q197 -3 197 73zM333 -121l13 -60q-44 -27 -97 -27q-39 0 -60.5 21t-21.5 57q0 65 74 120v1q-8 -1 -26 -1q-91 4 -138 58t-47 143q0 117 78 212t198 95q71 0 114 -38t43 -99q1 -89 -83.5 -126.5t-235.5 -34.5
q-5 -39 13 -69q29 -50 100 -50q72 0 134 32l11 -85q-5 -3 -49 -21q-96 -56 -96 -106q0 -14 8 -22.5t22 -8.5q24 0 46 9z" />
    <glyph glyph-name="Ecaron" unicode="&#x11a;" horiz-adv-x="496" 
d="M459 398l-19 -98h-242l-38 -201h272l-19 -99h-389l128 674h374l-19 -99h-257l-34 -177h243zM393 710h-90l-79 122h87l42 -67h3l64 67h95z" />
    <glyph glyph-name="ecaron" unicode="&#x11b;" horiz-adv-x="479" 
d="M391 113l11 -85q-73 -38 -172 -38q-98 0 -149 54.5t-51 146.5q0 117 78 212t198 95q71 0 114 -38t43 -99q0 -168 -319 -161q-5 -39 13 -69q29 -50 100 -50q72 0 134 32zM353 360q0 24 -17 37.5t-45 13.5q-51 0 -87 -37.5t-48 -86.5q197 -3 197 73zM343 546h-81l-73 148
h79l42 -85h2l65 85h86z" />
    <glyph glyph-name="Gcircumflex" unicode="&#x11c;" horiz-adv-x="651" 
d="M618 370l-64 -340q-106 -37 -206 -37q-143 0 -222 79q-77 74 -77 202q0 91 35 171.5t100 136.5q116 99 288 99q113 0 170 -31l-36 -98q-56 28 -143 28q-111 0 -188 -66q-46 -39 -72.5 -100.5t-26.5 -130.5q0 -92 49 -141.5t143 -49.5q49 0 86 15l32 169h-119l19 94h232z
M421 832h89l80 -122h-86l-44 66h-2l-65 -66h-94z" />
    <glyph glyph-name="gcircumflex" unicode="&#x11d;" horiz-adv-x="543" 
d="M11 -176l28 89q49 -29 129 -29q61 0 101 34t57 115l12 55h-2q-59 -86 -153 -86q-70 0 -111 50t-42 122q0 129 87.5 226.5t231.5 97.5q93 0 169 -34l-74 -402q-30 -157 -100 -217q-66 -54 -181 -54q-99 0 -152 33zM364 250l27 145q-24 12 -64 12q-74 0 -124 -66.5
t-50 -148.5q-1 -42 18 -70.5t60 -28.5q43 0 81.5 45.5t51.5 111.5zM313 694h82l72 -148h-80l-41 84h-2l-63 -84h-86z" />
    <glyph glyph-name="Gbreve" unicode="&#x11e;" horiz-adv-x="651" 
d="M618 370l-64 -340q-106 -37 -206 -37q-143 0 -222 79q-77 74 -77 202q0 91 35 171.5t100 136.5q116 99 288 99q113 0 170 -31l-36 -98q-56 28 -143 28q-111 0 -188 -66q-46 -39 -72.5 -100.5t-26.5 -130.5q0 -92 49 -141.5t143 -49.5q49 0 86 15l32 169h-119l19 94h232z
M318 836h68q-1 -22 13 -36.5t43 -14.5q59 0 70 51h70q-9 -51 -45 -82.5t-101 -31.5q-66 0 -95 31.5t-23 82.5z" />
    <glyph glyph-name="gbreve" unicode="&#x11f;" horiz-adv-x="543" 
d="M11 -176l28 89q49 -29 129 -29q61 0 101 34t57 115l12 55h-2q-59 -86 -153 -86q-70 0 -111 50t-42 122q0 129 87.5 226.5t231.5 97.5q93 0 169 -34l-74 -402q-30 -157 -100 -217q-66 -54 -181 -54q-99 0 -152 33zM364 250l27 145q-24 12 -64 12q-74 0 -124 -66.5
t-50 -148.5q-1 -42 18 -70.5t60 -28.5q43 0 81.5 45.5t51.5 111.5zM232 687h62q0 -62 51 -62q55 0 72 62h64q-9 -58 -45.5 -92t-94.5 -34q-64 0 -90 35t-19 91z" />
    <glyph glyph-name="Gdotaccent" unicode="&#x120;" horiz-adv-x="651" 
d="M618 370l-64 -340q-106 -37 -206 -37q-143 0 -222 79q-77 74 -77 202q0 91 35 171.5t100 136.5q116 99 288 99q113 0 170 -31l-36 -98q-56 28 -143 28q-111 0 -188 -66q-46 -39 -72.5 -100.5t-26.5 -130.5q0 -92 49 -141.5t143 -49.5q49 0 86 15l32 169h-119l19 94h232z
M455 716q-24 0 -41 16t-17 41q0 27 19 45.5t46 18.5q25 0 41 -17t16 -40q0 -27 -18.5 -45.5t-45.5 -18.5z" />
    <glyph glyph-name="gdotaccent" unicode="&#x121;" horiz-adv-x="543" 
d="M11 -176l28 89q49 -29 129 -29q61 0 101 34t57 115l12 55h-2q-59 -86 -153 -86q-70 0 -111 50t-42 122q0 129 87.5 226.5t231.5 97.5q93 0 169 -34l-74 -402q-30 -157 -100 -217q-66 -54 -181 -54q-99 0 -152 33zM364 250l27 145q-24 12 -64 12q-74 0 -124 -66.5
t-50 -148.5q-1 -42 18 -70.5t60 -28.5q43 0 81.5 45.5t51.5 111.5zM346 560q-24 0 -41 16.5t-17 42.5q0 29 19 47.5t46 18.5t42.5 -16.5t15.5 -42.5q0 -29 -18.5 -47.5t-46.5 -18.5z" />
    <glyph glyph-name="uni0122" unicode="&#x122;" horiz-adv-x="651" 
d="M618 370l-64 -340q-106 -37 -206 -37q-143 0 -222 79q-77 74 -77 202q0 91 35 171.5t100 136.5q116 99 288 99q113 0 170 -31l-36 -98q-56 28 -143 28q-111 0 -188 -66q-46 -39 -72.5 -100.5t-26.5 -130.5q0 -92 49 -141.5t143 -49.5q49 0 86 15l32 169h-119l19 94h232z
M221 -231l-13 55q33 5 57.5 23t24.5 48q0 28 -22 48l88 16q27 -21 27 -61q0 -60 -49 -93t-113 -36z" />
    <glyph glyph-name="uni0123" unicode="&#x123;" horiz-adv-x="543" 
d="M444 721l13 -54q-34 -5 -58.5 -23t-24.5 -48t21 -49l-84 -16q-26 24 -26 62q0 59 48.5 92t110.5 36zM11 -176l28 89q49 -29 129 -29q61 0 101 34t57 115l12 55h-2q-59 -86 -153 -86q-70 0 -111 50t-42 122q0 129 87.5 226.5t231.5 97.5q93 0 169 -34l-74 -402
q-30 -157 -100 -217q-66 -54 -181 -54q-99 0 -152 33zM364 250l27 145q-24 12 -64 12q-74 0 -124 -66.5t-50 -148.5q-1 -42 18 -70.5t60 -28.5q43 0 81.5 45.5t51.5 111.5z" />
    <glyph glyph-name="Hcircumflex" unicode="&#x124;" horiz-adv-x="648" 
d="M153 674h116l-52 -272h274l52 272h117l-128 -674h-117l57 298h-275l-56 -298h-116zM390 832h89l80 -122h-86l-44 66h-2l-65 -66h-94z" />
    <glyph glyph-name="hcircumflex" unicode="&#x125;" horiz-adv-x="550" 
d="M136 0h-116l134 710h117l-57 -296h2q68 84 163 84q53 0 87.5 -33.5t34.5 -97.5q0 -43 -8 -86l-54 -281h-116l52 273q6 38 6 64q0 66 -61 66q-44 0 -85 -48t-55 -123zM197 861h89l80 -123h-86l-45 66h-2l-64 -66h-94z" />
    <glyph glyph-name="Hbar" unicode="&#x126;" horiz-adv-x="648" 
d="M505 475h-274l-17 -92h273zM53 550h76l24 124h116l-23 -124h274l23 124h117l-24 -124h69l-14 -75h-69l-90 -475h-117l53 279h-274l-53 -279h-116l90 475h-77z" />
    <glyph glyph-name="hbar" unicode="&#x127;" horiz-adv-x="550" 
d="M49 615h88l17 95h117l-18 -95h174l-13 -67h-174l-26 -134h2q68 84 163 84q53 0 87.5 -33.5t34.5 -97.5q0 -43 -8 -86l-54 -281h-116l52 273q6 38 6 64q0 66 -61 66q-44 0 -85 -48t-55 -123l-44 -232h-116l104 547h-88z" />
    <glyph glyph-name="Itilde" unicode="&#x128;" horiz-adv-x="256" 
d="M150 674h117l-128 -674h-117zM143 714h-60q9 54 33.5 84t57.5 30q29 0 62 -20q28 -19 42 -19q23 0 34 42h59q-18 -111 -93 -111q-32 0 -61 19q-30 19 -41 18q-22 0 -33 -43z" />
    <glyph glyph-name="itilde" unicode="&#x129;" horiz-adv-x="249" 
d="M136 0h-116l92 487h117zM121 563h-60q7 53 29.5 83.5t57.5 30.5q26 0 62 -21q28 -18 39 -18q12 0 19 9t12 34h59q-15 -111 -88 -111q-33 0 -62 20q-25 18 -39 18q-20 0 -29 -45z" />
    <glyph glyph-name="Imacron" unicode="&#x12a;" horiz-adv-x="256" 
d="M150 674h117l-128 -674h-117zM113 802h243l-13 -68h-243z" />
    <glyph glyph-name="imacron" unicode="&#x12b;" horiz-adv-x="249" 
d="M136 0h-116l92 487h117zM87 655h234l-13 -67h-234z" />
    <glyph glyph-name="Ibreve" unicode="&#x12c;" horiz-adv-x="256" 
d="M150 674h117l-128 -674h-117zM106 838h68q-1 -22 12.5 -36.5t43.5 -14.5q58 0 70 51h70q-9 -51 -45.5 -83t-100.5 -32q-66 0 -95 32t-23 83z" />
    <glyph glyph-name="ibreve" unicode="&#x12d;" horiz-adv-x="249" 
d="M136 0h-116l92 487h117zM85 687h62q0 -62 51 -62q55 0 72 62h64q-9 -58 -45.5 -92t-94.5 -34q-64 0 -90 35t-19 91z" />
    <glyph glyph-name="Iogonek" unicode="&#x12e;" horiz-adv-x="256" 
d="M267 674l-128 -674h-48q-44 -53 -44 -94q0 -40 41 -40q23 0 45 9l9 -59q-35 -29 -94 -29q-42 0 -65.5 22t-23.5 62q0 56 64 132l127 671h117z" />
    <glyph glyph-name="iogonek" unicode="&#x12f;" horiz-adv-x="249" 
d="M191 561q-28 0 -46 18t-18 47q1 32 22.5 53.5t52.5 21.5q29 0 47 -18.5t18 -47.5q-1 -34 -22.5 -54t-53.5 -20zM229 487l-93 -487h-47q-44 -53 -44 -94q0 -40 41 -40q23 0 45 9l9 -59q-35 -29 -94 -29q-43 0 -66.5 22t-23.5 62q0 55 65 132l91 484h117z" />
    <glyph glyph-name="Idotaccent" unicode="&#x130;" horiz-adv-x="256" 
d="M150 674h117l-128 -674h-117zM228 716q-24 0 -41 16t-17 41q0 27 19 45.5t45 18.5q25 0 41 -17t16 -40q0 -27 -18.5 -45.5t-44.5 -18.5z" />
    <glyph glyph-name="dotlessi" unicode="&#x131;" horiz-adv-x="249" 
d="M136 0h-116l92 487h117z" />
    <glyph glyph-name="IJ" unicode="&#x132;" horiz-adv-x="639" 
d="M150 674h117l-128 -674h-117zM222 6l24 99q34 -13 82 -13q52 0 83.5 32t45.5 110l83 440h117l-87 -453q-23 -124 -79.5 -178t-162.5 -54q-68 0 -106 17z" />
    <glyph glyph-name="ij" unicode="&#x133;" horiz-adv-x="502" 
d="M136 0h-116l92 487h117zM191 557q-27 0 -44 17.5t-16 44.5q0 31 20.5 51t49.5 20q27 0 44.5 -17.5t17.5 -45.5q-1 -32 -21.5 -51t-50.5 -19zM371 487h116l-90 -477q-22 -122 -65 -169q-44 -50 -124 -50q-35 0 -62 7l13 89q15 -3 35 -3q31 0 51.5 24.5t33.5 89.5zM445 557
q-27 0 -44 17.5t-16 44.5q0 31 20.5 51t49.5 20q27 0 44.5 -17.5t17.5 -45.5q-1 -32 -21.5 -51t-50.5 -19z" />
    <glyph glyph-name="Jcircumflex" unicode="&#x134;" horiz-adv-x="383" 
d="M-33 6l23 99q36 -13 82 -13q52 0 83.5 32t45.5 110l84 440h116l-86 -453q-23 -123 -80 -177.5t-162 -54.5q-70 0 -106 17zM321 832h89l80 -122h-86l-44 66h-2l-65 -66h-94z" />
    <glyph glyph-name="jcircumflex" unicode="&#x135;" horiz-adv-x="254" 
d="M123 487h116l-90 -477q-24 -123 -66 -169q-44 -50 -123 -50q-35 0 -63 7l14 89q14 -3 35 -3q31 0 51.5 24.5t32.5 89.5zM166 694h79l72 -148h-78l-41 89h-2l-64 -89h-85z" />
    <glyph glyph-name="uni0136" unicode="&#x136;" horiz-adv-x="556" 
d="M24 0l128 674h115l-59 -313h4q8 11 63 77l210 236h145l-278 -291l164 -383h-127l-128 310l-76 -71l-46 -239h-115zM144 -231l-13 55q33 5 57.5 23t24.5 48q0 28 -22 48l89 16q26 -22 26 -61q0 -60 -49 -93t-113 -36z" />
    <glyph glyph-name="uni0137" unicode="&#x137;" horiz-adv-x="496" 
d="M136 0h-116l135 710h115l-82 -434h2q27 32 44 52l146 159h144l-210 -201l140 -286h-129l-100 223l-57 -54zM115 -231l-13 55q33 5 57.5 23t24.5 48q0 28 -22 48l89 16q27 -22 27 -61q0 -60 -49 -93t-114 -36z" />
    <glyph glyph-name="kgreenlandic" unicode="&#x138;" horiz-adv-x="496" 
d="M136 0h-116l92 487h116l-40 -211h2q27 32 44 52l146 159h144l-210 -201l140 -286h-129l-100 223l-57 -54z" />
    <glyph glyph-name="Lacute" unicode="&#x139;" horiz-adv-x="467" 
d="M24 0l128 674h117l-109 -572h265l-19 -102h-382zM272 832h137l-134 -122h-101z" />
    <glyph glyph-name="lacute" unicode="&#x13a;" horiz-adv-x="249" 
d="M137 0h-117l136 710h116zM254 868h137l-134 -123h-101z" />
    <glyph glyph-name="uni013B" unicode="&#x13b;" horiz-adv-x="467" 
d="M24 0l128 674h117l-109 -572h265l-19 -102h-382zM108 -231l-13 55q32 5 56.5 23t24.5 48q0 28 -22 48l89 16q27 -21 27 -61q0 -60 -49 -93t-113 -36z" />
    <glyph glyph-name="uni013C" unicode="&#x13c;" horiz-adv-x="249" 
d="M137 0h-117l136 710h116zM-24 -231l-12 55q32 5 56.5 23t24.5 48q0 28 -22 48l89 16q27 -22 27 -61q0 -60 -49 -93t-114 -36z" />
    <glyph glyph-name="Lcaron" unicode="&#x13d;" horiz-adv-x="467" 
d="M24 0l128 674h117l-109 -572h265l-19 -102h-382zM311 489l-13 55q33 5 57.5 23t24.5 48q0 28 -22 48l89 16q26 -24 26 -62q0 -59 -49 -92t-113 -36z" />
    <glyph glyph-name="lcaron" unicode="&#x13e;" horiz-adv-x="256" 
d="M316 514l-42 45q22 15 38 42t16 58q0 27 -14 45l82 16q23 -21 23 -62q0 -52 -32 -90.5t-71 -53.5zM137 0h-117l136 710h116z" />
    <glyph glyph-name="Ldot" unicode="&#x13f;" horiz-adv-x="467" 
d="M24 0l128 674h117l-109 -572h265l-19 -102h-382zM370 314q-24 0 -41 16.5t-17 40.5q0 28 19 46.5t46 18.5q25 0 41 -17t16 -41q0 -27 -18.5 -45.5t-45.5 -18.5z" />
    <glyph glyph-name="ldot" unicode="&#x140;" horiz-adv-x="315" 
d="M301 301q-24 0 -39.5 15.5t-15.5 41.5q0 28 18 46t44 18q24 0 39 -16t15 -41q0 -29 -17 -46.5t-44 -17.5zM137 0h-117l136 710h116z" />
    <glyph glyph-name="Lslash" unicode="&#x141;" horiz-adv-x="476" 
d="M415 0h-382l48 251l-90 -56l18 88l89 56l63 335h117l-49 -253l140 88l-16 -89l-141 -88l-43 -230h265z" />
    <glyph glyph-name="lslash" unicode="&#x142;" horiz-adv-x="260" 
d="M142 0h-116l48 253l-74 -52l17 90l74 52l71 367h116l-53 -275l80 55l-17 -90l-80 -56z" />
    <glyph glyph-name="Nacute" unicode="&#x143;" horiz-adv-x="651" 
d="M133 0h-109l128 674h134l118 -313q38 -106 61 -211h2q6 99 30 228l56 296h110l-128 -674h-119l-121 319q-44 126 -64 217l-4 -1q-8 -77 -39 -247zM442 832h137l-135 -122h-100z" />
    <glyph glyph-name="nacute" unicode="&#x144;" horiz-adv-x="550" 
d="M136 0h-116l63 336q11 54 25 151h103l-10 -88h2q67 99 175 99q55 0 89.5 -34t34.5 -100q0 -36 -9 -81l-54 -283h-116l52 275q6 36 6 58q0 70 -61 70q-43 0 -85 -48.5t-57 -129.5zM374 694h123l-131 -148h-88z" />
    <glyph glyph-name="uni0145" unicode="&#x145;" horiz-adv-x="651" 
d="M133 0h-109l128 674h134l118 -313q38 -106 61 -211h2q6 99 30 228l56 296h110l-128 -674h-119l-121 319q-44 126 -64 217l-4 -1q-8 -77 -39 -247zM187 -231l-13 55q33 5 57.5 23t24.5 48q0 28 -22 48l88 16q27 -21 27 -61q0 -60 -49 -93t-113 -36z" />
    <glyph glyph-name="uni0146" unicode="&#x146;" horiz-adv-x="550" 
d="M136 0h-116l63 336q11 54 25 151h103l-10 -88h2q67 99 175 99q55 0 89.5 -34t34.5 -100q0 -36 -9 -81l-54 -283h-116l52 275q6 36 6 58q0 70 -61 70q-43 0 -85 -48.5t-57 -129.5zM132 -231l-13 55q32 5 56.5 23t24.5 48q0 28 -22 48l89 16q27 -21 27 -61q0 -60 -49 -93
t-113 -36z" />
    <glyph glyph-name="Ncaron" unicode="&#x147;" horiz-adv-x="651" 
d="M133 0h-109l128 674h134l118 -313q38 -106 61 -211h2q6 99 30 228l56 296h110l-128 -674h-119l-121 319q-44 126 -64 217l-4 -1q-8 -77 -39 -247zM460 710h-89l-80 122h87l43 -67h3l64 67h95z" />
    <glyph glyph-name="ncaron" unicode="&#x148;" horiz-adv-x="550" 
d="M136 0h-116l63 336q11 54 25 151h103l-10 -88h2q67 99 175 99q55 0 89.5 -34t34.5 -100q0 -36 -9 -81l-54 -283h-116l52 275q6 36 6 58q0 70 -61 70q-43 0 -85 -48.5t-57 -129.5zM360 546h-82l-72 148h79l41 -85h3l64 85h86z" />
    <glyph glyph-name="napostrophe" unicode="&#x149;" horiz-adv-x="550" 
d="M75 543l-14 55q20 7 35.5 26t15.5 44q0 31 -21 50l84 15q26 -22 26 -62q0 -58 -40 -90.5t-86 -37.5zM136 0h-116l63 336q11 54 25 151h103l-10 -88h2q67 99 175 99q55 0 89.5 -34t34.5 -100q0 -36 -9 -81l-54 -283h-116l52 275q6 36 6 58q0 70 -61 70q-43 0 -85 -48.5
t-57 -129.5z" />
    <glyph glyph-name="Eng" unicode="&#x14a;" horiz-adv-x="651" 
d="M290 -205l-10 94q111 11 136 106l-121 324q-42 116 -64 217l-4 -1q-8 -77 -39 -247l-55 -288h-109l128 674h134l118 -313q38 -106 61 -211h2q6 99 30 228l56 296h110l-121 -637q-25 -130 -89 -184t-163 -58z" />
    <glyph glyph-name="eng" unicode="&#x14b;" horiz-adv-x="550" 
d="M215 -184l-11 96q53 6 83.5 36t44.5 100l43 227q6 36 6 58q0 70 -61 70q-43 0 -85 -48.5t-57 -129.5l-42 -225h-116l63 336q14 73 25 151h103l-10 -88h2q67 99 174 99q56 0 90.5 -34t34.5 -101q0 -35 -9 -80l-44 -231q-23 -125 -81.5 -177.5t-152.5 -58.5z" />
    <glyph glyph-name="Omacron" unicode="&#x14c;" horiz-adv-x="688" 
d="M411 685q129 0 197 -78.5t68 -200.5q0 -92 -32 -178.5t-90 -143.5q-97 -95 -241 -95q-125 0 -195 79.5t-70 198.5q0 92 33 179.5t93 144.5q97 94 237 94zM397 587q-75 0 -133 -58q-43 -43 -68 -115.5t-25 -140.5q0 -82 39.5 -134t119.5 -52q76 0 131 57q42 42 66.5 116
t24.5 142q0 36 -7 67t-23.5 58.5t-48.5 43.5t-76 16zM323 802h243l-13 -68h-243z" />
    <glyph glyph-name="omacron" unicode="&#x14d;" horiz-adv-x="543" 
d="M313 498q94 0 147 -58t53 -144q0 -127 -80 -217t-202 -90q-91 0 -145 56.5t-54 144.5q0 127 79.5 217.5t201.5 90.5zM299 408q-65 0 -106 -69.5t-41 -145.5q0 -51 25.5 -82.5t69.5 -31.5q62 0 103.5 69t41.5 148q0 45 -22 78.5t-71 33.5zM235 655h234l-13 -67h-235z" />
    <glyph glyph-name="Obreve" unicode="&#x14e;" horiz-adv-x="688" 
d="M411 685q129 0 197 -78.5t68 -200.5q0 -92 -32 -178.5t-90 -143.5q-97 -95 -241 -95q-125 0 -195 79.5t-70 198.5q0 92 33 179.5t93 144.5q97 94 237 94zM397 587q-75 0 -133 -58q-43 -43 -68 -115.5t-25 -140.5q0 -82 39.5 -134t119.5 -52q76 0 131 57q42 42 66.5 116
t24.5 142q0 36 -7 67t-23.5 58.5t-48.5 43.5t-76 16zM316 839h68q-1 -22 12.5 -36.5t43.5 -14.5q59 0 71 51h69q-9 -51 -45.5 -83t-100.5 -32q-65 0 -94.5 32t-23.5 83z" />
    <glyph glyph-name="obreve" unicode="&#x14f;" horiz-adv-x="543" 
d="M313 498q94 0 147 -58t53 -144q0 -127 -80 -217t-202 -90q-91 0 -145 56.5t-54 144.5q0 127 79.5 217.5t201.5 90.5zM299 408q-65 0 -106 -69.5t-41 -145.5q0 -51 25.5 -82.5t69.5 -31.5q62 0 103.5 69t41.5 148q0 45 -22 78.5t-71 33.5zM230 687h62q0 -62 51 -62
q55 0 72 62h64q-9 -58 -45.5 -92t-94.5 -34q-64 0 -90 35t-19 91z" />
    <glyph glyph-name="Ohungarumlaut" unicode="&#x150;" horiz-adv-x="688" 
d="M411 685q129 0 197 -78.5t68 -200.5q0 -92 -32 -178.5t-90 -143.5q-97 -95 -241 -95q-125 0 -195 79.5t-70 198.5q0 92 33 179.5t93 144.5q97 94 237 94zM397 587q-75 0 -133 -58q-43 -43 -68 -115.5t-25 -140.5q0 -82 39.5 -134t119.5 -52q76 0 131 57q42 42 66.5 116
t24.5 142q0 36 -7 67t-23.5 58.5t-48.5 43.5t-76 16zM380 833h120l-124 -116h-87zM546 833h121l-124 -116h-87z" />
    <glyph glyph-name="ohungarumlaut" unicode="&#x151;" horiz-adv-x="543" 
d="M313 498q94 0 147 -58t53 -144q0 -127 -80 -217t-202 -90q-91 0 -145 56.5t-54 144.5q0 127 79.5 217.5t201.5 90.5zM299 408q-65 0 -106 -69.5t-41 -145.5q0 -51 25.5 -82.5t69.5 -31.5q62 0 103.5 69t41.5 148q0 45 -22 78.5t-71 33.5zM277 693h107l-123 -148h-72z
M438 693h107l-122 -148h-73z" />
    <glyph glyph-name="OE" unicode="&#x152;" horiz-adv-x="890" 
d="M825 99l-18 -99h-341q-12 0 -58 -4q-28 -5 -76 -5q-137 0 -212.5 80t-75.5 204q0 170 110.5 289t299.5 119q25 0 83 -5q56 -4 68 -4h315l-19 -99h-263l-33 -177h247l-18 -99h-248l-37 -200h276zM432 97l90 479q-27 9 -77 9q-125 0 -201 -88.5t-76 -213.5q0 -87 49 -140.5
t143 -53.5q35 0 72 8z" />
    <glyph glyph-name="oe" unicode="&#x153;" horiz-adv-x="814" 
d="M727 113l10 -83q-70 -41 -166 -41q-122 0 -164 99h-2q-64 -99 -182 -99q-86 0 -139 57t-53 148q0 127 76.5 215.5t188.5 88.5q59 0 100.5 -26.5t59.5 -74.5h2q32 48 82 74.5t105 26.5q75 0 114 -39t39 -91q0 -168 -315 -164q-7 -39 11 -73q31 -49 103 -49q68 0 130 31z
M243 80q43 0 77.5 36t50.5 84.5t16 94.5q0 49 -21 81.5t-68 32.5q-65 0 -106 -67t-41 -145q0 -52 25 -84.5t67 -32.5zM689 359q0 23 -17 37.5t-49 14.5q-47 0 -81 -37t-47 -84q88 -1 141 13t53 56z" />
    <glyph glyph-name="Racute" unicode="&#x154;" horiz-adv-x="556" 
d="M25 0l126 663q69 16 166 16q109 0 169 -44q64 -44 64 -122q0 -71 -44 -121.5t-112 -71.5l-1 -3q59 -23 69 -128q16 -170 24 -189h-120q-8 25 -18 161q-4 63 -27.5 90t-70.5 27h-57l-53 -278h-115zM251 580l-41 -213h66q67 0 109.5 36.5t42.5 92.5q0 45 -31.5 67.5
t-83.5 22.5q-41 0 -62 -6zM373 832h137l-134 -122h-100z" />
    <glyph glyph-name="racute" unicode="&#x155;" horiz-adv-x="347" 
d="M136 0h-116l57 300q6 31 10.5 66.5t8.5 71.5t6 49h101q-6 -69 -11 -103h3q57 114 153 114q9 0 25 -2l-23 -114q-12 2 -22 2q-59 0 -99.5 -52.5t-55.5 -135.5zM270 694h123l-131 -148h-88z" />
    <glyph glyph-name="uni0156" unicode="&#x156;" horiz-adv-x="556" 
d="M25 0l126 663q69 16 166 16q109 0 169 -44q64 -44 64 -122q0 -71 -44 -121.5t-112 -71.5l-1 -3q59 -23 69 -128q16 -170 24 -189h-120q-8 25 -18 161q-4 63 -27.5 90t-70.5 27h-57l-53 -278h-115zM251 580l-41 -213h66q67 0 109.5 36.5t42.5 92.5q0 45 -31.5 67.5
t-83.5 22.5q-41 0 -62 -6zM141 -231l-13 55q33 5 57.5 23t24.5 48q0 28 -22 48l88 16q27 -21 27 -61q0 -60 -49 -93t-113 -36z" />
    <glyph glyph-name="uni0157" unicode="&#x157;" horiz-adv-x="347" 
d="M136 0h-116l57 300q6 31 10.5 66.5t8.5 71.5t6 49h101q-6 -69 -11 -103h3q57 114 153 114q9 0 25 -2l-23 -114q-12 2 -22 2q-59 0 -99.5 -52.5t-55.5 -135.5zM0 -231l-13 55q32 5 56.5 23t24.5 48q0 29 -21 48l88 16q27 -21 27 -61q0 -60 -49 -93t-113 -36z" />
    <glyph glyph-name="Rcaron" unicode="&#x158;" horiz-adv-x="556" 
d="M25 0l126 663q69 16 166 16q109 0 169 -44q64 -44 64 -122q0 -71 -44 -121.5t-112 -71.5l-1 -3q59 -23 69 -128q16 -170 24 -189h-120q-8 25 -18 161q-4 63 -27.5 90t-70.5 27h-57l-53 -278h-115zM251 580l-41 -213h66q67 0 109.5 36.5t42.5 92.5q0 45 -31.5 67.5
t-83.5 22.5q-41 0 -62 -6zM388 710h-90l-80 122h88l42 -67h3l64 67h95z" />
    <glyph glyph-name="rcaron" unicode="&#x159;" horiz-adv-x="347" 
d="M136 0h-116l57 300q6 31 10.5 66.5t8.5 71.5t6 49h101q-6 -69 -11 -103h3q57 114 153 114q9 0 25 -2l-23 -114q-12 2 -22 2q-59 0 -99.5 -52.5t-55.5 -135.5zM278 546h-81l-73 148h79l41 -85h3l64 85h86z" />
    <glyph glyph-name="Sacute" unicode="&#x15a;" horiz-adv-x="490" 
d="M5 37l40 96q65 -43 152 -43q52 0 88.5 26.5t36.5 73.5q0 32 -22 57t-73 52q-137 74 -137 176q0 94 71.5 152t176.5 58q91 0 150 -34l-38 -97q-57 31 -122 30q-53 0 -84.5 -26t-31.5 -62q0 -32 23.5 -55t77.5 -54q131 -69 131 -179q0 -100 -72.5 -159t-187.5 -59
q-58 0 -106.5 13.5t-72.5 33.5zM360 833h137l-135 -123h-100z" />
    <glyph glyph-name="sacute" unicode="&#x15b;" horiz-adv-x="397" 
d="M2 25l30 84q59 -33 117 -33q34 1 54.5 18t20.5 42q0 23 -14 39.5t-50 35.5q-96 50 -96 127q0 70 55.5 115t141.5 45q73 0 115 -25l-30 -84q-40 22 -91 22q-33 0 -53.5 -16t-20.5 -41q0 -35 63 -67q101 -55 101 -131q0 -78 -58 -122t-149 -44q-88 0 -136 35zM284 694h123
l-131 -148h-88z" />
    <glyph glyph-name="Scircumflex" unicode="&#x15c;" horiz-adv-x="490" 
d="M5 37l40 96q65 -43 152 -43q52 0 88.5 26.5t36.5 73.5q0 32 -22 57t-73 52q-137 74 -137 176q0 94 71.5 152t176.5 58q91 0 150 -34l-38 -97q-57 31 -122 30q-53 0 -84.5 -26t-31.5 -62q0 -32 23.5 -55t77.5 -54q131 -69 131 -179q0 -100 -72.5 -159t-187.5 -59
q-58 0 -106.5 13.5t-72.5 33.5zM311 832h89l80 -122h-86l-45 66h-2l-64 -66h-94z" />
    <glyph glyph-name="scircumflex" unicode="&#x15d;" horiz-adv-x="397" 
d="M2 25l30 84q59 -33 117 -33q34 1 54.5 18t20.5 42q0 23 -14 39.5t-50 35.5q-96 50 -96 127q0 70 55.5 115t141.5 45q73 0 115 -25l-30 -84q-40 22 -91 22q-33 0 -53.5 -16t-20.5 -41q0 -35 63 -67q101 -55 101 -131q0 -78 -58 -122t-149 -44q-88 0 -136 35zM237 694h81
l72 -148h-79l-41 84h-2l-64 -84h-86z" />
    <glyph glyph-name="uni015E" unicode="&#x15e;" horiz-adv-x="490" 
d="M488 651l-38 -97q-57 31 -122 30q-53 0 -84.5 -26t-31.5 -62q0 -32 23.5 -55t77.5 -54q131 -69 131 -179q0 -83 -51.5 -138.5t-138.5 -72.5l-31 -43q27 -6 42.5 -24t15.5 -43q0 -44 -35.5 -67.5t-82.5 -23.5q-45 0 -72 20l21 51q22 -15 52 -15q17 0 28.5 7.5t11.5 22.5
q0 31 -68 38l47 70q-58 0 -106 13.5t-72 33.5l40 96q65 -43 152 -43q52 0 88.5 26.5t36.5 73.5q0 32 -22 57t-73 52q-137 74 -137 176q0 94 71.5 152t176.5 58q91 0 150 -34z" />
    <glyph glyph-name="uni015F" unicode="&#x15f;" horiz-adv-x="397" 
d="M376 473l-30 -84q-40 22 -91 22q-33 0 -53.5 -16t-20.5 -41q0 -35 63 -67q101 -55 101 -131q0 -63 -38.5 -104t-102.5 -55l-31 -43q26 -6 42 -23.5t16 -41.5q0 -45 -35.5 -68.5t-83.5 -23.5q-46 0 -72 19l22 51q24 -16 53 -16q16 0 28 8.5t12 23.5q0 31 -69 37l47 70
q-85 2 -131 35l30 84q59 -33 117 -33q34 1 54.5 18t20.5 42q0 23 -14 39.5t-50 35.5q-96 50 -96 127q0 70 55.5 115t141.5 45q73 0 115 -25z" />
    <glyph glyph-name="Scaron" unicode="&#x160;" horiz-adv-x="490" 
d="M5 37l40 96q65 -43 152 -43q52 0 88.5 26.5t36.5 73.5q0 32 -22 57t-73 52q-137 74 -137 176q0 94 71.5 152t176.5 58q91 0 150 -34l-38 -97q-57 31 -122 30q-53 0 -84.5 -26t-31.5 -62q0 -32 23.5 -55t77.5 -54q131 -69 131 -179q0 -100 -72.5 -159t-187.5 -59
q-58 0 -106.5 13.5t-72.5 33.5zM373 710h-89l-80 122h87l43 -67h2l65 67h94z" />
    <glyph glyph-name="scaron" unicode="&#x161;" horiz-adv-x="397" 
d="M2 25l30 84q59 -33 117 -33q34 1 54.5 18t20.5 42q0 23 -14 39.5t-50 35.5q-96 50 -96 127q0 70 55.5 115t141.5 45q73 0 115 -25l-30 -84q-40 22 -91 22q-33 0 -53.5 -16t-20.5 -41q0 -35 63 -67q101 -55 101 -131q0 -78 -58 -122t-149 -44q-88 0 -136 35zM296 546h-81
l-73 148h79l42 -85h2l65 85h85z" />
    <glyph glyph-name="uni0162" unicode="&#x162;" horiz-adv-x="503" 
d="M86 674h491l-20 -102h-188l-108 -572h-23l-33 -46q26 -6 41.5 -23.5t15.5 -43.5q0 -44 -35.5 -67t-82.5 -23q-46 0 -72 19l21 51q24 -15 52 -15q17 0 28.5 7.5t11.5 22.5q0 32 -68 38l54 80h-27l109 572h-187z" />
    <glyph glyph-name="uni0163" unicode="&#x163;" horiz-adv-x="333" 
d="M227 397l-39 -197q-8 -46 -8 -69q0 -43 43 -43q28 0 40 2l-11 -91q-27 -10 -73 -10l-26 -36q26 -6 42 -23.5t16 -40.5q0 -46 -35.5 -69.5t-83.5 -23.5t-72 19l22 51q22 -15 53 -15q16 0 27.5 8t11.5 23q0 31 -69 37l54 80q-59 24 -59 90q0 41 11 91l42 217h-66l17 90h66
l20 105l119 29l-25 -134h110l-18 -90h-109z" />
    <glyph glyph-name="Tcaron" unicode="&#x164;" horiz-adv-x="503" 
d="M144 0l109 572h-187l20 102h491l-20 -102h-188l-108 -572h-117zM382 710h-89l-80 122h87l43 -67h3l64 67h94z" />
    <glyph glyph-name="tcaron" unicode="&#x165;" horiz-adv-x="333" 
d="M346 538l-26 51q45 21 45 67q0 28 -19 51l81 16q28 -21 28 -64q0 -51 -34.5 -82.5t-74.5 -38.5zM150 592l119 29l-25 -134h110l-18 -90h-109l-39 -197q-8 -46 -8 -69q0 -43 43 -43q28 0 40 2l-11 -91q-28 -10 -76 -10q-57 0 -86.5 28t-29.5 72q0 41 11 91l42 217h-66
l17 90h66z" />
    <glyph glyph-name="Tbar" unicode="&#x166;" horiz-adv-x="503" 
d="M557 572h-188l-36 -193h127l-15 -75h-127l-57 -304h-117l58 304h-121l15 75h120l37 193h-187l20 102h491z" />
    <glyph glyph-name="tbar" unicode="&#x167;" horiz-adv-x="333" 
d="M336 397h-109l-18 -90h92l-13 -67h-92l-8 -40q-8 -46 -8 -69q0 -43 43 -43q28 0 40 2l-11 -91q-28 -10 -76 -10q-57 0 -86.5 28t-29.5 72q0 41 11 91l12 60h-56l13 67h56l17 90h-66l17 90h66l20 105l119 29l-25 -134h110z" />
    <glyph glyph-name="Utilde" unicode="&#x168;" horiz-adv-x="639" 
d="M150 674h117l-75 -393q-8 -40 -8 -82q1 -52 30.5 -82t80.5 -30q129 0 166 193l75 394h117l-75 -392q-29 -152 -101.5 -222.5t-196.5 -70.5q-99 0 -155.5 52.5t-56.5 155.5q0 37 9 93zM342 715h-61q9 55 33.5 85t58.5 30q30 0 61 -20q26 -19 42 -19q13 0 20.5 9.5
t14.5 32.5h59q-17 -111 -93 -111q-30 0 -62 18q-30 19 -41 19q-23 -2 -32 -44z" />
    <glyph glyph-name="utilde" unicode="&#x169;" horiz-adv-x="545" 
d="M408 487h116l-64 -336q-10 -52 -24 -151h-103l10 85h-2q-72 -96 -169 -96q-57 0 -92 33.5t-35 104.5q0 40 10 87l52 273h116l-50 -266q-8 -38 -8 -67q0 -69 62 -69q42 0 82 46t54 119zM269 563h-60q7 53 29.5 83.5t57.5 30.5q26 0 62 -21q28 -18 39 -18q12 0 19 9t12 34
h59q-15 -111 -88 -111q-33 0 -62 20q-25 18 -39 18q-20 0 -29 -45z" />
    <glyph glyph-name="Umacron" unicode="&#x16a;" horiz-adv-x="639" 
d="M150 674h117l-75 -393q-8 -40 -8 -82q1 -52 30.5 -82t80.5 -30q129 0 166 193l75 394h117l-75 -392q-29 -152 -101.5 -222.5t-196.5 -70.5q-99 0 -155.5 52.5t-56.5 155.5q0 37 9 93zM304 802h244l-13 -68h-244z" />
    <glyph glyph-name="umacron" unicode="&#x16b;" horiz-adv-x="545" 
d="M408 487h116l-64 -336q-10 -52 -24 -151h-103l10 85h-2q-72 -96 -169 -96q-57 0 -92 33.5t-35 104.5q0 40 10 87l52 273h116l-50 -266q-8 -38 -8 -67q0 -69 62 -69q42 0 82 46t54 119zM231 655h234l-13 -67h-235z" />
    <glyph glyph-name="Ubreve" unicode="&#x16c;" horiz-adv-x="639" 
d="M150 674h117l-75 -393q-8 -40 -8 -82q1 -52 30.5 -82t80.5 -30q129 0 166 193l75 394h117l-75 -392q-29 -152 -101.5 -222.5t-196.5 -70.5q-99 0 -155.5 52.5t-56.5 155.5q0 37 9 93zM297 834h68q-1 -22 13 -37t43 -15q57 0 70 52h70q-9 -51 -45.5 -83t-100.5 -32
q-66 0 -95 32t-23 83z" />
    <glyph glyph-name="ubreve" unicode="&#x16d;" horiz-adv-x="545" 
d="M408 487h116l-64 -336q-10 -52 -24 -151h-103l10 85h-2q-72 -96 -169 -96q-57 0 -92 33.5t-35 104.5q0 40 10 87l52 273h116l-50 -266q-8 -38 -8 -67q0 -69 62 -69q42 0 82 46t54 119zM221 687h62q0 -62 51 -62q55 0 72 62h64q-9 -58 -45.5 -92t-94.5 -34q-64 0 -90 35
t-19 91z" />
    <glyph glyph-name="Uring" unicode="&#x16e;" horiz-adv-x="639" 
d="M150 674h117l-75 -393q-8 -40 -8 -82q1 -52 30.5 -82t80.5 -30q129 0 166 193l75 394h117l-75 -392q-29 -152 -101.5 -222.5t-196.5 -70.5q-99 0 -155.5 52.5t-56.5 155.5q0 37 9 93zM419 880q46 0 74.5 -23.5t28.5 -65.5q-1 -44 -33.5 -70t-81.5 -26q-43 0 -71.5 24
t-29.5 62q-1 43 31 71t82 28zM415 837q-21 0 -34 -15t-13 -38q0 -19 11.5 -32.5t31.5 -13.5q21 0 34.5 14.5t13.5 36.5q0 21 -12 34.5t-32 13.5z" />
    <glyph glyph-name="uring" unicode="&#x16f;" horiz-adv-x="545" 
d="M408 487h116l-64 -336q-10 -52 -24 -151h-103l10 85h-2q-72 -96 -169 -96q-57 0 -92 33.5t-35 104.5q0 40 10 87l52 273h116l-50 -266q-8 -38 -8 -67q0 -69 62 -69q42 0 82 46t54 119zM353 728q44 0 73 -24.5t29 -67.5q-1 -46 -34 -73t-81 -27q-42 0 -71 24.5t-30 64.5
q-1 46 31.5 74.5t82.5 28.5zM349 684q-22 0 -36 -15.5t-14 -39.5q0 -20 12.5 -34t32.5 -14q23 0 37 15.5t14 38.5q0 21 -12.5 35t-33.5 14z" />
    <glyph glyph-name="Uhungarumlaut" unicode="&#x170;" horiz-adv-x="639" 
d="M150 674h117l-75 -393q-8 -40 -8 -82q1 -52 30.5 -82t80.5 -30q129 0 166 193l75 394h117l-75 -392q-29 -152 -101.5 -222.5t-196.5 -70.5q-99 0 -155.5 52.5t-56.5 155.5q0 37 9 93zM357 833h120l-124 -116h-87zM523 833h121l-124 -116h-87z" />
    <glyph glyph-name="uhungarumlaut" unicode="&#x171;" horiz-adv-x="545" 
d="M408 487h116l-64 -336q-10 -52 -24 -151h-103l10 85h-2q-72 -96 -169 -96q-57 0 -92 33.5t-35 104.5q0 40 10 87l52 273h116l-50 -266q-8 -38 -8 -67q0 -69 62 -69q42 0 82 46t54 119zM283 693h107l-123 -148h-72zM445 693h107l-123 -148h-73z" />
    <glyph glyph-name="Uogonek" unicode="&#x172;" horiz-adv-x="639" 
d="M376 -119l14 -61q-37 -24 -93 -24q-41 0 -64 21t-23 58q0 57 67 115h-21q-86 5 -137 57.5t-51 149.5q0 37 9 93l73 384h117l-75 -393q-8 -40 -8 -82q1 -52 30.5 -82t80.5 -30q129 0 166 193l75 394h117l-75 -392q-40 -214 -173 -269q-32 -15 -53 -32q-51 -37 -51 -77
q0 -30 31 -30q18 0 44 7z" />
    <glyph glyph-name="uogonek" unicode="&#x173;" horiz-adv-x="545" 
d="M524 487l-64 -336q-14 -82 -24 -151h-35q-43 -52 -43 -92t41 -40q23 0 45 9l9 -59q-36 -29 -94 -29q-43 0 -66.5 22.5t-23.5 61.5q0 55 65 132l9 80h-2q-72 -96 -169 -96q-57 0 -92 33.5t-35 104.5q0 40 10 87l52 273h116l-50 -266q-8 -38 -8 -67q0 -69 62 -69
q42 0 82 46t54 119l45 237h116z" />
    <glyph glyph-name="Wcircumflex" unicode="&#x174;" horiz-adv-x="848" 
d="M252 0h-128l-29 674h117l7 -347q1 -91 -3 -199h2q59 158 75 196l151 350h127l5 -340q1 -120 -3 -203h2q44 128 71 196l145 347h123l-304 -674h-126l-10 325q-3 106 4 210h-3q-44 -132 -75 -205zM489 832h89l80 -122h-86l-44 66h-2l-65 -66h-94z" />
    <glyph glyph-name="wcircumflex" unicode="&#x175;" horiz-adv-x="721" 
d="M56 487h116l9 -237q3 -72 -2 -144h2q16 45 57 137l118 244h97l20 -238q6 -87 5 -143h2q24 76 50 143l105 238h118l-239 -487h-109l-22 212q-5 60 -5 144h-2q-51 -125 -58 -139l-108 -217h-109zM400 694h82l72 -148h-80l-40 84h-2l-64 -84h-86z" />
    <glyph glyph-name="Ycircumflex" unicode="&#x176;" horiz-adv-x="546" 
d="M271 0h-116l53 277l-131 397h124l53 -192q19 -75 28 -118h2q30 53 70 120l121 190h138l-289 -395zM322 832h89l80 -122h-86l-44 66h-2l-65 -66h-94z" />
    <glyph glyph-name="ycircumflex" unicode="&#x177;" horiz-adv-x="472" 
d="M45 487h122l38 -235q14 -84 19 -121h2q39 98 47 116l105 240h123l-178 -359q-91 -184 -178 -268q-69 -68 -150 -84l-27 100q51 16 86 42q53 39 86 97q5 10 2 23zM268 694h81l72 -148h-79l-41 84h-2l-64 -84h-86z" />
    <glyph glyph-name="Ydieresis" unicode="&#x178;" horiz-adv-x="546" 
d="M271 0h-116l53 277l-131 397h124l53 -192q19 -75 28 -118h2q30 53 70 120l121 190h138l-289 -395zM255 716q-24 0 -40.5 16t-16.5 40q0 28 18.5 46t45.5 18q25 0 40.5 -16.5t15.5 -40.5q0 -27 -18.5 -45t-44.5 -18zM452 716q-24 0 -40.5 16t-16.5 40q0 28 18.5 46
t44.5 18q25 0 41 -16.5t16 -40.5q0 -27 -18.5 -45t-44.5 -18z" />
    <glyph glyph-name="Zacute" unicode="&#x179;" horiz-adv-x="540" 
d="M-23 0l13 69l421 501v4h-295l19 100h452l-14 -73l-416 -497l1 -4h325l-19 -100h-487zM394 832h137l-134 -122h-101z" />
    <glyph glyph-name="zacute" unicode="&#x17a;" horiz-adv-x="434" 
d="M-24 0l13 71l193 211q41 44 111 107l1 3h-227l19 95h366l-14 -75l-189 -207q-58 -62 -111 -108v-2h247l-19 -95h-390zM312 694h123l-131 -148h-88z" />
    <glyph glyph-name="Zdotaccent" unicode="&#x17b;" horiz-adv-x="540" 
d="M-23 0l13 69l421 501v4h-295l19 100h452l-14 -73l-416 -497l1 -4h325l-19 -100h-487zM364 716q-24 0 -41 16t-17 41q0 27 19 45.5t46 18.5q25 0 41 -17t16 -40q0 -27 -18.5 -45.5t-45.5 -18.5z" />
    <glyph glyph-name="zdotaccent" unicode="&#x17c;" horiz-adv-x="434" 
d="M-24 0l13 71l193 211q41 44 111 107l1 3h-227l19 95h366l-14 -75l-189 -207q-58 -62 -111 -108v-2h247l-19 -95h-390zM284 560q-24 0 -41 16.5t-17 42.5q0 29 19 47.5t46 18.5t42.5 -16.5t15.5 -42.5q0 -29 -18.5 -47.5t-46.5 -18.5z" />
    <glyph glyph-name="Zcaron" unicode="&#x17d;" horiz-adv-x="540" 
d="M-23 0l13 69l421 501v4h-295l19 100h452l-14 -73l-416 -497l1 -4h325l-19 -100h-487zM406 710h-89l-80 122h87l43 -67h2l65 67h94z" />
    <glyph glyph-name="zcaron" unicode="&#x17e;" horiz-adv-x="434" 
d="M-24 0l13 71l193 211q41 44 111 107l1 3h-227l19 95h366l-14 -75l-189 -207q-58 -62 -111 -108v-2h247l-19 -95h-390zM317 546h-81l-73 148h79l42 -85h2l65 85h85z" />
    <glyph glyph-name="florin" unicode="&#x192;" horiz-adv-x="519" 
d="M121 321l13 85h90l10 40q10 40 23 71t37.5 67t65 56.5t94.5 20.5q49 -1 74 -17l-30 -85q-24 11 -51 11q-71 0 -100 -121l-10 -43h108l-13 -85h-115l-48 -194q-25 -103 -70.5 -159t-131.5 -56q-52 0 -82 19l25 83q20 -11 53 -11q34 0 57.5 35.5t43.5 118.5l40 164h-83z
" />
    <glyph glyph-name="Ohorn" unicode="&#x1a0;" horiz-adv-x="688" 
d="M651 742l91 15q13 -30 13 -74q0 -55 -32 -87.5t-86 -31.5q39 -62 39 -158q0 -92 -32 -178.5t-90 -143.5q-97 -95 -241 -95q-125 0 -195 79.5t-70 198.5q0 92 33 179.5t93 144.5q97 94 237 94q65 0 121 -24q7 -3 26.5 -12.5t32 -13.5t25.5 -4q47 0 47 54q0 28 -12 57z
M397 587q-75 0 -133 -58q-43 -43 -68 -115.5t-25 -140.5q0 -82 39.5 -134t119.5 -52q76 0 131 57q42 42 66.5 116t24.5 142q0 36 -7 67t-23.5 58.5t-48.5 43.5t-76 16z" />
    <glyph glyph-name="ohorn" unicode="&#x1a1;" horiz-adv-x="545" 
d="M299 408q-65 0 -106 -69.5t-41 -145.5q0 -51 25.5 -82.5t69.5 -31.5q62 0 103.5 69t41.5 148q0 45 -22 78.5t-71 33.5zM502 560l87 15q11 -28 11 -64q0 -54 -29.5 -84.5t-80.5 -32.5q23 -41 23 -98q0 -127 -80 -217t-202 -90q-91 0 -145 56.5t-54 144.5q0 127 79.5 217.5
t201.5 90.5q46 0 86 -16q5 -2 16.5 -7.5t18 -8.5t16 -5.5t18.5 -2.5q44 0 44 48q0 24 -10 54z" />
    <glyph glyph-name="Uhorn" unicode="&#x1af;" horiz-adv-x="652" 
d="M150 674h117l-75 -393q-8 -40 -8 -82q1 -52 30.5 -82t80.5 -30q129 0 166 193l75 394h90q62 0 62 56q0 16 -9 48l87 15q8 -27 8 -54q0 -59 -34.5 -93.5t-98.5 -36.5l-63 -327q-28 -151 -101 -222t-197 -71q-98 -1 -155 51.5t-57 156.5q0 37 9 93z" />
    <glyph glyph-name="uhorn" unicode="&#x1b0;" horiz-adv-x="561" 
d="M548 590l87 15q8 -26 8 -55q0 -56 -33.5 -91t-97.5 -36l-52 -272q-14 -82 -24 -151h-103l10 85h-2q-72 -96 -169 -96q-57 0 -92 33.5t-35 104.5q0 40 10 87l52 273h116l-50 -266q-8 -38 -8 -67q0 -69 62 -69q42 0 82 46t54 119l45 237h88q62 0 62 55q0 22 -10 48z" />
    <glyph glyph-name="Aringacute" unicode="&#x1fa;" horiz-adv-x="596" 
d="M395 692q-43 0 -69 22.5t-26 57.5q0 38 30.5 63.5t76.5 25.5q42 0 67 -22t25 -58q0 -39 -29 -64t-75 -25zM398 737q21 0 33.5 11.5t12.5 29.5q0 16 -12 28t-31 12q-20 0 -32 -12.5t-12 -30.5q0 -17 11 -27.5t30 -10.5zM465 964h137l-140 -86h-102zM400 192h-212l-92 -192
h-124l338 674h146l85 -674h-122zM225 282h168l-19 168q-4 48 -10 128h-2q-7 -16 -26 -61t-29 -67z" />
    <glyph glyph-name="aringacute" unicode="&#x1fb;" horiz-adv-x="540" 
d="M447 853h125l-156 -113h-89zM373 716q44 0 73.5 -24.5t29.5 -68.5q-1 -45 -34 -72t-81 -27q-42 0 -71 24.5t-30 64.5q-1 46 31 74.5t82 28.5zM369 672q-22 0 -35.5 -16t-13.5 -40q0 -20 12.5 -34t32.5 -14q22 0 36.5 16t14.5 39q0 21 -12.5 35t-34.5 14zM448 0h-108
q1 24 9 110h-3q-65 -121 -174 -121q-65 0 -104.5 46t-39.5 120q0 64 22 124t63.5 109.5t108.5 79.5t149 30q79 0 147 -22l-50 -254q-23 -122 -20 -222zM362 275l26 128q-20 5 -48 5q-78 0 -134.5 -72.5t-56.5 -159.5q0 -93 70 -93q43 0 85 52t58 140z" />
    <glyph glyph-name="AEacute" unicode="&#x1fc;" horiz-adv-x="812" 
d="M75 0h-125l429 674h437l-18 -99h-254l-18 -180h242l-19 -98h-227l-18 -198h255l-19 -99h-355l18 209h-198zM262 306h147l17 178q10 102 10 103h-4q-36 -65 -58 -103zM574 832h137l-134 -122h-100z" />
    <glyph glyph-name="aeacute" unicode="&#x1fd;" horiz-adv-x="743" 
d="M656 113l7 -83q-70 -41 -170 -41q-56 0 -99 25.5t-61 70.5h-3q-65 -96 -183 -96q-64 0 -103 37t-39 93q0 66 46 112t115 65.5t153 17.5l3 15q6 30 -14.5 57t-70.5 27q-70 0 -132 -41l-20 76q78 50 166 50q116 0 142 -90h3q29 43 76 66.5t101 23.5q74 0 114 -37.5
t40 -88.5q0 -50 -24.5 -83.5t-71 -49t-100 -20.5t-124.5 -2q-7 -51 7 -83q30 -53 106 -53q64 0 136 32zM298 187l9 49q-30 1 -59 -3t-59 -13.5t-48.5 -31t-18.5 -51.5q0 -27 16.5 -42.5t45.5 -15.5q40 0 72.5 29t41.5 79zM614 361q0 21 -16.5 36t-45.5 15q-50 0 -85.5 -36
t-45.5 -77q92 -4 142.5 8t50.5 54zM462 694h123l-131 -148h-88z" />
    <glyph glyph-name="Oslashacute" unicode="&#x1fe;" horiz-adv-x="686" 
d="M84 -56l-56 53l74 88q-55 75 -55 188q0 90 32 172t89 140q102 100 238 100q100 0 161 -49l75 87l61 -48l-79 -93q50 -67 50 -178q1 -90 -31 -174.5t-88 -141.5q-46 -47 -108.5 -73t-128.5 -26q-96 0 -155 47zM186 183l312 369q-36 36 -100 36q-73 0 -131 -54t-84 -137
q-35 -113 0 -214h3zM538 480l-306 -361q34 -33 98 -33q68 0 123 50t82 131q37 111 6 213h-3zM459 837h137l-134 -123h-100z" />
    <glyph glyph-name="oslashacute" unicode="&#x1ff;" horiz-adv-x="543" 
d="M55 -48l-36 36l59 69q-46 52 -46 137q0 124 79.5 214t199.5 90q69 0 115 -32l58 67l39 -34l-57 -67q47 -56 47 -135q0 -132 -80.5 -220t-193.5 -88q-75 0 -123 34zM163 151l196 237q-22 24 -62 24q-63 0 -104 -66t-42 -134q-1 -36 10 -60zM382 335l-198 -234
q24 -26 65 -26q59 0 101.5 63.5t43.5 136.5q0 31 -9 60h-3zM364 694h123l-131 -148h-88z" />
    <glyph glyph-name="uni0218" unicode="&#x218;" horiz-adv-x="490" 
d="M5 37l40 96q65 -43 152 -43q52 0 88.5 26.5t36.5 73.5q0 32 -22 57t-73 52q-137 74 -137 176q0 94 71.5 152t176.5 58q91 0 150 -34l-38 -97q-57 31 -122 30q-53 0 -84.5 -26t-31.5 -62q0 -32 23.5 -55t77.5 -54q131 -69 131 -179q0 -100 -72.5 -159t-187.5 -59
q-58 0 -106.5 13.5t-72.5 33.5zM101 -231l-12 55q32 5 56.5 23t24.5 48q0 28 -22 48l89 16q27 -22 27 -61q0 -60 -49 -93t-114 -36z" />
    <glyph glyph-name="uni0219" unicode="&#x219;" horiz-adv-x="397" 
d="M2 25l30 84q59 -33 117 -33q34 1 54.5 18t20.5 42q0 23 -14 39.5t-50 35.5q-96 50 -96 127q0 70 55.5 115t141.5 45q73 0 115 -25l-30 -84q-40 22 -91 22q-33 0 -53.5 -16t-20.5 -41q0 -35 63 -67q101 -55 101 -131q0 -78 -58 -122t-149 -44q-88 0 -136 35zM53 -231
l-13 55q33 5 57.5 23t24.5 48q0 28 -22 48l89 16q26 -22 26 -61q0 -60 -49 -93t-113 -36z" />
    <glyph glyph-name="uni021A" unicode="&#x21a;" horiz-adv-x="503" 
d="M144 0l109 572h-187l20 102h491l-20 -102h-188l-108 -572h-117zM101 -231l-13 55q32 5 56.5 23t24.5 48q0 29 -21 48l88 16q27 -21 27 -61q0 -60 -49 -93t-113 -36z" />
    <glyph glyph-name="uni021B" unicode="&#x21b;" horiz-adv-x="333" 
d="M150 592l119 29l-25 -134h110l-18 -90h-109l-39 -197q-8 -46 -8 -69q0 -43 43 -43q28 0 40 2l-11 -91q-28 -10 -76 -10q-57 0 -86.5 28t-29.5 72q0 41 11 91l42 217h-66l17 90h66zM27 -231l-13 55q32 5 56.5 23t24.5 48q0 29 -21 48l88 16q27 -21 27 -61q0 -60 -49 -93
t-113 -36z" />
    <glyph glyph-name="uni021C" unicode="&#x21c;" horiz-adv-x="492" 
d="M-1 -120l-9 93q144 13 238.5 71.5t94.5 146.5q0 40 -28.5 69t-88.5 29q-39 0 -89 -15l-13 80q91 19 156.5 62t65.5 103q0 33 -26 52t-64 19q-46 0 -115 -32l-21 77q86 50 182 50q79 0 125 -39.5t46 -98.5q0 -112 -144 -180v-2q61 -12 101.5 -55.5t40.5 -105.5
q0 -131 -126.5 -219t-325.5 -105z" />
    <glyph glyph-name="uni021D" unicode="&#x21d;" horiz-adv-x="418" 
d="M-51 -208l-7 92q29 3 59 7.5t78.5 17.5t84 31.5t62.5 51t27 73.5q0 35 -29 57.5t-80 21.5q-35 0 -83 -14l-12 80q204 47 204 137q-1 25 -21.5 40.5t-57.5 15.5q-47 0 -111 -30l-21 74q86 51 178 51q69 0 111.5 -35.5t42.5 -84.5q0 -103 -125 -155l-1 -2q57 -11 93 -49.5
t36 -91.5q0 -85 -63.5 -150.5t-159 -99t-205.5 -38.5z" />
    <glyph glyph-name="uni0232" unicode="&#x232;" horiz-adv-x="546" 
d="M271 0h-116l53 277l-131 397h124l53 -192q19 -75 28 -118h2q30 53 70 120l121 190h138l-289 -395zM257 802h244l-13 -68h-244z" />
    <glyph glyph-name="uni0233" unicode="&#x233;" horiz-adv-x="472" 
d="M45 487h122l38 -235q14 -84 19 -121h2q39 98 47 116l105 240h123l-178 -359q-91 -184 -178 -268q-69 -68 -150 -84l-27 100q51 16 86 42q53 39 86 97q5 10 2 23zM199 655h234l-13 -67h-235z" />
    <glyph glyph-name="circumflex" unicode="&#x2c6;" 
d="M236 694h81l72 -148h-79l-41 84h-2l-64 -84h-86z" />
    <glyph glyph-name="caron" unicode="&#x2c7;" 
d="M298 546h-81l-73 148h79l42 -85h2l65 85h85z" />
    <glyph glyph-name="uni02C9" unicode="&#x2c9;" 
d="M158 655h234l-13 -67h-235z" />
    <glyph glyph-name="breve" unicode="&#x2d8;" 
d="M155 687h62q0 -62 51 -62q55 0 72 62h64q-9 -58 -45.5 -92t-94.5 -34q-64 0 -90 35t-19 91z" />
    <glyph glyph-name="dotaccent" unicode="&#x2d9;" 
d="M263 560q-24 0 -41 16.5t-17 42.5q0 29 19 47.5t46 18.5t42.5 -16.5t15.5 -42.5q0 -29 -18.5 -47.5t-46.5 -18.5z" />
    <glyph glyph-name="ring" unicode="&#x2da;" horiz-adv-x="390" 
d="M275 728q44 0 73 -24.5t29 -67.5q-1 -46 -33.5 -73t-80.5 -27q-43 0 -72 24.5t-30 64.5q-1 46 31.5 74.5t82.5 28.5zM271 684q-22 0 -36 -15.5t-14 -39.5q0 -20 12.5 -34t32.5 -14q23 0 37 15.5t14 38.5q0 21 -12.5 35t-33.5 14z" />
    <glyph glyph-name="ogonek" unicode="&#x2db;" 
d="M131 2h74q-58 -54 -58 -98q0 -38 40 -38q24 0 46 9l9 -59q-41 -29 -95 -29q-42 0 -65.5 21.5t-23.5 58.5q0 62 73 135z" />
    <glyph glyph-name="tilde" unicode="&#x2dc;" 
d="M191 563h-60q7 53 29.5 83.5t57.5 30.5q26 0 62 -21q28 -18 39 -18q12 0 19 9t12 34h59q-15 -111 -88 -111q-33 0 -62 20q-25 18 -39 18q-20 0 -29 -45z" />
    <glyph glyph-name="hungarumlaut" unicode="&#x2dd;" 
d="M213 693h107l-123 -148h-73zM374 693h107l-123 -148h-72z" />
    <glyph glyph-name="uni037E" unicode="&#x37e;" horiz-adv-x="238" 
d="M34 -113l-85 -8q73 145 107 264l129 10q-70 -160 -151 -266zM157 326q-30 0 -49.5 20.5t-19.5 50.5q0 35 23 60.5t58 25.5q31 0 51 -21t20 -53q0 -35 -23.5 -59t-59.5 -24z" />
    <glyph glyph-name="tonos" unicode="&#x384;" horiz-adv-x="347" 
d="M286 694h121l-131 -148h-86z" />
    <glyph glyph-name="dieresistonos" unicode="&#x385;" horiz-adv-x="395" 
d="M241 709h99l-96 -162h-65zM111 563q-22 0 -37 14.5t-15 37.5q0 25 17 41.5t41 16.5q23 0 37.5 -15t14.5 -37q0 -25 -17 -41.5t-41 -16.5zM387 563q-23 0 -38 14t-15 38q0 25 17 41.5t42 16.5q23 0 37 -15t14 -37q0 -25 -16.5 -41.5t-40.5 -16.5z" />
    <glyph glyph-name="Alphatonos" unicode="&#x386;" horiz-adv-x="596" 
d="M400 192h-212l-92 -192h-124l338 674h146l85 -674h-122zM225 282h168l-19 168q-4 48 -10 128h-2q-7 -16 -26 -61t-29 -67zM89 674h101l-56 -165h-68z" />
    <glyph glyph-name="anoteleia" unicode="&#x387;" horiz-adv-x="243" 
d="M125 235q-33 0 -53 21t-20 54q0 37 24.5 63t60.5 26q34 0 54 -21t20 -56q0 -38 -24.5 -62.5t-61.5 -24.5z" />
    <glyph glyph-name="Epsilontonos" unicode="&#x388;" horiz-adv-x="535" 
d="M498 398l-20 -98h-241l-39 -201h273l-19 -99h-389l128 674h374l-20 -99h-256l-34 -177h243zM32 674h100l-55 -165h-68z" />
    <glyph glyph-name="Etatonos" unicode="&#x389;" horiz-adv-x="686" 
d="M190 674h117l-52 -272h274l52 272h116l-128 -674h-116l56 298h-274l-56 -298h-117zM31 674h101l-56 -165h-68z" />
    <glyph glyph-name="Iotatonos" unicode="&#x38a;" horiz-adv-x="295" 
d="M189 674h117l-128 -674h-117zM32 674h101l-55 -165h-68z" />
    <glyph glyph-name="Omicrontonos" unicode="&#x38c;" horiz-adv-x="716" 
d="M439 685q129 0 197 -78.5t68 -200.5q0 -92 -32 -178.5t-90 -143.5q-97 -95 -241 -95q-125 0 -195 79.5t-70 198.5q0 91 33.5 178.5t92.5 145.5q97 94 237 94zM425 587q-75 0 -133 -58q-43 -43 -68 -115.5t-25 -140.5q0 -82 39.5 -134t119.5 -52q76 0 131 57
q42 42 66.5 116t24.5 142q0 36 -7 67t-23.5 58.5t-48.5 43.5t-76 16zM29 674h101l-55 -165h-68z" />
    <glyph glyph-name="Upsilontonos" unicode="&#x38e;" horiz-adv-x="642" 
d="M143 583l28 97q40 -2 84 -25.5t72 -62.5q67 -95 57 -233h6q47 141 146 232q42 39 88.5 62.5t80.5 26.5l9 -103q-69 -24 -145.5 -99.5t-122.5 -181.5q-29 -66 -43 -138l-29 -158h-117l30 159q13 74 12 134q-1 120 -43 196.5t-113 93.5zM21 674h101l-56 -165h-68z" />
    <glyph glyph-name="Omegatonos" unicode="&#x38f;" horiz-adv-x="732" 
d="M285 0h-268l16 90h137l1 5q-37 36 -62.5 93.5t-25.5 123.5q0 158 104 265.5t255 107.5q127 0 201 -76.5t74 -187.5q0 -107 -52 -192t-122 -134v-5h128l-16 -90h-269l13 73q78 49 136 136t58 198q0 79 -42.5 131t-119.5 52q-97 0 -161.5 -88t-64.5 -209q0 -73 25.5 -130.5
t67.5 -89.5zM32 674h101l-56 -165h-68z" />
    <glyph glyph-name="iotadieresistonos" unicode="&#x390;" horiz-adv-x="249" 
d="M224 487l-67 -351q-6 -31 1.5 -43.5t33.5 -11.5l-23 -85q-17 -7 -47 -7q-88 0 -89 90q0 9 15 92l60 316h116zM185 703h98l-96 -162h-65zM54 556q-22 0 -37 14.5t-15 38.5q0 25 17 41.5t41 16.5q23 0 37.5 -15t14.5 -37q0 -25 -16.5 -42t-41.5 -17zM330 556
q-23 0 -38 14.5t-15 38.5q0 25 17 41.5t42 16.5q23 0 37 -15t14 -37q0 -25 -16.5 -42t-40.5 -17z" />
    <glyph glyph-name="Alpha" unicode="&#x391;" horiz-adv-x="596" 
d="M400 192h-212l-92 -192h-124l338 674h146l85 -674h-122zM225 282h168l-19 168q-4 48 -10 128h-2q-7 -16 -26 -61t-29 -67z" />
    <glyph glyph-name="Beta" unicode="&#x392;" horiz-adv-x="553" 
d="M26 6l124 657q72 16 162 16q104 0 162 -41q65 -40 65 -115q0 -61 -40.5 -104t-99.5 -59v-3q49 -15 78.5 -53.5t29.5 -94.5q0 -98 -87 -158q-77 -55 -238 -55q-103 0 -156 10zM250 582l-35 -184h54q67 0 108.5 29.5t41.5 80.5q0 79 -107 79q-42 0 -62 -5zM197 312
l-42 -221q28 -3 62 -3q72 0 119.5 31t47.5 94q0 51 -37 75t-95 24h-55z" />
    <glyph glyph-name="Gamma" unicode="&#x393;" horiz-adv-x="458" 
d="M152 674h376l-19 -99h-257l-110 -575h-118z" />
    <glyph glyph-name="uni0394" unicode="&#x394;" horiz-adv-x="618" 
d="M-25 0l10 65l334 609h141l108 -609l-11 -65h-582zM123 95h320l-55 324q-10 65 -20 152h-4q-29 -65 -66 -138z" />
    <glyph glyph-name="Epsilon" unicode="&#x395;" horiz-adv-x="496" 
d="M459 398l-19 -98h-242l-38 -201h272l-19 -99h-389l128 674h374l-19 -99h-257l-34 -177h243z" />
    <glyph glyph-name="Zeta" unicode="&#x396;" horiz-adv-x="540" 
d="M-23 0l13 69l421 501v4h-295l19 100h452l-14 -73l-416 -497l1 -4h325l-19 -100h-487z" />
    <glyph glyph-name="Eta" unicode="&#x397;" horiz-adv-x="648" 
d="M153 674h116l-52 -272h274l52 272h117l-128 -674h-117l57 298h-275l-56 -298h-116z" />
    <glyph glyph-name="Theta" unicode="&#x398;" horiz-adv-x="688" 
d="M314 -11q-126 0 -196 79.5t-70 198.5q0 90 32.5 175.5t89.5 144.5q98 98 241 98q129 0 197 -78.5t68 -200.5q0 -90 -31 -175t-87 -142q-98 -100 -244 -100zM329 86q62 0 114.5 49.5t80.5 121.5t28 145q0 37 -7 67.5t-23.5 58.5t-48.5 44t-76 16q-64 0 -117.5 -50
t-81 -121.5t-27.5 -143.5q0 -82 39 -134.5t119 -52.5zM254 392h234l-16 -93h-233z" />
    <glyph glyph-name="Iota" unicode="&#x399;" horiz-adv-x="256" 
d="M150 674h117l-128 -674h-117z" />
    <glyph glyph-name="Kappa" unicode="&#x39a;" horiz-adv-x="556" 
d="M24 0l128 674h115l-59 -313h4q8 11 63 77l210 236h145l-278 -291l164 -383h-127l-128 310l-76 -71l-46 -239h-115z" />
    <glyph glyph-name="Lambda" unicode="&#x39b;" horiz-adv-x="596" 
d="M542 0h-124l-47 430q-6 71 -9 140h-3q-17 -48 -57 -140l-203 -430h-127l336 674h148z" />
    <glyph glyph-name="Mu" unicode="&#x39c;" horiz-adv-x="802" 
d="M701 0h-113l45 317q23 160 41 247h-3q-65 -147 -112 -237l-166 -319h-90l-35 314q-11 104 -18 242h-2q-8 -32 -27 -121t-28 -126l-77 -317h-108l171 674h154l36 -315q12 -147 13 -194h4q34 92 85 193l163 316h156z" />
    <glyph glyph-name="Nu" unicode="&#x39d;" horiz-adv-x="651" 
d="M133 0h-109l128 674h134l118 -313q38 -106 61 -211h2q6 99 30 228l56 296h110l-128 -674h-119l-121 319q-44 126 -64 217l-4 -1q-8 -77 -39 -247z" />
    <glyph glyph-name="Xi" unicode="&#x39e;" horiz-adv-x="549" 
d="M130 674h448l-17 -98h-448zM112 396h383l-16 -98h-383zM14 99h473l-17 -99h-473z" />
    <glyph glyph-name="Omicron" unicode="&#x39f;" horiz-adv-x="688" 
d="M411 685q129 0 197 -78.5t68 -200.5q0 -92 -32 -178.5t-90 -143.5q-97 -95 -241 -95q-125 0 -195 79.5t-70 198.5q0 92 33 179.5t93 144.5q97 94 237 94zM397 587q-75 0 -133 -58q-43 -43 -68 -115.5t-25 -140.5q0 -82 39.5 -134t119.5 -52q76 0 131 57q42 42 66.5 116
t24.5 142q0 36 -7 67t-23.5 58.5t-48.5 43.5t-76 16z" />
    <glyph glyph-name="Pi" unicode="&#x3a0;" horiz-adv-x="639" 
d="M651 674l-127 -674h-117l108 576h-266l-108 -576h-116l127 674h499z" />
    <glyph glyph-name="Rho" unicode="&#x3a1;" horiz-adv-x="535" 
d="M24 0l126 663q66 16 163 16q113 0 172 -48q62 -47 62 -134q0 -115 -86 -183q-80 -64 -211 -64q-18 0 -63 5l-48 -255h-115zM249 579l-44 -228q28 -6 61 -6q73 0 118.5 41t45.5 102q0 97 -117 97q-45 0 -64 -6z" />
    <glyph glyph-name="Sigma" unicode="&#x3a3;" horiz-adv-x="547" 
d="M482 0h-498l11 72l261 266l-159 254l14 82h458l-17 -98h-310v-4l149 -239l-230 -230v-4h338z" />
    <glyph glyph-name="Tau" unicode="&#x3a4;" horiz-adv-x="503" 
d="M144 0l109 572h-187l20 102h491l-20 -102h-188l-108 -572h-117z" />
    <glyph glyph-name="Upsilon" unicode="&#x3a5;" horiz-adv-x="551" 
d="M53 583l28 97q40 -2 84 -25.5t72 -62.5q67 -95 57 -233h6q46 140 145 232q43 39 89.5 62.5t80.5 26.5l9 -103q-69 -24 -145.5 -99.5t-122.5 -181.5q-29 -66 -43 -138l-29 -158h-117l30 159q13 74 12 134q-2 120 -43.5 196.5t-112.5 93.5z" />
    <glyph glyph-name="Phi" unicode="&#x3a6;" horiz-adv-x="732" 
d="M260 -28l10 56q-95 12 -158.5 80t-63.5 176q0 85 32.5 156.5t83.5 115.5t109.5 68.5t113.5 24.5l11 52h109l-10 -52q94 -11 158 -79.5t64 -177.5q0 -82 -30.5 -152t-79.5 -114.5t-108.5 -70t-120.5 -27.5l-10 -56h-110zM287 114l84 450q-73 -2 -139 -81t-66 -195
q0 -71 33.5 -118t87.5 -56zM481 564l-85 -451q83 5 144 84t61 194q0 73 -33.5 119t-86.5 54z" />
    <glyph glyph-name="Chi" unicode="&#x3a7;" horiz-adv-x="547" 
d="M494 0h-124l-54 150q-20 57 -39 116h-2q-11 -17 -34.5 -55.5t-38.5 -62.5l-99 -148h-139l257 344l-122 330h123l51 -149q26 -81 33 -108h2q34 58 66 109l102 148h139l-252 -331z" />
    <glyph glyph-name="Psi" unicode="&#x3a8;" horiz-adv-x="671" 
d="M714 674l-39 -209q-24 -129 -101 -197.5t-195 -73.5l-36 -194h-110l36 194q-84 8 -143 55.5t-59 142.5q0 30 8 78l38 204h114l-37 -195q-8 -46 -8 -73q0 -58 25 -86t79 -35l73 389h109l-73 -389q67 5 109 51t61 151l35 187h114z" />
    <glyph glyph-name="uni03A9" unicode="&#x3a9;" horiz-adv-x="702" 
d="M255 0h-268l16 90h138l1 5q-37 36 -62.5 93.5t-25.5 123.5q0 158 104 265.5t255 107.5q126 0 200.5 -76.5t74.5 -187.5q0 -107 -52.5 -192t-122.5 -134v-5h128l-16 -90h-268l12 73q79 49 137 135.5t58 198.5q0 79 -42.5 131t-119.5 52q-98 0 -162 -88t-64 -209
q0 -73 25 -130.5t67 -89.5z" />
    <glyph glyph-name="Iotadieresis" unicode="&#x3aa;" horiz-adv-x="256" 
d="M150 674h117l-128 -674h-117zM119 712q-24 0 -40.5 16.5t-16.5 40.5q0 27 18 45.5t45 18.5q25 0 41 -16.5t16 -40.5q0 -27 -18.5 -45.5t-44.5 -18.5zM316 712q-24 0 -40.5 16.5t-16.5 40.5q0 27 18.5 45.5t44.5 18.5q25 0 41 -16.5t16 -40.5q0 -27 -18.5 -45.5
t-44.5 -18.5z" />
    <glyph glyph-name="Upsilondieresis" unicode="&#x3ab;" horiz-adv-x="551" 
d="M53 583l28 97q40 -2 84 -25.5t72 -62.5q67 -95 57 -233h6q46 140 145 232q43 39 89.5 62.5t80.5 26.5l9 -103q-69 -24 -145.5 -99.5t-122.5 -181.5q-29 -66 -43 -138l-29 -158h-117l30 159q13 74 12 134q-2 120 -43.5 196.5t-112.5 93.5zM256 701q-24 0 -40.5 16
t-16.5 41q0 27 19 45.5t45 18.5q25 0 40.5 -17t15.5 -40q0 -27 -18.5 -45.5t-44.5 -18.5zM453 701q-24 0 -40.5 16t-16.5 41q0 27 19 45.5t45 18.5q25 0 40.5 -17t15.5 -40q0 -27 -18.5 -45.5t-44.5 -18.5z" />
    <glyph glyph-name="alphatonos" unicode="&#x3ac;" horiz-adv-x="560" 
d="M366 83h-3q-66 -94 -172 -94q-71 0 -116 49t-45 132q0 138 80.5 233t175.5 95q101 0 130 -84h4q9 33 24 73h98q-13 -49 -27 -111q-32 -146 -45 -213q-8 -47 -0.5 -65.5t31.5 -16.5l-23 -87q-15 -5 -36 -5q-36 0 -56 24t-20 70zM151 185q0 -46 22 -74.5t62 -28.5
q38 0 72 33.5t51 77.5q10 30 15 59q6 36 6 54q0 44 -22 73t-62 29q-55 0 -99.5 -68.5t-44.5 -154.5zM370 694h121l-131 -148h-86z" />
    <glyph glyph-name="epsilontonos" unicode="&#x3ad;" horiz-adv-x="423" 
d="M335 216h-54q-60 0 -99.5 -19.5t-39.5 -58.5q0 -28 28 -43.5t72 -15.5q71 0 135 30l6 -82q-66 -38 -178 -38q-82 0 -136 31.5t-54 95.5q0 56 39 95t91 47l1 5q-38 10 -58 34t-20 56q0 59 59.5 102t157.5 43q94 0 140 -36l-29 -74q-43 26 -106 26q-47 0 -75.5 -18.5
t-28.5 -46.5q0 -54 116 -54h46zM302 694h121l-132 -148h-85z" />
    <glyph glyph-name="etatonos" unicode="&#x3ae;" horiz-adv-x="550" 
d="M137 0h-117l63 336q20 105 14 151h102q9 -29 1 -88h3q67 99 175 99q54 0 89 -34t35 -100q0 -40 -9 -81l-57 -300q-25 -141 -22 -181h-109q-13 28 15 180l55 293q6 32 6 58q0 70 -61 70q-43 0 -84.5 -48.5t-56.5 -129.5zM366 694h121l-131 -148h-86z" />
    <glyph glyph-name="iotatonos" unicode="&#x3af;" horiz-adv-x="249" 
d="M224 487l-67 -351q-6 -31 1.5 -43.5t33.5 -11.5l-23 -85q-17 -7 -47 -7q-88 0 -89 90q0 9 15 92l60 316h116zM227 694h121l-132 -148h-85z" />
    <glyph glyph-name="upsilondieresistonos" unicode="&#x3b0;" horiz-adv-x="520" 
d="M374 487h108q13 -33 13 -91q0 -70 -17 -139.5t-49.5 -130.5t-88 -99t-124.5 -38q-78 0 -126 42.5t-48 116.5q0 27 9 72l19 100q25 132 20 167h111q13 -22 -1 -91l-30 -162q-9 -52 -9 -67q0 -37 21.5 -59.5t51.5 -22.5q43 0 77.5 47.5t52 120.5t17.5 154q0 47 -7 80z
M294 703h99l-96 -162h-66zM164 556q-23 0 -38 14.5t-15 38.5q0 25 17 41.5t42 16.5q23 0 37 -15t14 -37q0 -25 -16.5 -42t-40.5 -17zM439 556q-22 0 -37.5 15t-15.5 38q0 25 17 41.5t42 16.5q23 0 37.5 -15t14.5 -37q0 -25 -17 -42t-41 -17z" />
    <glyph glyph-name="alpha" unicode="&#x3b1;" horiz-adv-x="560" 
d="M366 83h-3q-66 -94 -172 -94q-71 0 -116 49t-45 132q0 138 80.5 233t175.5 95q101 0 130 -84h4q9 33 24 73h98q-13 -49 -27 -111q-32 -146 -45 -213q-8 -47 -0.5 -65.5t31.5 -16.5l-23 -87q-15 -5 -36 -5q-36 0 -56 24t-20 70zM151 185q0 -46 22 -74.5t62 -28.5
q38 0 72 33.5t51 77.5q10 30 15 59q6 36 6 54q0 44 -22 73t-62 29q-55 0 -99.5 -68.5t-44.5 -154.5z" />
    <glyph glyph-name="beta" unicode="&#x3b2;" horiz-adv-x="549" 
d="M107 -198h-108q-12 42 14 176l83 444q33 176 113 244q64 55 150 55q73 0 117 -44t44 -109q0 -62 -31 -109.5t-80 -70.5l-1 -6q45 -11 76.5 -55t31.5 -106q0 -102 -70 -167t-159 -65q-96 0 -145 55h-3l-11 -65q-24 -130 -21 -177zM266 331l14 76q12 0 18 1q50 7 81 44.5
t31 92.5q0 37 -18.5 60.5t-50.5 23.5q-93 0 -128 -185l-55 -299q15 -28 44.5 -47.5t66.5 -19.5q52 0 90 40t38 100q0 49 -29.5 79t-77.5 34h-24z" />
    <glyph glyph-name="gamma" unicode="&#x3b3;" horiz-adv-x="463" 
d="M192 -198h-115q37 171 36 265q-1 97 -31 217.5t-64 202.5h128q25 -54 45.5 -155t21.5 -199h4q115 177 140 313q4 28 4 41h115q2 -17 -3 -45q-16 -87 -79 -198t-157 -219q-9 -10 -12 -27q-18 -110 -33 -196z" />
    <glyph glyph-name="delta" unicode="&#x3b4;" horiz-adv-x="538" 
d="M508 651l-43 -69q-20 21 -53 37.5t-64 16.5q-26 0 -39 -10.5t-13 -26.5q0 -22 49 -67l5 -5l62 -60q94 -89 94 -197q0 -111 -75.5 -196t-193.5 -85q-91 0 -150 58t-59 151q0 102 61.5 174.5t148.5 108.5v4l-19 22q-44 46 -44 91q0 51 45 87t113 36q110 0 175 -70zM332 386
l-38 37q-61 -29 -103.5 -86.5t-42.5 -134.5q0 -57 30 -92t75 -35q55 0 94.5 51.5t39.5 125.5q0 79 -55 134z" />
    <glyph glyph-name="epsilon" unicode="&#x3b5;" horiz-adv-x="423" 
d="M335 216h-54q-60 0 -99.5 -19.5t-39.5 -58.5q0 -28 28 -43.5t72 -15.5q71 0 135 30l6 -82q-66 -38 -178 -38q-82 0 -136 31.5t-54 95.5q0 56 39 95t91 47l1 5q-38 10 -58 34t-20 56q0 59 59.5 102t157.5 43q94 0 140 -36l-29 -74q-43 26 -106 26q-47 0 -75.5 -18.5
t-28.5 -46.5q0 -54 116 -54h46z" />
    <glyph glyph-name="zeta" unicode="&#x3b6;" horiz-adv-x="411" 
d="M465 710l3 -79q-112 -59 -212.5 -179.5t-100.5 -230.5q0 -93 85 -129q36 -20 130 -34q7 0 7 -10q0 -32 -32 -97.5t-66 -99.5l-73 25q12 17 28 51t20 53q-62 14 -94 28q-127 51 -127 191q0 111 84.5 231t194.5 190v4h-60q-71 0 -103 14l22 78q27 -6 123 -6h171z" />
    <glyph glyph-name="eta" unicode="&#x3b7;" horiz-adv-x="550" 
d="M137 0h-117l63 336q20 105 14 151h102q9 -29 1 -88h3q67 99 175 99q54 0 89 -34t35 -100q0 -40 -9 -81l-57 -300q-25 -141 -22 -181h-109q-13 28 15 180l55 293q6 32 6 58q0 70 -61 70q-43 0 -84.5 -48.5t-56.5 -129.5z" />
    <glyph glyph-name="theta" unicode="&#x3b8;" horiz-adv-x="538" 
d="M231 -11q-91 0 -141.5 62t-50.5 178q0 79 21 173q32 139 106.5 229t181.5 90q88 0 136 -63.5t48 -165.5q0 -70 -14 -145q-31 -159 -103.5 -258.5t-183.5 -99.5zM179 406h231q9 55 9 96q0 62 -21.5 98.5t-63.5 36.5q-57 0 -96.5 -65t-58.5 -166zM395 321h-232
q-11 -64 -11 -109q0 -66 24 -102.5t65 -36.5q108 0 154 248z" />
    <glyph glyph-name="iota" unicode="&#x3b9;" horiz-adv-x="249" 
d="M224 487l-67 -351q-6 -31 1.5 -43.5t33.5 -11.5l-23 -85q-17 -7 -47 -7q-88 0 -89 90q0 9 15 92l60 316h116z" />
    <glyph glyph-name="kappa" unicode="&#x3ba;" horiz-adv-x="495" 
d="M137 0h-116l68 366q17 94 11 121h110q14 -25 1 -89l-22 -120h4q52 52 201 209h133v-5q-96 -93 -234 -219l-1 -3q32 -11 53.5 -42t46.5 -88l56 -130h-127l-41 99q-24 55 -44.5 81.5t-50.5 26.5h-10z" />
    <glyph glyph-name="lambda" unicode="&#x3bb;" horiz-adv-x="458" 
d="M300 0l-38 257q-9 59 -12 91h-5q-3 -7 -17 -40.5t-22 -51.5l-121 -256h-123l240 455q9 18 9 29t-1 19q-22 124 -93 124h-17l23 89q17 5 37 5q70 0 106.5 -53.5t59.5 -174.5l92 -493h-118z" />
    <glyph glyph-name="uni03BC" unicode="&#x3bc;" horiz-adv-x="543" 
d="M223 487l-53 -280q-23 -123 66 -123q30 0 58 26.5t45 62.5q13 22 17 47l51 267h117l-63 -336q-7 -40 -0.5 -54t29.5 -16l-24 -86q-20 -6 -38 -6q-76 0 -77 95h-4q-52 -92 -133 -92q-61 0 -83 43l-10 -54q-24 -124 -21 -179h-105q-9 44 17 180l95 505h116z" />
    <glyph glyph-name="nu" unicode="&#x3bd;" horiz-adv-x="464" 
d="M32 487h123q7 -50 31 -244q2 -20 6 -62t7 -65h4q126 200 150 320q5 26 7 51h113q0 -27 -3 -43q-31 -173 -246 -444h-111q-38 240 -81 487z" />
    <glyph glyph-name="xi" unicode="&#x3be;" horiz-adv-x="437" 
d="M382 350h-31q-91 0 -145.5 -41t-54.5 -106q0 -90 121 -122q61 -17 124 -23q8 -1 8 -12q0 -29 -35.5 -97.5t-63.5 -96.5l-73 24q35 55 48 105q-50 6 -92 20q-66 21 -114 65t-48 118q0 82 54 141.5t126 76.5l1 5q-40 16 -64 50t-24 75q0 78 65 133.5t172 55.5q85 0 128 -32
l-30 -76q-34 23 -91 23t-91.5 -31t-34.5 -77q0 -44 33.5 -67.5t91.5 -27.5q10 -1 34 -1z" />
    <glyph glyph-name="omicron" unicode="&#x3bf;" horiz-adv-x="543" 
d="M313 498q94 0 147 -58t53 -144q0 -127 -80 -217t-202 -90q-91 0 -145 56.5t-54 144.5q0 127 79.5 217.5t201.5 90.5zM299 408q-65 0 -106 -69.5t-41 -145.5q0 -51 25.5 -82.5t69.5 -31.5q62 0 103.5 69t41.5 148q0 45 -22 78.5t-71 33.5z" />
    <glyph glyph-name="pi" unicode="&#x3c0;" horiz-adv-x="552" 
d="M553 396h-64l-45 -243q-19 -105 -16 -153h-111q-12 25 10 145l46 251h-124q-2 -7 -9.5 -41.5t-12.5 -53.5q-58 -225 -113 -301h-112q62 102 112 298q11 42 22 98q-57 0 -96 -9l-2 68q37 32 159 32h377z" />
    <glyph glyph-name="rho" unicode="&#x3c1;" horiz-adv-x="553" 
d="M103 -198h-110q-6 39 18 176l41 219q31 169 117 241q69 60 166 60q86 0 138 -56t52 -141q0 -129 -77.5 -220.5t-178.5 -91.5q-43 0 -77 16t-49 43h-3l-13 -70q-24 -129 -24 -176zM175 231l-5 -28q-4 -15 -4 -38q0 -30 26 -58t69 -28q57 0 100.5 63.5t43.5 150.5
q0 47 -23.5 78.5t-67.5 31.5q-49 0 -85.5 -43.5t-53.5 -128.5z" />
    <glyph glyph-name="uni03C2" unicode="&#x3c2;" horiz-adv-x="428" 
d="M286 -149l-72 25q12 18 27.5 51t19.5 53q-51 9 -89 24q-58 21 -101 69.5t-43 128.5q0 118 85 207t212 89q69 0 114 -26l-32 -83q-32 17 -82 17q-71 0 -123.5 -54t-52.5 -134q0 -97 103 -133q42 -16 124 -28q7 -1 7 -12q0 -34 -32.5 -97.5t-64.5 -96.5z" />
    <glyph glyph-name="sigma" unicode="&#x3c3;" horiz-adv-x="564" 
d="M451 420v-5q29 -20 43.5 -59.5t14.5 -74.5q0 -115 -78.5 -203.5t-197.5 -88.5q-93 0 -147.5 56t-54.5 145q0 126 79.5 217t200.5 91h281l-15 -88q-39 0 -126 10zM245 79q62 0 104 69.5t42 147.5q0 45 -22 78.5t-70 33.5q-44 0 -79 -35.5t-52 -83.5t-16 -96
q0 -51 25 -82.5t68 -31.5z" />
    <glyph glyph-name="tau" unicode="&#x3c4;" horiz-adv-x="411" 
d="M293 83l-18 -85q-22 -9 -53 -9q-109 0 -109 110q0 28 8 76l41 220h-43q-57 0 -97 -7v69q44 30 157 30h261l-22 -92h-139l-43 -230q-4 -24 -4 -41q0 -42 39 -42q4 0 11.5 0.5t10.5 0.5z" />
    <glyph glyph-name="upsilon" unicode="&#x3c5;" horiz-adv-x="520" 
d="M374 487h108q13 -33 13 -91q0 -70 -17 -139.5t-49.5 -130.5t-88 -99t-124.5 -38q-78 0 -126 42.5t-48 116.5q0 27 9 72l19 100q25 132 20 167h111q13 -22 -1 -91l-30 -162q-9 -52 -9 -67q0 -37 21.5 -59.5t51.5 -22.5q43 0 77.5 47.5t52 120.5t17.5 154q0 47 -7 80z" />
    <glyph glyph-name="phi" unicode="&#x3c6;" horiz-adv-x="653" 
d="M242 71l47 260q15 84 57.5 125.5t102.5 41.5q72 0 122.5 -55.5t50.5 -141.5q0 -138 -88 -224t-204 -88l-35 -187h-104l35 187q-79 10 -137 65t-58 147q0 62 21.5 116.5t54.5 90t66.5 57.5t64.5 32l40 -59q-49 -26 -91 -84.5t-42 -143.5q0 -53 25 -90.5t72 -48.5zM400 361
l-55 -290q70 5 117 70t47 155q0 50 -19 84t-49 34q-32 0 -41 -53z" />
    <glyph glyph-name="chi" unicode="&#x3c7;" horiz-adv-x="449" 
d="M43 487h121l40 -145q9 -34 25 -104h5q39 72 56 99q29 50 89 150h118q-120 -182 -226 -340l106 -342l-112 -25l-42 149q-25 89 -35 130h-6q-22 -40 -56 -99q-13 -21 -51 -84t-58 -96l-97 36q26 38 105.5 157.5t122.5 185.5z" />
    <glyph glyph-name="psi" unicode="&#x3c8;" horiz-adv-x="661" 
d="M516 487h106q14 -38 14 -95q0 -173 -81.5 -285t-219.5 -118l-35 -187h-106l35 187q-80 7 -131.5 53t-51.5 133q0 35 8 81l20 110q16 79 15 121h105q12 -22 -2 -91l-25 -137q-8 -46 -8 -81q1 -50 24.5 -76t61.5 -29l101 541h105l-101 -541q69 1 121.5 87.5t52.5 240.5
q0 60 -8 86z" />
    <glyph glyph-name="omega" unicode="&#x3c9;" horiz-adv-x="698" 
d="M511 487h104q20 -23 35 -69.5t15 -100.5q0 -135 -67 -231.5t-164 -96.5q-91 0 -115 82h-4q-49 -82 -136 -82q-63 0 -106 48.5t-43 139.5q0 97 41.5 183t87.5 127h113v-3q-48 -45 -86 -125.5t-38 -169.5q0 -49 17 -75t43 -26q28 0 48 29t28 76l30 170h109l-30 -150
q-9 -41 -9 -60q0 -26 13 -45.5t39 -19.5q44 0 79.5 73.5t35.5 169.5q0 99 -40 153v3z" />
    <glyph glyph-name="iotadieresis" unicode="&#x3ca;" horiz-adv-x="249" 
d="M224 487l-67 -351q-6 -31 1.5 -43.5t33.5 -11.5l-23 -85q-17 -7 -47 -7q-88 0 -89 90q0 9 15 92l60 316h116zM81 551q-25 0 -41.5 16.5t-16.5 42.5q0 28 19 46.5t46 18.5q25 0 41 -16.5t16 -41.5q0 -29 -18.5 -47.5t-45.5 -18.5zM276 551q-25 0 -41.5 16.5t-16.5 42.5
q0 28 19 46.5t46 18.5q26 0 41.5 -16.5t15.5 -41.5q0 -29 -18.5 -47.5t-45.5 -18.5z" />
    <glyph glyph-name="upsilondieresis" unicode="&#x3cb;" horiz-adv-x="520" 
d="M374 487h108q13 -33 13 -91q0 -70 -17 -139.5t-49.5 -130.5t-88 -99t-124.5 -38q-78 0 -126 42.5t-48 116.5q0 27 9 72l19 100q25 132 20 167h111q13 -22 -1 -91l-30 -162q-9 -52 -9 -67q0 -37 21.5 -59.5t51.5 -22.5q43 0 77.5 47.5t52 120.5t17.5 154q0 47 -7 80z
M200 551q-24 0 -41 16.5t-17 42.5q0 28 19 46.5t46 18.5q26 0 41.5 -16.5t15.5 -41.5q0 -29 -18.5 -47.5t-45.5 -18.5zM396 551q-25 0 -41.5 16.5t-16.5 42.5q0 28 18.5 46.5t46.5 18.5q25 0 40.5 -16.5t15.5 -41.5q0 -29 -18 -47.5t-45 -18.5z" />
    <glyph glyph-name="omicrontonos" unicode="&#x3cc;" horiz-adv-x="543" 
d="M313 498q94 0 147 -58t53 -144q0 -127 -80 -217t-202 -90q-91 0 -145 56.5t-54 144.5q0 127 79.5 217.5t201.5 90.5zM299 408q-65 0 -106 -69.5t-41 -145.5q0 -51 25.5 -82.5t69.5 -31.5q62 0 103.5 69t41.5 148q0 45 -22 78.5t-71 33.5zM354 694h121l-131 -148h-86z" />
    <glyph glyph-name="upsilontonos" unicode="&#x3cd;" horiz-adv-x="520" 
d="M374 487h108q13 -33 13 -91q0 -70 -17 -139.5t-49.5 -130.5t-88 -99t-124.5 -38q-78 0 -126 42.5t-48 116.5q0 27 9 72l19 100q25 132 20 167h111q13 -22 -1 -91l-30 -162q-9 -52 -9 -67q0 -37 21.5 -59.5t51.5 -22.5q43 0 77.5 47.5t52 120.5t17.5 154q0 47 -7 80z
M324 694h122l-132 -148h-86z" />
    <glyph glyph-name="omegatonos" unicode="&#x3ce;" horiz-adv-x="698" 
d="M511 487h104q20 -23 35 -69.5t15 -100.5q0 -135 -67 -231.5t-164 -96.5q-91 0 -115 82h-4q-49 -82 -136 -82q-63 0 -106 48.5t-43 139.5q0 97 41.5 183t87.5 127h113v-3q-48 -45 -86 -125.5t-38 -169.5q0 -49 17 -75t43 -26q28 0 48 29t28 76l30 170h109l-30 -150
q-9 -41 -9 -60q0 -26 13 -45.5t39 -19.5q44 0 79.5 73.5t35.5 169.5q0 99 -40 153v3zM437 694h122l-132 -148h-86z" />
    <glyph glyph-name="uni0401" unicode="&#x401;" horiz-adv-x="496" 
d="M459 398l-19 -98h-242l-38 -201h272l-19 -99h-389l128 674h374l-19 -99h-257l-34 -177h243zM255 716q-24 0 -40.5 16t-16.5 40q0 28 18.5 46t45.5 18q25 0 40.5 -16.5t15.5 -40.5q0 -27 -18.5 -45t-44.5 -18zM452 716q-24 0 -40.5 16t-16.5 40q0 28 18.5 46t45.5 18
q24 0 40 -16.5t16 -40.5q0 -27 -18.5 -45t-44.5 -18z" />
    <glyph glyph-name="uni0402" unicode="&#x402;" horiz-adv-x="667" 
d="M87 674h516l-20 -101h-225l-29 -152h2q48 29 112 29q85 0 133 -58.5t48 -155.5q0 -82 -27 -155.5t-76 -123.5q-41 -43 -92.5 -69t-100.5 -32l-19 98q72 16 119 66q71 77 71 203q0 58 -25.5 94t-76.5 36q-42 0 -86 -28l-60 -325h-116l108 573h-176z" />
    <glyph glyph-name="uni0403" unicode="&#x403;" horiz-adv-x="428" 
d="M153 674h349l-20 -102h-232l-109 -572h-116zM362 832h137l-134 -122h-101z" />
    <glyph glyph-name="uni0404" unicode="&#x404;" horiz-adv-x="557" 
d="M603 654l-35 -94q-51 27 -129 26q-95 -1 -164 -55.5t-90 -144.5h298l-15 -94h-292q-2 -14 -2 -27q1 -74 49 -126t138 -52q72 0 140 29l12 -92q-70 -35 -181 -35q-136 0 -209.5 80.5t-73.5 210.5q0 93 34 172.5t97 134.5q112 98 270 98q94 0 153 -31z" />
    <glyph glyph-name="uni0405" unicode="&#x405;" horiz-adv-x="490" 
d="M5 37l40 96q65 -43 152 -43q52 0 88.5 26.5t36.5 73.5q0 32 -22 57t-73 52q-137 74 -137 176q0 94 71.5 152t176.5 58q91 0 150 -34l-38 -97q-57 31 -122 30q-53 0 -84.5 -26t-31.5 -62q0 -32 23.5 -55t77.5 -54q131 -69 131 -179q0 -100 -72.5 -159t-187.5 -59
q-58 0 -106.5 13.5t-72.5 33.5z" />
    <glyph glyph-name="uni0406" unicode="&#x406;" horiz-adv-x="256" 
d="M150 674h117l-128 -674h-117z" />
    <glyph glyph-name="uni0407" unicode="&#x407;" horiz-adv-x="256" 
d="M150 674h117l-128 -674h-117zM122 716q-24 0 -40.5 16t-16.5 40q0 28 18.5 46t44.5 18q25 0 41 -16.5t16 -40.5q0 -27 -18.5 -45t-44.5 -18zM319 716q-24 0 -40.5 16t-16.5 40q0 28 18 46t45 18q25 0 41 -16.5t16 -40.5q0 -27 -18.5 -45t-44.5 -18z" />
    <glyph glyph-name="uni0408" unicode="&#x408;" horiz-adv-x="383" 
d="M-33 6l23 99q36 -13 82 -13q52 0 83.5 32t45.5 110l84 440h116l-86 -453q-23 -123 -80 -177.5t-162 -54.5q-70 0 -106 17z" />
    <glyph glyph-name="uni0409" unicode="&#x409;" horiz-adv-x="894" 
d="M215 674h400l-48 -244q28 7 76 7q96 0 155.5 -49.5t59.5 -143.5q0 -99 -68 -165q-92 -86 -270 -86q-83 0 -148 9l107 573h-172l-34 -182q-51 -263 -144 -345q-62 -57 -154 -57l-11 98q56 2 93 42q68 65 104 254zM549 338l-47 -248q26 -3 57 -3q69 0 122.5 38t53.5 105
q0 57 -34.5 85.5t-91.5 28.5q-35 0 -60 -6z" />
    <glyph glyph-name="uni040A" unicode="&#x40a;" horiz-adv-x="903" 
d="M153 674h116l-50 -264h238l50 264h116l-48 -252q35 7 74 7q95 0 156.5 -49t61.5 -143t-68 -160q-89 -84 -269 -84q-84 0 -149 9l58 313h-239l-59 -315h-116zM556 330l-45 -241q16 -2 58 -2q71 0 122.5 37t51.5 101q0 54 -36.5 82t-91.5 28q-31 0 -59 -5z" />
    <glyph glyph-name="uni040B" unicode="&#x40b;" horiz-adv-x="675" 
d="M87 674h510l-20 -100h-222l-33 -168h2q63 43 145 43q73 0 110 -41t37 -110q-1 -45 -13 -103l-34 -195h-117l36 190q9 47 9 80q0 35 -20.5 58t-65.5 23q-60 0 -107 -41l-59 -310h-114l108 574h-172z" />
    <glyph glyph-name="uni040C" unicode="&#x40c;" horiz-adv-x="557" 
d="M152 674h115l-56 -293h18l252 293h143l-292 -309q55 -17 84 -67.5t46 -134.5q24 -128 37 -163h-120q-12 33 -33 155q-15 74 -42.5 107.5t-89.5 33.5h-19l-56 -296h-115zM398 832h137l-135 -122h-100z" />
    <glyph glyph-name="uni040E" unicode="&#x40e;" horiz-adv-x="529" 
d="M80 674h128l70 -269q16 -62 29 -126h4q36 87 59 140l114 255h133l-173 -340q-41 -78 -60 -113t-56 -90.5t-70 -85.5q-60 -56 -143 -56q-49 0 -80 15l21 96q23 -9 52 -9q65 0 109 83q12 19 4 43zM233 833h84q-5 -60 46 -60q49 0 64 60h86q-11 -54 -52 -84.5t-104 -30.5
q-65 0 -95.5 30t-28.5 85z" />
    <glyph glyph-name="uni040F" unicode="&#x40f;" horiz-adv-x="630" 
d="M152 674h117l-109 -575h256l110 575h116l-128 -674h-187l-43 -180h-93l27 180h-193z" />
    <glyph glyph-name="uni0410" unicode="&#x410;" horiz-adv-x="596" 
d="M400 192h-212l-92 -192h-124l338 674h146l85 -674h-122zM225 282h168l-19 168q-4 48 -10 128h-2q-7 -16 -26 -61t-29 -67z" />
    <glyph glyph-name="uni0411" unicode="&#x411;" horiz-adv-x="548" 
d="M152 674h378l-17 -100h-263l-29 -150q35 7 76 7q93 0 153 -49t60 -142q0 -108 -83 -176q-89 -71 -248 -71q-89 0 -154 9zM203 335l-46 -247q23 -4 59 -4q67 0 119 38t52 104q0 56 -33.5 85.5t-90.5 29.5q-24 0 -60 -6z" />
    <glyph glyph-name="uni0412" unicode="&#x412;" horiz-adv-x="553" 
d="M26 6l124 657q72 16 162 16q104 0 162 -41q65 -40 65 -115q0 -61 -40.5 -104t-99.5 -59v-3q49 -15 78.5 -53.5t29.5 -94.5q0 -98 -87 -158q-77 -55 -238 -55q-103 0 -156 10zM250 582l-35 -184h54q67 0 108.5 29.5t41.5 80.5q0 79 -107 79q-42 0 -62 -5zM197 312
l-42 -221q28 -3 62 -3q72 0 119.5 31t47.5 94q0 51 -37 75t-95 24h-55z" />
    <glyph glyph-name="uni0413" unicode="&#x413;" horiz-adv-x="428" 
d="M153 674h349l-20 -102h-232l-109 -572h-116z" />
    <glyph glyph-name="uni0414" unicode="&#x414;" horiz-adv-x="634" 
d="M230 674h392l-109 -578l61 -4l-61 -259h-94l26 167h-377l-42 -167h-93l44 259l50 4q61 84 104 181q42 101 65 220zM318 574l-22 -112q-21 -113 -61 -208q-37 -90 -86 -156h248l90 476h-169z" />
    <glyph glyph-name="uni0415" unicode="&#x415;" horiz-adv-x="496" 
d="M459 398l-19 -98h-242l-38 -201h272l-19 -99h-389l128 674h374l-19 -99h-257l-34 -177h243z" />
    <glyph glyph-name="uni0416" unicode="&#x416;" horiz-adv-x="812" 
d="M95 674h124l132 -295h17l55 295h111l-55 -295h18l237 295h133l-280 -309q40 -10 68 -42.5t40.5 -68t22.5 -86.5q21 -128 34 -168h-117q-14 45 -32 164q-12 68 -38.5 100.5t-80.5 32.5h-19l-56 -297h-112l56 298h-18q-55 0 -92.5 -34t-70.5 -102q-9 -19 -24.5 -53.5
t-28.5 -60.5t-26 -48h-124q15 22 30 51t33 69t28 59q45 91 88 132t116 55z" />
    <glyph glyph-name="uni0417" unicode="&#x417;" horiz-adv-x="481" 
d="M130 307l17 89h39q64 0 110.5 28.5t45.5 84.5q0 38 -25 59t-64 21q-64 0 -134 -38l-24 83q79 51 183 51q79 0 132.5 -39.5t53.5 -117.5q0 -66 -44 -111.5t-108 -60.5v-2q54 -12 88 -52.5t34 -99.5q0 -101 -76.5 -157t-185.5 -56q-107 0 -184 51l37 89q68 -41 146 -41
q60 0 101.5 31.5t41.5 87.5q0 49 -42.5 75t-95.5 25h-46z" />
    <glyph glyph-name="uni0418" unicode="&#x418;" horiz-adv-x="646" 
d="M153 674h110l-47 -249q-33 -169 -62 -282h2q54 88 154 227l222 304h125l-128 -674h-110l48 254q32 162 56 258l-2 1q-54 -92 -153 -231l-209 -282h-134z" />
    <glyph glyph-name="uni0419" unicode="&#x419;" horiz-adv-x="646" 
d="M153 674h110l-47 -249q-33 -169 -62 -282h2q54 88 154 227l222 304h125l-128 -674h-110l48 254q32 162 56 258l-2 1q-54 -92 -153 -231l-209 -282h-134zM290 831h84q-4 -60 47 -60q49 0 64 60h85q-11 -54 -51.5 -84.5t-104.5 -30.5t-95 30.5t-29 84.5z" />
    <glyph glyph-name="uni041A" unicode="&#x41a;" horiz-adv-x="557" 
d="M152 674h115l-56 -293h18l252 293h143l-292 -309q55 -17 84 -67.5t46 -134.5q24 -128 37 -163h-120q-12 33 -33 155q-15 74 -42.5 107.5t-89.5 33.5h-19l-56 -296h-115z" />
    <glyph glyph-name="uni041B" unicode="&#x41b;" horiz-adv-x="615" 
d="M214 674h413l-129 -674h-116l109 575h-184l-35 -183q-25 -133 -58.5 -214.5t-82.5 -126.5q-58 -58 -155 -61l-12 98q58 6 95 46q66 66 101 250z" />
    <glyph glyph-name="uni041C" unicode="&#x41c;" horiz-adv-x="802" 
d="M701 0h-113l45 317q23 160 41 247h-3q-65 -147 -112 -237l-166 -319h-90l-35 314q-11 104 -18 242h-2q-8 -32 -27 -121t-28 -126l-77 -317h-108l171 674h154l36 -315q12 -147 13 -194h4q34 92 85 193l163 316h156z" />
    <glyph glyph-name="uni041D" unicode="&#x41d;" horiz-adv-x="648" 
d="M153 674h116l-52 -272h274l52 272h117l-128 -674h-117l57 298h-275l-56 -298h-116z" />
    <glyph glyph-name="uni041E" unicode="&#x41e;" horiz-adv-x="688" 
d="M411 685q129 0 197 -78.5t68 -200.5q0 -92 -32 -178.5t-90 -143.5q-97 -95 -241 -95q-125 0 -195 79.5t-70 198.5q0 92 33 179.5t93 144.5q97 94 237 94zM397 587q-75 0 -133 -58q-43 -43 -68 -115.5t-25 -140.5q0 -82 39.5 -134t119.5 -52q76 0 131 57q42 42 66.5 116
t24.5 142q0 36 -7 67t-23.5 58.5t-48.5 43.5t-76 16z" />
    <glyph glyph-name="uni041F" unicode="&#x41f;" horiz-adv-x="633" 
d="M153 674h492l-128 -674h-117l110 575h-259l-110 -575h-116z" />
    <glyph glyph-name="uni0420" unicode="&#x420;" horiz-adv-x="535" 
d="M24 0l126 663q66 16 163 16q113 0 172 -48q62 -47 62 -134q0 -115 -86 -183q-80 -64 -211 -64q-18 0 -63 5l-48 -255h-115zM249 579l-44 -228q28 -6 61 -6q73 0 118.5 41t45.5 102q0 97 -117 97q-45 0 -64 -6z" />
    <glyph glyph-name="uni0421" unicode="&#x421;" horiz-adv-x="571" 
d="M501 115l11 -95q-68 -30 -176 -30q-132 0 -209.5 76t-77.5 207q0 104 42 190.5t116 141.5q106 80 251 80q102 0 147 -31l-34 -94q-44 24 -127 24q-101 0 -172 -62q-45 -40 -71 -101.5t-26 -133.5q0 -90 47.5 -144t143.5 -54q80 0 135 26z" />
    <glyph glyph-name="uni0422" unicode="&#x422;" horiz-adv-x="503" 
d="M144 0l109 572h-187l20 102h491l-20 -102h-188l-108 -572h-117z" />
    <glyph glyph-name="uni0423" unicode="&#x423;" horiz-adv-x="529" 
d="M80 674h128l70 -269q16 -62 29 -126h4q36 87 59 140l114 255h133l-173 -340q-41 -78 -60 -113t-56 -90.5t-70 -85.5q-60 -56 -143 -56q-49 0 -80 15l21 96q23 -9 52 -9q65 0 109 83q12 19 4 43z" />
    <glyph glyph-name="uni0424" unicode="&#x424;" horiz-adv-x="741" 
d="M265 -28l12 62q-95 16 -159 83.5t-64 179.5q0 88 32.5 158t84 110t108.5 61t114 21l11 54h109l-10 -57q95 -15 158.5 -83.5t63.5 -185.5q0 -110 -50.5 -190t-125.5 -116.5t-163 -38.5l-11 -58h-110zM293 120l84 442q-78 -2 -141.5 -75t-63.5 -188q0 -73 34 -120t87 -59z
M486 559l-84 -444q91 5 148 78t57 191q0 74 -33.5 120t-87.5 55z" />
    <glyph glyph-name="uni0425" unicode="&#x425;" horiz-adv-x="547" 
d="M494 0h-124l-54 150q-20 57 -39 116h-2q-11 -17 -34.5 -55.5t-38.5 -62.5l-99 -148h-139l257 344l-122 330h123l51 -149q26 -81 33 -108h2q34 58 66 109l102 148h139l-252 -331z" />
    <glyph glyph-name="uni0426" unicode="&#x426;" horiz-adv-x="646" 
d="M153 674h116l-109 -575h257l109 575h116l-109 -578l60 -4l-60 -259h-94l26 167h-440z" />
    <glyph glyph-name="uni0427" unicode="&#x427;" horiz-adv-x="581" 
d="M133 674h117l-36 -189q-9 -38 -9 -65q0 -84 100 -84q64 0 114 32l57 306h116l-127 -674h-117l53 271l-3 1q-60 -32 -140 -32q-81 0 -127 40t-46 111q0 31 11 88z" />
    <glyph glyph-name="uni0428" unicode="&#x428;" horiz-adv-x="846" 
d="M153 674h114l-109 -575h181l109 575h114l-109 -575h181l109 575h114l-128 -674h-704z" />
    <glyph glyph-name="uni0429" unicode="&#x429;" horiz-adv-x="861" 
d="M153 674h115l-110 -575h181l109 575h115l-110 -575h181l109 575h115l-110 -578l60 -4l-60 -259h-95l26 167h-654z" />
    <glyph glyph-name="uni042A" unicode="&#x42a;" horiz-adv-x="655" 
d="M85 674h292l-47 -244q35 7 73 7q98 0 157.5 -50t59.5 -144q0 -99 -67 -164q-89 -86 -271 -86q-83 0 -148 9l108 571h-176zM311 337l-46 -246q21 -4 58 -4q68 0 120.5 37.5t52.5 104.5q0 56 -34 85.5t-91 29.5q-25 0 -60 -7z" />
    <glyph glyph-name="uni042B" unicode="&#x42b;" horiz-adv-x="773" 
d="M152 674h116l-48 -244q35 7 76 7q92 0 150.5 -49.5t58.5 -143.5q-1 -99 -67 -165q-89 -86 -265 -86q-83 0 -148 9zM202 337l-46 -246q17 -4 57 -4q65 0 116.5 37.5t51.5 103.5q0 56 -32.5 86t-87.5 30q-29 0 -59 -7zM663 674h121l-128 -674h-122z" />
    <glyph glyph-name="uni042C" unicode="&#x42c;" horiz-adv-x="547" 
d="M152 674h116l-48 -244q33 7 76 7q96 0 155.5 -49.5t59.5 -144.5q0 -97 -65 -162q-92 -88 -273 -88q-83 0 -148 9zM202 337l-46 -246q21 -4 58 -4q68 0 120.5 37.5t52.5 103.5q0 57 -34 86.5t-92 29.5q-24 0 -59 -7z" />
    <glyph glyph-name="uni042D" unicode="&#x42d;" horiz-adv-x="559" 
d="M116 291l18 94h288q1 7 1 25q-1 74 -48 125t-129 51q-69 0 -134 -27l-23 88q78 38 173 38q131 0 207 -81t76 -217q0 -185 -115 -300q-100 -98 -267 -98q-52 0 -100 12t-74 28l31 92q61 -32 141 -32q99 0 164 56.5t83 145.5h-292z" />
    <glyph glyph-name="uni042E" unicode="&#x42e;" horiz-adv-x="904" 
d="M153 674h116l-52 -273h94q30 113 99 186q93 98 229 98q123 0 188 -78.5t65 -200.5q0 -90 -30 -175t-83 -143q-93 -99 -231 -99q-117 0 -184.5 77.5t-67.5 184.5q0 26 4 49h-103l-56 -300h-116zM562 86q58 0 107 49.5t75 121.5t26 145q0 186 -145 186q-60 0 -110.5 -50
t-76.5 -121.5t-26 -143.5q0 -83 37 -135t113 -52z" />
    <glyph glyph-name="uni042F" unicode="&#x42f;" horiz-adv-x="548" 
d="M560 663l-124 -663h-117l54 281h-39q-34 0 -60.5 -12.5t-48 -40t-32.5 -46.5t-30 -57q-40 -87 -64 -125h-128q17 25 80 152q34 68 68.5 110.5t84.5 57.5v2q-47 14 -79.5 51t-32.5 96q0 105 91 164q76 46 202 46q100 0 175 -16zM389 368l40 215q-33 5 -61 5
q-67 0 -111 -31.5t-44 -91.5q0 -47 35 -73t87 -26q32 0 54 2z" />
    <glyph glyph-name="uni0430" unicode="&#x430;" horiz-adv-x="540" 
d="M448 0h-108q1 24 9 110h-3q-65 -121 -174 -121q-65 0 -104.5 46t-39.5 120q0 64 22 124t63.5 109.5t108.5 79.5t149 30q79 0 147 -22l-50 -254q-23 -122 -20 -222zM362 275l26 128q-20 5 -48 5q-78 0 -134.5 -72.5t-56.5 -159.5q0 -93 70 -93q43 0 85 52t58 140z" />
    <glyph glyph-name="uni0431" unicode="&#x431;" horiz-adv-x="537" 
d="M557 720l-18 -99q-24 -9 -78 -15q-59 -8 -85.5 -13t-69 -24t-72.5 -52q-48 -51 -67 -127h4q66 97 170 97q79 0 123.5 -53.5t43.5 -135.5q0 -123 -76 -216t-197 -93q-90 0 -139.5 61.5t-49.5 171.5q0 104 31 196t89 156q59 66 128 92t172 36q60 7 91 18zM248 76
q45 0 78.5 36t47.5 83t14 93q0 48 -20.5 80.5t-63.5 32.5q-56 0 -99 -60q-43 -57 -43 -144q0 -51 22 -86t64 -35z" />
    <glyph glyph-name="uni0432" unicode="&#x432;" horiz-adv-x="507" 
d="M310 498q73 0 116 -29.5t43 -86.5q0 -45 -34.5 -75.5t-79.5 -43.5v-3q41 -5 71 -32t30 -72q0 -58 -40 -97t-91.5 -54t-108.5 -15q-179 0 -179 146q0 79 33.5 176t93.5 141q62 45 146 45zM298 417q-84 0 -122 -139q101 15 135 33q46 24 46 58q0 23 -16.5 35.5t-42.5 12.5z
M252 216q-46 0 -91 -15q-7 -37 -7 -58q0 -71 76 -71q46 0 77 22t31 58q0 64 -86 64z" />
    <glyph glyph-name="uni0433" unicode="&#x433;" horiz-adv-x="397" 
d="M108 385l-15 79q66 34 144 34q72 -1 110.5 -35t38.5 -93q0 -57 -40.5 -92.5t-117.5 -68.5q-51 -23 -75 -41.5t-24 -44.5q0 -46 60 -46q54 -1 126 35l14 -83q-74 -41 -160 -39q-75 1 -117.5 34.5t-42.5 95.5q0 34 12.5 61t40 47.5t49.5 32t61 28.5q36 16 51 23.5t32.5 23
t17.5 32.5q0 19 -15.5 30.5t-43.5 11.5q-46 1 -106 -25z" />
    <glyph glyph-name="uni0434" unicode="&#x434;" horiz-adv-x="530" 
d="M140 623l-2 97q17 -5 39.5 -7t49 -3.5t38.5 -2.5q116 -12 172 -68q76 -68 76 -222q0 -56 -9.5 -112.5t-32 -114t-55 -102t-84 -72t-113.5 -27.5q-89 0 -138.5 53t-49.5 145q0 114 70 207t180 93q100 0 133 -90h3q0 6 0.5 18.5t0.5 18.5q0 35 -12 71t-35 58
q-41 41 -141 49q-79 9 -90 11zM236 76q59 0 98.5 71t40.5 137q0 47 -22 80.5t-65 33.5q-44 0 -76.5 -36t-46.5 -83t-14 -93q1 -47 22 -78.5t63 -31.5z" />
    <glyph glyph-name="uni0435" unicode="&#x435;" horiz-adv-x="479" 
d="M391 113l11 -85q-73 -38 -172 -38q-98 0 -149 54.5t-51 146.5q0 117 78 212t198 95q71 0 114 -38t43 -99q0 -168 -319 -161q-5 -39 13 -69q29 -50 100 -50q72 0 134 32zM353 360q0 24 -17 37.5t-45 13.5q-51 0 -87 -37.5t-48 -86.5q197 -3 197 73z" />
    <glyph glyph-name="uni0436" unicode="&#x436;" horiz-adv-x="686" 
d="M59 487h126l93 -208h15l39 208h110l-41 -208h16l174 208h130l-208 -218q66 -17 89 -138q3 -12 8.5 -42t10.5 -51.5t10 -37.5h-112q-9 23 -24 110q-10 51 -29.5 76t-61.5 25h-16l-40 -211h-110l42 211h-12q-46 0 -76.5 -23t-54.5 -71q-6 -11 -26.5 -54.5t-32.5 -62.5h-115
q2 3 63 128q64 132 160 140z" />
    <glyph glyph-name="uni0437" unicode="&#x437;" horiz-adv-x="434" 
d="M96 214l12 78h47q46 0 82 16.5t36 49.5q0 27 -21 41t-53 14q-60 0 -118 -33l-22 72q78 45 164 45q70 0 121.5 -29t51.5 -94q0 -48 -36.5 -78t-89.5 -40v-1q45 -8 78 -37t33 -76q0 -54 -36.5 -90t-84 -48.5t-101.5 -12.5q-109 0 -177 45l30 80q64 -39 136 -39
q43 0 76.5 18t33.5 53q0 66 -112 66h-50z" />
    <glyph glyph-name="uni0438" unicode="&#x438;" horiz-adv-x="545" 
d="M408 487h116l-64 -336q-10 -52 -24 -151h-103l10 85h-2q-72 -96 -169 -96q-57 0 -92 33.5t-35 104.5q0 40 10 87l52 273h116l-50 -266q-8 -38 -8 -67q0 -69 62 -69q42 0 82 46t54 119z" />
    <glyph glyph-name="uni0439" unicode="&#x439;" horiz-adv-x="545" 
d="M408 487h116l-64 -336q-10 -52 -24 -151h-103l10 85h-2q-72 -96 -169 -96q-57 0 -92 33.5t-35 104.5q0 40 10 87l52 273h116l-50 -266q-8 -38 -8 -67q0 -69 62 -69q42 0 82 46t54 119zM223 688h77q-3 -31 8.5 -50t34.5 -19q44 0 63 69h79q-13 -61 -52 -94t-97 -33
q-63 0 -90.5 35t-22.5 92z" />
    <glyph glyph-name="uni043A" unicode="&#x43a;" horiz-adv-x="484" 
d="M113 487h113l-39 -207h16l184 207h139l-225 -220q65 -21 94 -141q4 -14 11.5 -44t13 -49t11.5 -33h-114q-5 11 -10.5 29.5t-12 45t-11.5 42.5q-16 51 -37 72t-59 21h-14l-40 -210h-113z" />
    <glyph glyph-name="uni043B" unicode="&#x43b;" horiz-adv-x="529" 
d="M152 487h358l-92 -487h-116l75 396h-134l-21 -108q-38 -191 -117 -250q-51 -45 -128 -45l-8 92q44 5 65 25q54 41 80 179z" />
    <glyph glyph-name="uni043C" unicode="&#x43c;" horiz-adv-x="692" 
d="M138 487h145l28 -215q11 -90 13 -123h2q25 56 74 145l105 193h148l-64 -487h-108l31 212q8 51 26 165h-4q-14 -34 -76 -151l-119 -220h-89l-27 214q-14 122 -16 158h-4q-22 -108 -38 -169l-53 -209h-104z" />
    <glyph glyph-name="uni043D" unicode="&#x43d;" horiz-adv-x="544" 
d="M112 487h116l-35 -187h180l36 187h116l-92 -487h-117l40 209h-180l-40 -209h-116z" />
    <glyph glyph-name="uni043E" unicode="&#x43e;" horiz-adv-x="543" 
d="M313 498q94 0 147 -58t53 -144q0 -127 -80 -217t-202 -90q-91 0 -145 56.5t-54 144.5q0 127 79.5 217.5t201.5 90.5zM299 408q-65 0 -106 -69.5t-41 -145.5q0 -51 25.5 -82.5t69.5 -31.5q62 0 103.5 69t41.5 148q0 45 -22 78.5t-71 33.5z" />
    <glyph glyph-name="uni043F" unicode="&#x43f;" horiz-adv-x="550" 
d="M136 0h-116l63 336q11 54 25 151h103l-10 -88h2q67 99 175 99q55 0 89.5 -34t34.5 -100q0 -36 -9 -81l-54 -283h-116l52 275q6 36 6 58q0 70 -61 70q-43 0 -85 -48.5t-57 -129.5z" />
    <glyph glyph-name="uni0440" unicode="&#x440;" horiz-adv-x="545" 
d="M95 -198h-116l95 504q17 90 28 181h105l-11 -80h2q66 91 165 91q75 0 114.5 -52t39.5 -129q0 -131 -81.5 -229.5t-202.5 -98.5q-63 0 -97 21h-2zM174 222l-21 -119q29 -24 78 -24q66 0 115 72t49 157q0 39 -19 67t-58 28q-46 0 -87.5 -49t-56.5 -132z" />
    <glyph glyph-name="uni0441" unicode="&#x441;" horiz-adv-x="430" 
d="M364 107l4 -90q-54 -27 -140 -27q-91 0 -144 53t-53 141q0 130 88.5 222t221.5 92q56 0 99 -19l-30 -91q-34 15 -73 15q-81 0 -132.5 -62.5t-51.5 -142.5q0 -54 29 -84t78 -30q52 0 104 23z" />
    <glyph glyph-name="uni0442" unicode="&#x442;" horiz-adv-x="821" 
d="M133 0h-113l62 336q16 85 24 151h101l-10 -85h1q68 96 169 96q54 0 83 -28.5t32 -71.5q63 98 172 100q53 0 86 -33.5t33 -96.5q0 -31 -8 -83l-54 -285h-113l51 272q7 47 7 62q0 69 -60 69q-41 0 -79 -47.5t-52 -122.5l-44 -233h-112l52 276q6 30 6 57q0 70 -58 70
q-41 0 -81 -49.5t-53 -122.5z" />
    <glyph glyph-name="uni0443" unicode="&#x443;" horiz-adv-x="472" 
d="M45 487h122l38 -235q14 -84 19 -121h2q39 98 47 116l105 240h123l-178 -359q-91 -184 -178 -268q-69 -68 -150 -84l-27 100q51 16 86 42q53 39 86 97q5 10 2 23z" />
    <glyph glyph-name="uni0444" unicode="&#x444;" horiz-adv-x="709" 
d="M215 -198l48 242h-1q-44 -55 -113 -55q-55 0 -88 46t-33 126q0 78 27 154t82 129.5t124 53.5q29 0 49.5 -16t28.5 -38h2l50 266h105l-54 -269h2q49 57 111 57q64 0 95.5 -50.5t31.5 -126.5q0 -79 -26.5 -154t-80 -126.5t-120.5 -51.5q-29 0 -52.5 15t-33.5 38h-2
l-43 -240h-109zM273 408q-38 0 -69 -42t-45.5 -94.5t-14.5 -98.5q0 -42 15 -66t42 -24q33 0 55.5 27.5t31.5 65.5l26 130q5 21 5 49q0 20 -13 36.5t-33 16.5zM512 403q-42 0 -71 -46q-16 -30 -25 -78q-10 -53 -21 -108q-5 -29 2 -42q3 -18 17.5 -33t36.5 -14q49 4 82 78.5
t33 148.5q0 94 -54 94z" />
    <glyph glyph-name="uni0445" unicode="&#x445;" horiz-adv-x="472" 
d="M55 487h127l38 -88q8 -19 18 -45.5t13 -34.5h3q46 67 53 76l70 92h134l-206 -237l114 -250h-127l-39 92q-18 44 -33 88h-3q-36 -60 -49 -79l-77 -101h-134l212 251z" />
    <glyph glyph-name="uni0446" unicode="&#x446;" horiz-adv-x="558" 
d="M107 487h116l-50 -266q-8 -38 -8 -67q0 -69 62 -69q42 0 82 46t54 119l45 237h116l-56 -297q-9 -41 -9 -65q0 -60 68 -61l-68 -212h-85l40 149q-30 7 -44 32q-14 22 -14 55h-2q-34 -47 -80.5 -73t-95.5 -26q-59 0 -96 33.5t-37 104.5q0 40 10 87z" />
    <glyph glyph-name="uni0447" unicode="&#x447;" horiz-adv-x="520" 
d="M94 487h116l-22 -110q-9 -47 -9 -68q0 -62 72 -62q24 0 51.5 10.5t44.5 24.5l38 205h116l-93 -487h-116l39 194h-2q-54 -33 -124 -33q-74 0 -110 32.5t-36 89.5q0 25 10 83z" />
    <glyph glyph-name="uni0448" unicode="&#x448;" horiz-adv-x="809" 
d="M107 487h113l-51 -273q-6 -38 -6 -61q0 -69 56 -69q42 0 78.5 46.5t50.5 122.5l44 234h113l-52 -276q-7 -35 -7 -57q0 -70 56 -70q39 0 78.5 50t52.5 122l43 231h113l-62 -333q-9 -53 -14 -154h-105q1 40 5 85h-2q-65 -96 -166 -96q-52 0 -81.5 29t-31.5 70
q-66 -99 -173 -99q-50 0 -82 33.5t-32 95.5q0 32 8 84z" />
    <glyph glyph-name="uni0449" unicode="&#x449;" horiz-adv-x="824" 
d="M107 487h113l-51 -273q-6 -38 -6 -61q0 -69 56 -69q40 0 77 47t52 122l44 234h113l-52 -276q-7 -35 -7 -57q0 -70 56 -70q39 0 78.5 50t52.5 122l43 231h113l-54 -290q-10 -50 -10 -74q0 -58 68 -59l-68 -212h-85l39 149q-25 5 -41.5 31.5t-17.5 55.5h-3
q-67 -99 -173 -99q-52 0 -81 28.5t-31 70.5q-66 -99 -171 -99q-50 0 -83 33.5t-33 95.5q0 32 8 84z" />
    <glyph glyph-name="uni044A" unicode="&#x44a;" horiz-adv-x="550" 
d="M55 487h298q-88 -137 -115 -205h1q54 54 137 54q59 0 96 -35t37 -95q0 -85 -69 -149.5t-180 -64.5q-163 0 -163 136q0 58 31.5 132.5t74.5 135.5h-165zM273 76q49 0 85 31t36 78q0 31 -17.5 49t-49.5 18q-34 0 -64 -22.5t-42 -51.5q-9 -21 -9 -42q0 -26 16 -43t45 -17z
" />
    <glyph glyph-name="uni044B" unicode="&#x44b;" horiz-adv-x="701" 
d="M116 487h115l-51 -204h1q24 24 60.5 38.5t71.5 14.5q60 0 96.5 -35t36.5 -97q0 -85 -69.5 -148.5t-184.5 -63.5q-153 0 -153 112q0 38 13 94zM214 76q45 0 81 30.5t36 78.5q0 31 -17 49t-49 18q-34 0 -64.5 -26t-39.5 -58q-7 -24 -7 -43q0 -23 15.5 -36t44.5 -13z
M560 487h122l-93 -487h-122z" />
    <glyph glyph-name="uni044C" unicode="&#x44c;" horiz-adv-x="493" 
d="M117 487h114l-51 -204h1q24 24 61 38.5t73 14.5q60 0 98.5 -35t38.5 -96q0 -89 -70 -151t-187 -62q-156 0 -156 117q0 28 14 91zM215 76q48 0 85 30.5t37 77.5q0 32 -17 50t-49 18q-37 0 -67 -25t-41 -55q-8 -22 -8 -44q0 -52 60 -52z" />
    <glyph glyph-name="uni044D" unicode="&#x44d;" horiz-adv-x="457" 
d="M92 206l13 77h201v13q0 48 -32.5 80t-89.5 32q-56 0 -106 -21l-20 82q70 29 141 29q107 0 165 -61.5t58 -166.5q0 -124 -77.5 -202.5t-212.5 -78.5q-89 0 -145 35l29 82q52 -26 117 -26q63 0 106.5 33t56.5 93h-204z" />
    <glyph glyph-name="uni044E" unicode="&#x44e;" horiz-adv-x="734" 
d="M112 487h116l-35 -190h70q28 89 95 145t154 56q89 0 140.5 -59t51.5 -146q0 -125 -76 -214.5t-192 -89.5q-87 0 -137 54t-50 136q0 21 2 33h-75l-40 -212h-116zM449 79q57 0 96.5 69.5t39.5 146.5q0 45 -20.5 79t-64.5 34q-60 0 -99 -70t-39 -145q0 -50 23 -82t64 -32z
" />
    <glyph glyph-name="uni044F" unicode="&#x44f;" horiz-adv-x="506" 
d="M487 484l-92 -484h-114l37 193h-39q-43 0 -71 -22t-51 -67q-41 -82 -55 -104h-124q13 19 23.5 38.5t24.5 49t20 40.5q48 86 121 101v2q-39 8 -69.5 37.5t-30.5 71.5q0 155 259 155q82 0 161 -11zM332 270l27 140q-27 5 -58 5q-114 0 -114 -77q0 -33 31 -50.5t70 -17.5h44
z" />
    <glyph glyph-name="uni0451" unicode="&#x451;" horiz-adv-x="479" 
d="M391 113l11 -85q-73 -38 -172 -38q-98 0 -149 54.5t-51 146.5q0 117 78 212t198 95q71 0 114 -38t43 -99q0 -168 -319 -161q-5 -39 13 -69q29 -50 100 -50q72 0 134 32zM353 360q0 24 -17 37.5t-45 13.5q-51 0 -87 -37.5t-48 -86.5q197 -3 197 73zM223 561
q-25 0 -41.5 16t-16.5 42q0 29 19 47.5t46 18.5q26 0 41.5 -17t15.5 -42q0 -28 -18.5 -46.5t-45.5 -18.5zM419 561q-25 0 -42 16t-17 42q0 29 19 47.5t46 18.5q26 0 41.5 -17t15.5 -42q0 -28 -18 -46.5t-45 -18.5z" />
    <glyph glyph-name="uni0452" unicode="&#x452;" horiz-adv-x="549" 
d="M155 710h115l-13 -74h237l-16 -78h-236l-26 -134h2q61 68 143 68q76 0 113.5 -56.5t37.5 -146.5q0 -104 -34 -199.5t-101 -155.5q-30 -33 -76 -56t-90 -28l-19 96q52 9 97 53q46 39 74 113.5t28 156.5q0 127 -79 127q-44 0 -79.5 -40.5t-46.5 -100.5l-49 -255h-117
l106 558h-58l16 78h57z" />
    <glyph glyph-name="uni0453" unicode="&#x453;" horiz-adv-x="397" 
d="M108 385l-15 79q66 34 144 34q72 -1 110.5 -35t38.5 -93q0 -57 -40.5 -92.5t-117.5 -68.5q-51 -23 -75 -41.5t-24 -44.5q0 -46 60 -46q54 -1 126 35l14 -83q-74 -41 -160 -39q-75 1 -117.5 34.5t-42.5 95.5q0 34 12.5 61t40 47.5t49.5 32t61 28.5q36 16 51 23.5t32.5 23
t17.5 32.5q0 19 -15.5 30.5t-43.5 11.5q-46 1 -106 -25zM303 694h123l-131 -148h-88z" />
    <glyph glyph-name="uni0454" unicode="&#x454;" horiz-adv-x="433" 
d="M447 471l-30 -83q-40 20 -91 20q-60 0 -103.5 -34.5t-58.5 -90.5h207l-14 -76h-205q-1 -6 -1 -17q5 -49 37.5 -79t88.5 -30q55 0 98 20l9 -84q-54 -28 -141 -28q-94 0 -152.5 58.5t-58.5 156.5q0 126 79 208q83 86 215 86q75 0 121 -27z" />
    <glyph glyph-name="uni0455" unicode="&#x455;" horiz-adv-x="397" 
d="M2 25l30 84q59 -33 117 -33q34 1 54.5 18t20.5 42q0 23 -14 39.5t-50 35.5q-96 50 -96 127q0 70 55.5 115t141.5 45q73 0 115 -25l-30 -84q-40 22 -91 22q-33 0 -53.5 -16t-20.5 -41q0 -35 63 -67q101 -55 101 -131q0 -78 -58 -122t-149 -44q-88 0 -136 35z" />
    <glyph glyph-name="uni0456" unicode="&#x456;" horiz-adv-x="249" 
d="M136 0h-116l92 487h117zM191 557q-27 0 -44 17.5t-16 44.5q0 31 20.5 51t49.5 20q27 0 44.5 -17.5t17.5 -45.5q-1 -32 -21.5 -51t-50.5 -19z" />
    <glyph glyph-name="uni0457" unicode="&#x457;" horiz-adv-x="249" 
d="M136 0h-116l92 487h117zM94 561q-25 0 -42 16t-17 42q0 29 19 47.5t46 18.5q26 0 41.5 -17t15.5 -42q0 -28 -18 -46.5t-45 -18.5zM289 561q-25 0 -41.5 16t-16.5 42q0 29 18.5 47.5t46.5 18.5q25 0 41 -17t16 -42q0 -28 -18.5 -46.5t-45.5 -18.5z" />
    <glyph glyph-name="uni0458" unicode="&#x458;" horiz-adv-x="254" 
d="M123 487h116l-90 -477q-24 -123 -66 -169q-44 -50 -123 -50q-35 0 -63 7l14 89q14 -3 35 -3q31 0 51.5 24.5t32.5 89.5zM196 557q-26 0 -43 17.5t-17 44.5q0 31 20.5 51t49.5 20q28 0 45 -17.5t17 -45.5q0 -32 -20.5 -51t-51.5 -19z" />
    <glyph glyph-name="uni0459" unicode="&#x459;" horiz-adv-x="762" 
d="M143 487h349l-42 -202h2q56 51 135 51q59 0 97 -34.5t38 -95.5q0 -87 -70 -150.5t-188 -63.5q-155 0 -155 116q0 20 12 90l41 198h-128l-22 -110q-20 -101 -46.5 -159.5t-68.5 -90.5q-49 -44 -121 -44l-8 92q34 3 57 25q53 40 80 178zM486 76q47 0 84 30t37 77
q0 32 -17.5 50.5t-47.5 18.5q-36 0 -66.5 -24.5t-42.5 -55.5q-8 -21 -8 -42q0 -54 61 -54z" />
    <glyph glyph-name="uni045A" unicode="&#x45a;" horiz-adv-x="772" 
d="M112 487h116l-34 -179h160l35 179h113l-41 -202h2q23 24 59 37.5t72 13.5q60 0 98.5 -35.5t38.5 -96.5q0 -87 -69.5 -149.5t-189.5 -62.5q-153 0 -153 110q0 24 8 66l10 51h-160l-41 -219h-116zM495 76q50 0 86 30t36 77q0 31 -18 50t-50 19q-37 0 -66.5 -25.5
t-40.5 -57.5q-8 -35 -8 -43q0 -23 17 -36.5t44 -13.5z" />
    <glyph glyph-name="uni045B" unicode="&#x45b;" horiz-adv-x="550" 
d="M49 615h88l17 95h117l-18 -95h174l-13 -67h-174l-26 -134h2q68 84 163 84q53 0 87.5 -33.5t34.5 -97.5q0 -43 -8 -86l-54 -281h-116l52 273q6 38 6 64q0 66 -61 66q-44 0 -85 -48t-55 -123l-44 -232h-116l104 547h-88z" />
    <glyph glyph-name="uni045C" unicode="&#x45c;" horiz-adv-x="484" 
d="M113 487h113l-39 -207h16l184 207h139l-225 -220q65 -21 94 -141q4 -14 11.5 -44t13 -49t11.5 -33h-114q-5 11 -10.5 29.5t-12 45t-11.5 42.5q-16 51 -37 72t-59 21h-14l-40 -210h-113zM346 694h123l-132 -148h-87z" />
    <glyph glyph-name="uni045E" unicode="&#x45e;" horiz-adv-x="472" 
d="M45 487h122l38 -235q14 -84 19 -121h2q39 98 47 116l105 240h123l-178 -359q-91 -184 -178 -268q-69 -68 -150 -84l-27 100q51 16 86 42q53 39 86 97q5 10 2 23zM175 688h77q-3 -31 8.5 -50t34.5 -19q44 0 63 69h79q-13 -61 -52 -94t-97 -33q-63 0 -90.5 35t-22.5 92z
" />
    <glyph glyph-name="uni045F" unicode="&#x45f;" horiz-adv-x="545" 
d="M232 -193l-94 -12l33 159l105 8zM408 487h116l-64 -336q-10 -52 -24 -151h-103l10 85h-2q-72 -96 -169 -96q-57 0 -92 33.5t-35 104.5q0 40 10 87l52 273h116l-50 -266q-8 -38 -8 -67q0 -69 62 -69q42 0 82 46t54 119z" />
    <glyph glyph-name="uni0490" unicode="&#x490;" horiz-adv-x="426" 
d="M152 674h251l44 130h90l-57 -232h-231l-107 -572h-117z" />
    <glyph glyph-name="uni0491" unicode="&#x491;" 
d="M112 487h208l39 112h87l-50 -204h-186l-74 -395h-116z" />
    <glyph glyph-name="uni04D9" unicode="&#x4d9;" horiz-adv-x="473" 
d="M86 373l-15 84q74 41 174 41q98 0 148.5 -55t50.5 -148q0 -117 -77 -211t-197 -94q-73 0 -116 37t-43 99q0 169 320 161q2 39 -13 68q-28 51 -100 51q-68 0 -132 -33zM184 77q50 0 86 37.5t49 86.5q-97 1 -147 -15.5t-50 -58.5q0 -23 17 -36.5t45 -13.5z" />
    <glyph glyph-name="Wgrave" unicode="&#x1e80;" horiz-adv-x="848" 
d="M252 0h-128l-29 674h117l7 -347q1 -91 -3 -199h2q59 158 75 196l151 350h127l5 -340q1 -120 -3 -203h2q44 128 71 196l145 347h123l-304 -674h-126l-10 325q-3 106 4 210h-3q-44 -132 -75 -205zM354 832h133l77 -121h-97z" />
    <glyph glyph-name="wgrave" unicode="&#x1e81;" horiz-adv-x="721" 
d="M56 487h116l9 -237q3 -72 -2 -144h2q16 45 57 137l118 244h97l20 -238q6 -87 5 -143h2q24 76 50 143l105 238h118l-239 -487h-109l-22 212q-5 60 -5 144h-2q-51 -125 -58 -139l-108 -217h-109zM282 694h119l71 -148h-84z" />
    <glyph glyph-name="Wacute" unicode="&#x1e82;" horiz-adv-x="848" 
d="M252 0h-128l-29 674h117l7 -347q1 -91 -3 -199h2q59 158 75 196l151 350h127l5 -340q1 -120 -3 -203h2q44 128 71 196l145 347h123l-304 -674h-126l-10 325q-3 106 4 210h-3q-44 -132 -75 -205zM545 832h137l-134 -122h-101z" />
    <glyph glyph-name="wacute" unicode="&#x1e83;" horiz-adv-x="721" 
d="M56 487h116l9 -237q3 -72 -2 -144h2q16 45 57 137l118 244h97l20 -238q6 -87 5 -143h2q24 76 50 143l105 238h118l-239 -487h-109l-22 212q-5 60 -5 144h-2q-51 -125 -58 -139l-108 -217h-109zM448 694h123l-131 -148h-88z" />
    <glyph glyph-name="Wdieresis" unicode="&#x1e84;" horiz-adv-x="848" 
d="M252 0h-128l-29 674h117l7 -347q1 -91 -3 -199h2q59 158 75 196l151 350h127l5 -340q1 -120 -3 -203h2q44 128 71 196l145 347h123l-304 -674h-126l-10 325q-3 106 4 210h-3q-44 -132 -75 -205zM423 716q-23 0 -40 16t-17 40q0 27 18.5 45.5t45.5 18.5q25 0 40.5 -16.5
t15.5 -40.5q0 -27 -18 -45t-45 -18zM620 716q-24 0 -40.5 16t-16.5 40q0 27 18.5 45.5t45.5 18.5q25 0 40.5 -16.5t15.5 -40.5q0 -27 -18.5 -45t-44.5 -18z" />
    <glyph glyph-name="wdieresis" unicode="&#x1e85;" horiz-adv-x="721" 
d="M56 487h116l9 -237q3 -72 -2 -144h2q16 45 57 137l118 244h97l20 -238q6 -87 5 -143h2q24 76 50 143l105 238h118l-239 -487h-109l-22 212q-5 60 -5 144h-2q-51 -125 -58 -139l-108 -217h-109zM328 561q-25 0 -41.5 16t-16.5 42q0 29 19 47.5t46 18.5q26 0 41.5 -17
t15.5 -42q0 -28 -18.5 -46.5t-45.5 -18.5zM524 561q-25 0 -42 16t-17 42q0 29 19 47.5t46 18.5q26 0 41.5 -17t15.5 -42q0 -28 -18 -46.5t-45 -18.5z" />
    <glyph glyph-name="uni1EA0" unicode="&#x1ea0;" horiz-adv-x="596" 
d="M400 192h-212l-92 -192h-124l338 674h146l85 -674h-122zM225 282h168l-19 168q-4 48 -10 128h-2q-7 -16 -26 -61t-29 -67zM233 -201q-26 0 -43.5 18t-17.5 43t17.5 42.5t43.5 17.5q25 0 41.5 -17.5t16.5 -42.5q0 -24 -17 -42.5t-41 -18.5z" />
    <glyph glyph-name="uni1EA1" unicode="&#x1ea1;" horiz-adv-x="540" 
d="M448 0h-108q1 24 9 110h-3q-65 -121 -174 -121q-65 0 -104.5 46t-39.5 120q0 64 22 124t63.5 109.5t108.5 79.5t149 30q79 0 147 -22l-50 -254q-23 -122 -20 -222zM362 275l26 128q-20 5 -48 5q-78 0 -134.5 -72.5t-56.5 -159.5q0 -93 70 -93q43 0 85 52t58 140z
M210 -204q-27 0 -44.5 18t-17.5 44t18 44t44 18q25 0 42.5 -18t17.5 -44t-17 -44t-43 -18z" />
    <glyph glyph-name="uni1EA2" unicode="&#x1ea2;" horiz-adv-x="596" 
d="M400 192h-212l-92 -192h-124l338 674h146l85 -674h-122zM225 282h168l-19 168q-4 48 -10 128h-2q-7 -16 -26 -61t-29 -67zM411 706l-55 19q9 16 34.5 41t25.5 44q0 12 -8 19.5t-20 7.5q-24 0 -49 -31l-37 27q47 68 113 68q38 0 61.5 -21t23.5 -53q0 -25 -14 -44
t-38.5 -39.5t-36.5 -37.5z" />
    <glyph glyph-name="uni1EA3" unicode="&#x1ea3;" horiz-adv-x="540" 
d="M448 0h-108q1 24 9 110h-3q-65 -121 -174 -121q-65 0 -104.5 46t-39.5 120q0 64 22 124t63.5 109.5t108.5 79.5t149 30q79 0 147 -22l-50 -254q-23 -122 -20 -222zM362 275l26 128q-20 5 -48 5q-78 0 -134.5 -72.5t-56.5 -159.5q0 -93 70 -93q43 0 85 52t58 140zM355 530
l-60 16q8 19 37.5 48t29.5 51q0 13 -7.5 21t-19.5 8q-29 0 -52 -36l-40 27q46 73 117 73q38 0 61 -22t23 -54q0 -30 -15.5 -51.5t-39.5 -43t-34 -37.5z" />
    <glyph glyph-name="uni1EA4" unicode="&#x1ea4;" horiz-adv-x="596" 
d="M400 192h-212l-92 -192h-124l338 674h146l85 -674h-122zM225 282h168l-19 168q-4 48 -10 128h-2q-7 -16 -26 -61t-29 -67zM371 829h85l66 -119h-84l-32 66h-2l-64 -66h-93zM586 906h102l-129 -108h-62z" />
    <glyph glyph-name="uni1EA5" unicode="&#x1ea5;" horiz-adv-x="540" 
d="M448 0h-108q1 24 9 110h-3q-65 -121 -174 -121q-65 0 -104.5 46t-39.5 120q0 64 22 124t63.5 109.5t108.5 79.5t149 30q79 0 147 -22l-50 -254q-23 -122 -20 -222zM362 275l26 128q-20 5 -48 5q-78 0 -134.5 -72.5t-56.5 -159.5q0 -93 70 -93q43 0 85 52t58 140zM322 698
h87l63 -148h-80l-33 90h-3l-60 -90h-85zM546 785h100l-127 -140h-63z" />
    <glyph glyph-name="uni1EA6" unicode="&#x1ea6;" horiz-adv-x="596" 
d="M400 192h-212l-92 -192h-124l338 674h146l85 -674h-122zM225 282h168l-19 168q-4 48 -10 128h-2q-7 -16 -26 -61t-29 -67zM448 892h103l57 -109h-62zM371 829h84l66 -119h-84l-31 66h-2l-64 -66h-94z" />
    <glyph glyph-name="uni1EA7" unicode="&#x1ea7;" horiz-adv-x="540" 
d="M448 0h-108q1 24 9 110h-3q-65 -121 -174 -121q-65 0 -104.5 46t-39.5 120q0 64 22 124t63.5 109.5t108.5 79.5t149 30q79 0 147 -22l-50 -254q-23 -122 -20 -222zM362 275l26 128q-20 5 -48 5q-78 0 -134.5 -72.5t-56.5 -159.5q0 -93 70 -93q43 0 85 52t58 140zM394 787
h92l69 -140h-58zM312 698h87l63 -148h-80l-33 90h-3l-60 -90h-85z" />
    <glyph glyph-name="uni1EA8" unicode="&#x1ea8;" horiz-adv-x="596" 
d="M400 192h-212l-92 -192h-124l338 674h146l85 -674h-122zM225 282h168l-19 168q-4 48 -10 128h-2q-7 -16 -26 -61t-29 -67zM570 755l-51 20q9 17 34.5 38.5t25.5 38.5q0 11 -8.5 19t-21.5 8q-23 0 -49 -28l-32 32q41 55 105 55q36 0 58.5 -20t22.5 -50q0 -25 -14 -43
t-37 -36.5t-33 -33.5zM373 829h84l66 -119h-84l-31 66h-2l-64 -66h-94z" />
    <glyph glyph-name="uni1EA9" unicode="&#x1ea9;" horiz-adv-x="540" 
d="M448 0h-108q1 24 9 110h-3q-65 -121 -174 -121q-65 0 -104.5 46t-39.5 120q0 64 22 124t63.5 109.5t108.5 79.5t149 30q79 0 147 -22l-50 -254q-23 -122 -20 -222zM362 275l26 128q-20 5 -48 5q-78 0 -134.5 -72.5t-56.5 -159.5q0 -93 70 -93q43 0 85 52t58 140zM312 698
h87l63 -148h-80l-33 90h-3l-60 -90h-85zM509 633l-51 20q9 17 34.5 38.5t25.5 38.5q0 12 -8.5 19.5t-21.5 7.5q-23 0 -49 -28l-32 32q41 55 105 55q36 0 58.5 -20t22.5 -50q0 -25 -14 -43t-37 -36.5t-33 -33.5z" />
    <glyph glyph-name="uni1EAA" unicode="&#x1eaa;" horiz-adv-x="596" 
d="M400 192h-212l-92 -192h-124l338 674h146l85 -674h-122zM225 282h168l-19 168q-4 48 -10 128h-2q-7 -16 -26 -61t-29 -67zM345 844h-60q5 47 28.5 74.5t58.5 27.5q25 0 60 -20q30 -17 41 -17q12 0 19.5 9t11.5 32h59q-10 -103 -87 -103q-22 0 -62 21q-27 15 -39 15
q-22 0 -30 -39zM372 829h84l66 -119h-84l-31 66h-2l-64 -66h-94z" />
    <glyph glyph-name="uni1EAB" unicode="&#x1eab;" horiz-adv-x="540" 
d="M448 0h-108q1 24 9 110h-3q-65 -121 -174 -121q-65 0 -104.5 46t-39.5 120q0 64 22 124t63.5 109.5t108.5 79.5t149 30q79 0 147 -22l-50 -254q-23 -122 -20 -222zM362 275l26 128q-20 5 -48 5q-78 0 -134.5 -72.5t-56.5 -159.5q0 -93 70 -93q43 0 85 52t58 140zM288 699
h-60q5 47 28.5 74.5t58.5 27.5q25 0 61 -20q28 -17 40 -17t19.5 9t11.5 32h59q-10 -104 -87 -104q-20 0 -62 22q-27 15 -39 15q-22 0 -30 -39zM315 677h81l67 -127h-78l-33 71h-2l-52 -71h-87z" />
    <glyph glyph-name="uni1EAC" unicode="&#x1eac;" horiz-adv-x="596" 
d="M400 192h-212l-92 -192h-124l338 674h146l85 -674h-122zM225 282h168l-19 168q-4 48 -10 128h-2q-7 -16 -26 -61t-29 -67zM361 832h89l80 -122h-86l-45 66h-2l-64 -66h-94zM234 -201q-25 0 -43 18.5t-18 42.5q0 25 18 42.5t44 17.5q25 0 41.5 -17.5t16.5 -42.5t-17 -43
t-42 -18z" />
    <glyph glyph-name="uni1EAD" unicode="&#x1ead;" horiz-adv-x="540" 
d="M448 0h-108q1 24 9 110h-3q-65 -121 -174 -121q-65 0 -104.5 46t-39.5 120q0 64 22 124t63.5 109.5t108.5 79.5t149 30q79 0 147 -22l-50 -254q-23 -122 -20 -222zM362 275l26 128q-20 5 -48 5q-78 0 -134.5 -72.5t-56.5 -159.5q0 -93 70 -93q43 0 85 52t58 140zM330 694
h81l72 -148h-79l-41 84h-2l-64 -84h-86zM219 -204q-27 0 -44.5 18t-17.5 44t18 44t44 18q25 0 42.5 -18t17.5 -44t-17 -44t-43 -18z" />
    <glyph glyph-name="uni1EAE" unicode="&#x1eae;" horiz-adv-x="596" 
d="M400 192h-212l-92 -192h-124l338 674h146l85 -674h-122zM225 282h168l-19 168q-4 48 -10 128h-2q-7 -16 -26 -61t-29 -67zM434 911h110l-128 -110h-58zM270 812h64q-1 -21 14 -35.5t45 -14.5q61 0 73 50h65q-9 -50 -44.5 -81.5t-99.5 -31.5q-66 0 -94.5 31.5t-22.5 81.5z
" />
    <glyph glyph-name="uni1EAF" unicode="&#x1eaf;" horiz-adv-x="540" 
d="M448 0h-108q1 24 9 110h-3q-65 -121 -174 -121q-65 0 -104.5 46t-39.5 120q0 64 22 124t63.5 109.5t108.5 79.5t149 30q79 0 147 -22l-50 -254q-23 -122 -20 -222zM362 275l26 128q-20 5 -48 5q-78 0 -134.5 -72.5t-56.5 -159.5q0 -93 70 -93q43 0 85 52t58 140zM392 793
h103l-119 -141h-67zM223 658h61q-1 -27 15 -44.5t44 -17.5q32 0 52 18.5t26 43.5h65q-9 -57 -49 -91.5t-98 -34.5q-64 0 -93.5 36.5t-22.5 89.5z" />
    <glyph glyph-name="uni1EB0" unicode="&#x1eb0;" horiz-adv-x="596" 
d="M400 192h-212l-92 -192h-124l338 674h146l85 -674h-122zM225 282h168l-19 168q-4 48 -10 128h-2q-7 -16 -26 -61t-29 -67zM273 912h109l59 -110h-59zM272 812h63q0 -21 15 -35.5t45 -14.5q61 0 72 50h66q-9 -50 -45 -81.5t-100 -31.5q-65 0 -93.5 31.5t-22.5 81.5z" />
    <glyph glyph-name="uni1EB1" unicode="&#x1eb1;" horiz-adv-x="540" 
d="M448 0h-108q1 24 9 110h-3q-65 -121 -174 -121q-65 0 -104.5 46t-39.5 120q0 64 22 124t63.5 109.5t108.5 79.5t149 30q79 0 147 -22l-50 -254q-23 -122 -20 -222zM362 275l26 128q-20 5 -48 5q-78 0 -134.5 -72.5t-56.5 -159.5q0 -93 70 -93q43 0 85 52t58 140zM221 794
h100l70 -141h-65zM222 658h61q-1 -27 15 -44.5t44 -17.5q32 0 52 18.5t26 43.5h65q-9 -57 -49 -91.5t-98 -34.5q-64 0 -93.5 36.5t-22.5 89.5z" />
    <glyph glyph-name="uni1EB2" unicode="&#x1eb2;" horiz-adv-x="596" 
d="M400 192h-212l-92 -192h-124l338 674h146l85 -674h-122zM225 282h168l-19 168q-4 48 -10 128h-2q-7 -16 -26 -61t-29 -67zM412 789l-51 20q9 17 34.5 38.5t25.5 38.5q0 12 -8.5 19.5t-21.5 7.5q-25 0 -49 -28l-32 33q42 54 105 54q36 0 58.5 -20t22.5 -50q0 -25 -14 -43
t-37 -36.5t-33 -33.5zM272 812h64q0 -21 14.5 -35.5t44.5 -14.5q61 0 73 50h65q-8 -50 -44 -81.5t-100 -31.5q-65 0 -94 31.5t-23 81.5z" />
    <glyph glyph-name="uni1EB3" unicode="&#x1eb3;" horiz-adv-x="540" 
d="M448 0h-108q1 24 9 110h-3q-65 -121 -174 -121q-65 0 -104.5 46t-39.5 120q0 64 22 124t63.5 109.5t108.5 79.5t149 30q79 0 147 -22l-50 -254q-23 -122 -20 -222zM362 275l26 128q-20 5 -48 5q-78 0 -134.5 -72.5t-56.5 -159.5q0 -93 70 -93q43 0 85 52t58 140zM222 661
h61q-1 -27 15 -44.5t44 -17.5q32 0 52 18t26 44h65q-9 -57 -49 -91.5t-98 -34.5q-64 0 -93 36t-23 90zM361 643l-51 20q9 17 34.5 38.5t25.5 38.5q0 11 -8.5 19t-21.5 8q-25 0 -49 -28l-33 32q43 55 105 55q36 0 59 -20t23 -51q0 -24 -14 -42t-37 -36.5t-33 -33.5z" />
    <glyph glyph-name="uni1EB4" unicode="&#x1eb4;" horiz-adv-x="596" 
d="M400 192h-212l-92 -192h-124l338 674h146l85 -674h-122zM225 282h168l-19 168q-4 48 -10 128h-2q-7 -16 -26 -61t-29 -67zM271 812h67q-1 -21 12.5 -35.5t42.5 -14.5q57 0 70 50h69q-9 -50 -45 -81.5t-100 -31.5q-65 0 -93.5 31.5t-22.5 81.5zM332 842h-61q8 48 32 76.5
t58 28.5q30 0 61 -20q28 -19 42 -19q13 0 20.5 9.5t14.5 32.5h59q-19 -111 -93 -111q-31 0 -62 19q-30 19 -41 18q-20 0 -30 -34z" />
    <glyph glyph-name="uni1EB5" unicode="&#x1eb5;" horiz-adv-x="540" 
d="M448 0h-108q1 24 9 110h-3q-65 -121 -174 -121q-65 0 -104.5 46t-39.5 120q0 64 22 124t63.5 109.5t108.5 79.5t149 30q79 0 147 -22l-50 -254q-23 -122 -20 -222zM362 275l26 128q-20 5 -48 5q-78 0 -134.5 -72.5t-56.5 -159.5q0 -93 70 -93q43 0 85 52t58 140zM229 660
h63q-1 -27 11.5 -44.5t38.5 -17.5q55 0 72 62h64q-9 -58 -45.5 -92t-94.5 -34q-64 0 -90 35.5t-19 90.5zM287 695h-60q8 48 32.5 77t57.5 29q30 0 61 -20q26 -19 42 -19q13 0 20.5 9.5t14.5 32.5h59q-19 -111 -93 -111q-30 0 -62 18q-28 19 -41 19q-20 -1 -31 -35z" />
    <glyph glyph-name="uni1EB6" unicode="&#x1eb6;" horiz-adv-x="596" 
d="M400 192h-212l-92 -192h-124l338 674h146l85 -674h-122zM225 282h168l-19 168q-4 48 -10 128h-2q-7 -16 -26 -61t-29 -67zM277 841h68q-1 -22 13 -37t43 -15q59 0 70 52h70q-9 -52 -45 -83.5t-101 -31.5q-66 0 -95 32t-23 83zM231 -201q-26 0 -43.5 18t-17.5 43t18 42.5
t43 17.5t42 -17.5t17 -42.5q0 -24 -17.5 -42.5t-41.5 -18.5z" />
    <glyph glyph-name="uni1EB7" unicode="&#x1eb7;" horiz-adv-x="540" 
d="M448 0h-108q1 24 9 110h-3q-65 -121 -174 -121q-65 0 -104.5 46t-39.5 120q0 64 22 124t63.5 109.5t108.5 79.5t149 30q79 0 147 -22l-50 -254q-23 -122 -20 -222zM362 275l26 128q-20 5 -48 5q-78 0 -134.5 -72.5t-56.5 -159.5q0 -93 70 -93q43 0 85 52t58 140zM236 687
h63q0 -62 50 -62q30 0 48 18t24 44h65q-10 -58 -47 -92t-94 -34q-64 0 -90 35t-19 91zM213 -204q-27 0 -44.5 18t-17.5 44t18 44t45 18q25 0 42 -18t17 -44t-17 -44t-43 -18z" />
    <glyph glyph-name="uni1EB8" unicode="&#x1eb8;" horiz-adv-x="496" 
d="M459 398l-19 -98h-242l-38 -201h272l-19 -99h-389l128 674h374l-19 -99h-257l-34 -177h243zM207 -201q-25 0 -43 18.5t-18 42.5q0 25 18 42.5t44 17.5q25 0 41.5 -17.5t16.5 -42.5t-17 -43t-42 -18z" />
    <glyph glyph-name="uni1EB9" unicode="&#x1eb9;" horiz-adv-x="479" 
d="M391 113l11 -85q-73 -38 -172 -38q-98 0 -149 54.5t-51 146.5q0 117 78 212t198 95q71 0 114 -38t43 -99q0 -168 -319 -161q-5 -39 13 -69q29 -50 100 -50q72 0 134 32zM353 360q0 24 -17 37.5t-45 13.5q-51 0 -87 -37.5t-48 -86.5q197 -3 197 73zM199 -204q-27 0 -45 18
t-18 44t18.5 44t44.5 18q25 0 42 -18t17 -44t-17 -44t-42 -18z" />
    <glyph glyph-name="uni1EBA" unicode="&#x1eba;" horiz-adv-x="496" 
d="M459 398l-19 -98h-242l-38 -201h272l-19 -99h-389l128 674h374l-19 -99h-257l-34 -177h243zM364 706l-56 19q9 16 34.5 41t25.5 44q0 12 -7.5 19.5t-20.5 7.5q-22 0 -49 -31l-37 27q47 68 114 68q37 0 60.5 -21t23.5 -53q0 -25 -14 -44t-38 -39.5t-36 -37.5z" />
    <glyph glyph-name="uni1EBB" unicode="&#x1ebb;" horiz-adv-x="479" 
d="M391 113l11 -85q-73 -38 -172 -38q-98 0 -149 54.5t-51 146.5q0 117 78 212t198 95q71 0 114 -38t43 -99q0 -168 -319 -161q-5 -39 13 -69q29 -50 100 -50q72 0 134 32zM353 360q0 24 -17 37.5t-45 13.5q-51 0 -87 -37.5t-48 -86.5q197 -3 197 73zM325 530l-60 16
q8 19 37.5 48t29.5 51q0 13 -7.5 21t-19.5 8q-27 0 -52 -36l-40 27q46 73 117 73q38 0 61 -22t23 -54q0 -30 -15.5 -51.5t-39.5 -43t-34 -37.5z" />
    <glyph glyph-name="uni1EBC" unicode="&#x1ebc;" horiz-adv-x="496" 
d="M459 398l-19 -98h-242l-38 -201h272l-19 -99h-389l128 674h374l-19 -99h-257l-34 -177h243zM275 715h-60q8 55 32.5 85t58.5 30q30 0 61 -20q26 -19 43 -19q21 0 34 42h59q-17 -111 -93 -111q-30 0 -62 18q-30 19 -41 19q-23 -2 -32 -44z" />
    <glyph glyph-name="uni1EBD" unicode="&#x1ebd;" horiz-adv-x="479" 
d="M391 113l11 -85q-73 -38 -172 -38q-98 0 -149 54.5t-51 146.5q0 117 78 212t198 95q71 0 114 -38t43 -99q0 -168 -319 -161q-5 -39 13 -69q29 -50 100 -50q72 0 134 32zM353 360q0 24 -17 37.5t-45 13.5q-51 0 -87 -37.5t-48 -86.5q197 -3 197 73zM239 563h-60
q7 53 29.5 83.5t57.5 30.5q26 0 62 -21q28 -18 39 -18q12 0 19 9t12 34h59q-15 -111 -88 -111q-33 0 -62 20q-25 18 -39 18q-20 0 -29 -45z" />
    <glyph glyph-name="uni1EBE" unicode="&#x1ebe;" horiz-adv-x="496" 
d="M459 398l-19 -98h-242l-38 -201h272l-19 -99h-389l128 674h374l-19 -99h-257l-34 -177h243zM333 829h84l66 -119h-84l-31 66h-2l-64 -66h-94zM547 906h103l-130 -108h-62z" />
    <glyph glyph-name="uni1EBF" unicode="&#x1ebf;" horiz-adv-x="479" 
d="M391 113l11 -85q-73 -38 -172 -38q-98 0 -149 54.5t-51 146.5q0 117 78 212t198 95q71 0 114 -38t43 -99q0 -168 -319 -161q-5 -39 13 -69q29 -50 100 -50q72 0 134 32zM353 360q0 24 -17 37.5t-45 13.5q-51 0 -87 -37.5t-48 -86.5q197 -3 197 73zM278 698h87l63 -148
h-80l-33 90h-3l-60 -90h-85zM502 785h100l-127 -140h-64z" />
    <glyph glyph-name="uni1EC0" unicode="&#x1ec0;" horiz-adv-x="496" 
d="M459 398l-19 -98h-242l-38 -201h272l-19 -99h-389l128 674h374l-19 -99h-257l-34 -177h243zM406 892h103l58 -109h-63zM329 829h85l66 -119h-84l-32 66h-2l-64 -66h-93z" />
    <glyph glyph-name="uni1EC1" unicode="&#x1ec1;" horiz-adv-x="479" 
d="M391 113l11 -85q-73 -38 -172 -38q-98 0 -149 54.5t-51 146.5q0 117 78 212t198 95q71 0 114 -38t43 -99q0 -168 -319 -161q-5 -39 13 -69q29 -50 100 -50q72 0 134 32zM353 360q0 24 -17 37.5t-45 13.5q-51 0 -87 -37.5t-48 -86.5q197 -3 197 73zM360 787h92l69 -140
h-58zM278 698h87l63 -148h-80l-33 90h-3l-60 -90h-85z" />
    <glyph glyph-name="uni1EC2" unicode="&#x1ec2;" horiz-adv-x="496" 
d="M459 398l-19 -98h-242l-38 -201h272l-19 -99h-389l128 674h374l-19 -99h-257l-34 -177h243zM531 755l-51 20q9 17 34.5 38.5t25.5 38.5q0 11 -8.5 19t-21.5 8q-25 0 -49 -28l-33 32q43 55 105 55q36 0 59 -20t23 -50q0 -25 -14 -43t-37 -36.5t-33 -33.5zM334 829h84
l66 -119h-84l-32 66h-2l-64 -66h-93z" />
    <glyph glyph-name="uni1EC3" unicode="&#x1ec3;" horiz-adv-x="479" 
d="M391 113l11 -85q-73 -38 -172 -38q-98 0 -149 54.5t-51 146.5q0 117 78 212t198 95q71 0 114 -38t43 -99q0 -168 -319 -161q-5 -39 13 -69q29 -50 100 -50q72 0 134 32zM353 360q0 24 -17 37.5t-45 13.5q-51 0 -87 -37.5t-48 -86.5q197 -3 197 73zM278 698h87l63 -148
h-80l-33 90h-3l-60 -90h-85zM475 633l-51 20q9 17 34.5 38.5t25.5 38.5q0 12 -8.5 19.5t-21.5 7.5q-25 0 -49 -28l-33 32q43 55 105 55q36 0 59 -20t23 -50q0 -25 -14 -43t-37 -36.5t-33 -33.5z" />
    <glyph glyph-name="uni1EC4" unicode="&#x1ec4;" horiz-adv-x="496" 
d="M459 398l-19 -98h-242l-38 -201h272l-19 -99h-389l128 674h374l-19 -99h-257l-34 -177h243zM303 844h-60q5 47 28.5 74.5t58.5 27.5q24 0 60 -20q30 -17 41 -17q12 0 19.5 9t11.5 32h59q-10 -103 -87 -103q-24 0 -62 21q-27 15 -39 15q-22 0 -30 -39zM330 829h84l66 -119
h-84l-31 66h-2l-65 -66h-93z" />
    <glyph glyph-name="uni1EC5" unicode="&#x1ec5;" horiz-adv-x="479" 
d="M391 113l11 -85q-73 -38 -172 -38q-98 0 -149 54.5t-51 146.5q0 117 78 212t198 95q71 0 114 -38t43 -99q0 -168 -319 -161q-5 -39 13 -69q29 -50 100 -50q72 0 134 32zM353 360q0 24 -17 37.5t-45 13.5q-51 0 -87 -37.5t-48 -86.5q197 -3 197 73zM254 699h-60
q4 47 28 74.5t59 27.5q24 0 60 -20q30 -17 41 -17q12 0 19.5 9t11.5 32h59q-10 -104 -87 -104q-22 0 -62 22q-27 15 -39 15q-22 0 -30 -39zM281 677h80l68 -127h-78l-34 71h-2l-52 -71h-86z" />
    <glyph glyph-name="uni1EC6" unicode="&#x1ec6;" horiz-adv-x="496" 
d="M459 398l-19 -98h-242l-38 -201h272l-19 -99h-389l128 674h374l-19 -99h-257l-34 -177h243zM321 832h89l80 -122h-86l-45 66h-2l-64 -66h-94zM207 -201q-26 0 -43.5 18t-17.5 43t18 42.5t43 17.5t41.5 -17.5t16.5 -42.5q0 -24 -17 -42.5t-41 -18.5z" />
    <glyph glyph-name="uni1EC7" unicode="&#x1ec7;" horiz-adv-x="479" 
d="M391 113l11 -85q-73 -38 -172 -38q-98 0 -149 54.5t-51 146.5q0 117 78 212t198 95q71 0 114 -38t43 -99q0 -168 -319 -161q-5 -39 13 -69q29 -50 100 -50q72 0 134 32zM353 360q0 24 -17 37.5t-45 13.5q-51 0 -87 -37.5t-48 -86.5q197 -3 197 73zM281 694h81l72 -148
h-79l-41 84h-2l-63 -84h-87zM199 -204q-27 0 -45 18t-18 44t18.5 44t44.5 18q25 0 42 -18t17 -44t-17 -44t-42 -18z" />
    <glyph glyph-name="uni1EC8" unicode="&#x1ec8;" horiz-adv-x="256" 
d="M150 674h117l-128 -674h-117zM238 706l-55 19q9 16 34.5 41t25.5 44q0 12 -7.5 19.5t-20.5 7.5q-24 0 -49 -31l-37 27q47 68 113 68q38 0 61.5 -21t23.5 -53q0 -25 -14 -44t-38.5 -39.5t-36.5 -37.5z" />
    <glyph glyph-name="uni1EC9" unicode="&#x1ec9;" horiz-adv-x="249" 
d="M136 0h-116l92 487h117zM208 530l-61 16q8 19 37.5 48t29.5 51q0 13 -7.5 21t-19.5 8q-27 0 -52 -36l-40 27q46 73 118 73q37 0 60 -22t23 -54q0 -30 -15.5 -51.5t-39.5 -42.5t-33 -38z" />
    <glyph glyph-name="uni1ECA" unicode="&#x1eca;" horiz-adv-x="256" 
d="M150 674h117l-128 -674h-117zM59 -201q-26 0 -43.5 18t-17.5 43t17.5 42.5t43.5 17.5q25 0 41.5 -17.5t16.5 -42.5q0 -24 -17 -42.5t-41 -18.5z" />
    <glyph glyph-name="uni1ECB" unicode="&#x1ecb;" horiz-adv-x="249" 
d="M136 0h-116l92 487h117zM191 557q-27 0 -44 17.5t-16 44.5q0 31 20.5 51t49.5 20q27 0 44.5 -17.5t17.5 -45.5q-1 -32 -21.5 -51t-50.5 -19zM60 -204q-26 0 -44 18t-18 44t18 44t45 18q25 0 42 -18t17 -44t-17 -44t-43 -18z" />
    <glyph glyph-name="uni1ECC" unicode="&#x1ecc;" horiz-adv-x="688" 
d="M411 685q129 0 197 -78.5t68 -200.5q0 -92 -32 -178.5t-90 -143.5q-97 -95 -241 -95q-125 0 -195 79.5t-70 198.5q0 92 33 179.5t93 144.5q97 94 237 94zM397 587q-75 0 -133 -58q-43 -43 -68 -115.5t-25 -140.5q0 -82 39.5 -134t119.5 -52q76 0 131 57q42 42 66.5 116
t24.5 142q0 36 -7 67t-23.5 58.5t-48.5 43.5t-76 16zM267 -201q-26 0 -43.5 18t-17.5 43t18 42.5t43 17.5t42 -17.5t17 -42.5q0 -24 -17.5 -42.5t-41.5 -18.5z" />
    <glyph glyph-name="uni1ECD" unicode="&#x1ecd;" horiz-adv-x="543" 
d="M313 498q94 0 147 -58t53 -144q0 -127 -80 -217t-202 -90q-91 0 -145 56.5t-54 144.5q0 127 79.5 217.5t201.5 90.5zM299 408q-65 0 -106 -69.5t-41 -145.5q0 -51 25.5 -82.5t69.5 -31.5q62 0 103.5 69t41.5 148q0 45 -22 78.5t-71 33.5zM213 -204q-27 0 -44.5 18
t-17.5 44t18 44t44 18q25 0 42 -18t17 -44t-16.5 -44t-42.5 -18z" />
    <glyph glyph-name="uni1ECE" unicode="&#x1ece;" horiz-adv-x="688" 
d="M411 685q129 0 197 -78.5t68 -200.5q0 -92 -32 -178.5t-90 -143.5q-97 -95 -241 -95q-125 0 -195 79.5t-70 198.5q0 92 33 179.5t93 144.5q97 94 237 94zM397 587q-75 0 -133 -58q-43 -43 -68 -115.5t-25 -140.5q0 -82 39.5 -134t119.5 -52q76 0 131 57q42 42 66.5 116
t24.5 142q0 36 -7 67t-23.5 58.5t-48.5 43.5t-76 16zM451 706l-56 19q9 16 34.5 41t25.5 44q0 12 -7.5 19.5t-20.5 7.5q-24 0 -49 -31l-37 27q47 68 113 68q38 0 61.5 -21t23.5 -53q0 -25 -14 -44t-38 -39.5t-36 -37.5z" />
    <glyph glyph-name="uni1ECF" unicode="&#x1ecf;" horiz-adv-x="543" 
d="M313 498q94 0 147 -58t53 -144q0 -127 -80 -217t-202 -90q-91 0 -145 56.5t-54 144.5q0 127 79.5 217.5t201.5 90.5zM299 408q-65 0 -106 -69.5t-41 -145.5q0 -51 25.5 -82.5t69.5 -31.5q62 0 103.5 69t41.5 148q0 45 -22 78.5t-71 33.5zM356 530l-61 16q8 19 37.5 48
t29.5 51q0 13 -7.5 21t-19.5 8q-27 0 -52 -36l-40 27q46 73 118 73q37 0 60 -22t23 -54q0 -30 -15.5 -51.5t-39.5 -42.5t-33 -38z" />
    <glyph glyph-name="uni1ED0" unicode="&#x1ed0;" horiz-adv-x="688" 
d="M411 685q129 0 197 -78.5t68 -200.5q0 -92 -32 -178.5t-90 -143.5q-97 -95 -241 -95q-125 0 -195 79.5t-70 198.5q0 92 33 179.5t93 144.5q97 94 237 94zM397 587q-75 0 -133 -58q-43 -43 -68 -115.5t-25 -140.5q0 -82 39.5 -134t119.5 -52q76 0 131 57q42 42 66.5 116
t24.5 142q0 36 -7 67t-23.5 58.5t-48.5 43.5t-76 16zM408 829h84l66 -119h-84l-31 66h-2l-64 -66h-94zM622 906h103l-130 -108h-61z" />
    <glyph glyph-name="uni1ED1" unicode="&#x1ed1;" horiz-adv-x="543" 
d="M313 498q94 0 147 -58t53 -144q0 -127 -80 -217t-202 -90q-91 0 -145 56.5t-54 144.5q0 127 79.5 217.5t201.5 90.5zM299 408q-65 0 -106 -69.5t-41 -145.5q0 -51 25.5 -82.5t69.5 -31.5q62 0 103.5 69t41.5 148q0 45 -22 78.5t-71 33.5zM302 698h88l62 -148h-79l-34 90
h-2l-60 -90h-86zM526 785h101l-127 -140h-64z" />
    <glyph glyph-name="uni1ED2" unicode="&#x1ed2;" horiz-adv-x="688" 
d="M411 685q129 0 197 -78.5t68 -200.5q0 -92 -32 -178.5t-90 -143.5q-97 -95 -241 -95q-125 0 -195 79.5t-70 198.5q0 92 33 179.5t93 144.5q97 94 237 94zM397 587q-75 0 -133 -58q-43 -43 -68 -115.5t-25 -140.5q0 -82 39.5 -134t119.5 -52q76 0 131 57q42 42 66.5 116
t24.5 142q0 36 -7 67t-23.5 58.5t-48.5 43.5t-76 16zM483 892h103l58 -109h-62zM407 829h84l66 -119h-84l-32 66h-2l-64 -66h-93z" />
    <glyph glyph-name="uni1ED3" unicode="&#x1ed3;" horiz-adv-x="543" 
d="M313 498q94 0 147 -58t53 -144q0 -127 -80 -217t-202 -90q-91 0 -145 56.5t-54 144.5q0 127 79.5 217.5t201.5 90.5zM299 408q-65 0 -106 -69.5t-41 -145.5q0 -51 25.5 -82.5t69.5 -31.5q62 0 103.5 69t41.5 148q0 45 -22 78.5t-71 33.5zM384 787h92l69 -140h-58z
M302 698h88l62 -148h-79l-34 90h-2l-60 -90h-86z" />
    <glyph glyph-name="uni1ED4" unicode="&#x1ed4;" horiz-adv-x="688" 
d="M411 685q129 0 197 -78.5t68 -200.5q0 -92 -32 -178.5t-90 -143.5q-97 -95 -241 -95q-125 0 -195 79.5t-70 198.5q0 92 33 179.5t93 144.5q97 94 237 94zM397 587q-75 0 -133 -58q-43 -43 -68 -115.5t-25 -140.5q0 -82 39.5 -134t119.5 -52q76 0 131 57q42 42 66.5 116
t24.5 142q0 36 -7 67t-23.5 58.5t-48.5 43.5t-76 16zM603 755l-51 20q9 17 34.5 38.5t25.5 38.5q0 11 -8.5 19t-21.5 8q-25 0 -49 -28l-33 32q43 55 105 55q36 0 59 -20t23 -50q0 -25 -14 -43t-37 -36.5t-33 -33.5zM406 829h84l66 -119h-84l-31 66h-2l-65 -66h-93z" />
    <glyph glyph-name="uni1ED5" unicode="&#x1ed5;" horiz-adv-x="543" 
d="M313 498q94 0 147 -58t53 -144q0 -127 -80 -217t-202 -90q-91 0 -145 56.5t-54 144.5q0 127 79.5 217.5t201.5 90.5zM299 408q-65 0 -106 -69.5t-41 -145.5q0 -51 25.5 -82.5t69.5 -31.5q62 0 103.5 69t41.5 148q0 45 -22 78.5t-71 33.5zM299 698h88l62 -148h-80l-33 90
h-2l-61 -90h-85zM497 633l-52 20q9 17 34.5 38.5t25.5 38.5q0 12 -8.5 19.5t-21.5 7.5q-23 0 -49 -28l-32 32q43 55 105 55q36 0 58.5 -20t22.5 -50q0 -25 -14 -43t-36.5 -36.5t-32.5 -33.5z" />
    <glyph glyph-name="uni1ED6" unicode="&#x1ed6;" horiz-adv-x="688" 
d="M411 685q129 0 197 -78.5t68 -200.5q0 -92 -32 -178.5t-90 -143.5q-97 -95 -241 -95q-125 0 -195 79.5t-70 198.5q0 92 33 179.5t93 144.5q97 94 237 94zM397 587q-75 0 -133 -58q-43 -43 -68 -115.5t-25 -140.5q0 -82 39.5 -134t119.5 -52q76 0 131 57q42 42 66.5 116
t24.5 142q0 36 -7 67t-23.5 58.5t-48.5 43.5t-76 16zM379 844h-60q5 47 28.5 74.5t58.5 27.5q25 0 61 -20q28 -17 40 -17t19.5 9t11.5 32h59q-8 -103 -87 -103q-22 0 -62 21q-27 15 -39 15q-22 0 -30 -39zM406 829h84l66 -119h-84l-31 66h-2l-64 -66h-94z" />
    <glyph glyph-name="uni1ED7" unicode="&#x1ed7;" horiz-adv-x="543" 
d="M313 498q94 0 147 -58t53 -144q0 -127 -80 -217t-202 -90q-91 0 -145 56.5t-54 144.5q0 127 79.5 217.5t201.5 90.5zM299 408q-65 0 -106 -69.5t-41 -145.5q0 -51 25.5 -82.5t69.5 -31.5q62 0 103.5 69t41.5 148q0 45 -22 78.5t-71 33.5zM279 699h-60q5 47 28 74.5
t59 27.5q24 0 60 -20q28 -17 41 -17q12 0 19.5 9t11.5 32h59q-10 -104 -87 -104q-22 0 -62 22q-27 15 -39 15q-23 0 -30 -39zM306 677h80l67 -127h-77l-34 71h-2l-52 -71h-86z" />
    <glyph glyph-name="uni1ED8" unicode="&#x1ed8;" horiz-adv-x="688" 
d="M411 685q129 0 197 -78.5t68 -200.5q0 -92 -32 -178.5t-90 -143.5q-97 -95 -241 -95q-125 0 -195 79.5t-70 198.5q0 92 33 179.5t93 144.5q97 94 237 94zM397 587q-75 0 -133 -58q-43 -43 -68 -115.5t-25 -140.5q0 -82 39.5 -134t119.5 -52q76 0 131 57q42 42 66.5 116
t24.5 142q0 36 -7 67t-23.5 58.5t-48.5 43.5t-76 16zM398 832h89l80 -122h-86l-44 66h-2l-65 -66h-94zM267 -201q-26 0 -43.5 18t-17.5 43t18 42.5t43 17.5t41.5 -17.5t16.5 -42.5q0 -24 -17 -42.5t-41 -18.5z" />
    <glyph glyph-name="uni1ED9" unicode="&#x1ed9;" horiz-adv-x="543" 
d="M313 498q94 0 147 -58t53 -144q0 -127 -80 -217t-202 -90q-91 0 -145 56.5t-54 144.5q0 127 79.5 217.5t201.5 90.5zM299 408q-65 0 -106 -69.5t-41 -145.5q0 -51 25.5 -82.5t69.5 -31.5q62 0 103.5 69t41.5 148q0 45 -22 78.5t-71 33.5zM309 694h81l72 -148h-79l-41 84
h-2l-64 -84h-86zM210 -204q-27 0 -44.5 18t-17.5 44t18 44t44 18q25 0 42.5 -18t17.5 -44t-17 -44t-43 -18z" />
    <glyph glyph-name="uni1EDA" unicode="&#x1eda;" horiz-adv-x="688" 
d="M651 742l91 15q13 -30 13 -74q0 -55 -32 -87.5t-86 -31.5q39 -62 39 -158q0 -92 -32 -178.5t-90 -143.5q-97 -95 -241 -95q-125 0 -195 79.5t-70 198.5q0 92 33 179.5t93 144.5q97 94 237 94q65 0 121 -24q7 -3 26.5 -12.5t32 -13.5t25.5 -4q47 0 47 54q0 28 -12 57z
M397 587q-75 0 -133 -58q-43 -43 -68 -115.5t-25 -140.5q0 -82 39.5 -134t119.5 -52q76 0 131 57q42 42 66.5 116t24.5 142q0 36 -7 67t-23.5 58.5t-48.5 43.5t-76 16zM440 837h137l-134 -123h-100z" />
    <glyph glyph-name="uni1EDB" unicode="&#x1edb;" horiz-adv-x="545" 
d="M299 408q-65 0 -106 -69.5t-41 -145.5q0 -51 25.5 -82.5t69.5 -31.5q62 0 103.5 69t41.5 148q0 45 -22 78.5t-71 33.5zM502 560l87 15q11 -28 11 -64q0 -54 -29.5 -84.5t-80.5 -32.5q23 -41 23 -98q0 -127 -80 -217t-202 -90q-91 0 -145 56.5t-54 144.5q0 127 79.5 217.5
t201.5 90.5q46 0 86 -16q5 -2 16.5 -7.5t18 -8.5t16 -5.5t18.5 -2.5q44 0 44 48q0 24 -10 54zM341 694h123l-132 -148h-88z" />
    <glyph glyph-name="uni1EDC" unicode="&#x1edc;" horiz-adv-x="688" 
d="M651 742l91 15q13 -30 13 -74q0 -55 -32 -87.5t-86 -31.5q39 -62 39 -158q0 -92 -32 -178.5t-90 -143.5q-97 -95 -241 -95q-125 0 -195 79.5t-70 198.5q0 92 33 179.5t93 144.5q97 94 237 94q65 0 121 -24q7 -3 26.5 -12.5t32 -13.5t25.5 -4q47 0 47 54q0 28 -12 57z
M397 587q-75 0 -133 -58q-43 -43 -68 -115.5t-25 -140.5q0 -82 39.5 -134t119.5 -52q76 0 131 57q42 42 66.5 116t24.5 142q0 36 -7 67t-23.5 58.5t-48.5 43.5t-76 16zM281 837h134l76 -121h-97z" />
    <glyph glyph-name="uni1EDD" unicode="&#x1edd;" horiz-adv-x="545" 
d="M299 408q-65 0 -106 -69.5t-41 -145.5q0 -51 25.5 -82.5t69.5 -31.5q62 0 103.5 69t41.5 148q0 45 -22 78.5t-71 33.5zM502 560l87 15q11 -28 11 -64q0 -54 -29.5 -84.5t-80.5 -32.5q23 -41 23 -98q0 -127 -80 -217t-202 -90q-91 0 -145 56.5t-54 144.5q0 127 79.5 217.5
t201.5 90.5q46 0 86 -16q5 -2 16.5 -7.5t18 -8.5t16 -5.5t18.5 -2.5q44 0 44 48q0 24 -10 54zM198 694h119l71 -148h-84z" />
    <glyph glyph-name="uni1EDE" unicode="&#x1ede;" horiz-adv-x="688" 
d="M651 742l91 15q13 -30 13 -74q0 -55 -32 -87.5t-86 -31.5q39 -62 39 -158q0 -92 -32 -178.5t-90 -143.5q-97 -95 -241 -95q-125 0 -195 79.5t-70 198.5q0 92 33 179.5t93 144.5q97 94 237 94q65 0 121 -24q7 -3 26.5 -12.5t32 -13.5t25.5 -4q47 0 47 54q0 28 -12 57z
M397 587q-75 0 -133 -58q-43 -43 -68 -115.5t-25 -140.5q0 -82 39.5 -134t119.5 -52q76 0 131 57q42 42 66.5 116t24.5 142q0 36 -7 67t-23.5 58.5t-48.5 43.5t-76 16zM450 710l-55 19q9 16 34.5 41t25.5 44q0 12 -7.5 20t-20.5 8q-23 0 -49 -32l-37 27q47 68 113 68
q38 0 61.5 -21t23.5 -52q0 -26 -14 -44.5t-38.5 -39.5t-36.5 -38z" />
    <glyph glyph-name="uni1EDF" unicode="&#x1edf;" horiz-adv-x="545" 
d="M299 408q-65 0 -106 -69.5t-41 -145.5q0 -51 25.5 -82.5t69.5 -31.5q62 0 103.5 69t41.5 148q0 45 -22 78.5t-71 33.5zM502 560l87 15q11 -28 11 -64q0 -54 -29.5 -84.5t-80.5 -32.5q23 -41 23 -98q0 -127 -80 -217t-202 -90q-91 0 -145 56.5t-54 144.5q0 127 79.5 217.5
t201.5 90.5q46 0 86 -16q5 -2 16.5 -7.5t18 -8.5t16 -5.5t18.5 -2.5q44 0 44 48q0 24 -10 54zM342 530l-60 16q8 19 37.5 48t29.5 51q0 13 -7.5 21t-19.5 8q-27 0 -52 -36l-40 27q46 73 117 73q38 0 61 -22t23 -54q0 -30 -15.5 -51.5t-39.5 -43t-34 -37.5z" />
    <glyph glyph-name="uni1EE0" unicode="&#x1ee0;" horiz-adv-x="688" 
d="M651 742l91 15q13 -30 13 -74q0 -55 -32 -87.5t-86 -31.5q39 -62 39 -158q0 -92 -32 -178.5t-90 -143.5q-97 -95 -241 -95q-125 0 -195 79.5t-70 198.5q0 92 33 179.5t93 144.5q97 94 237 94q65 0 121 -24q7 -3 26.5 -12.5t32 -13.5t25.5 -4q47 0 47 54q0 28 -12 57z
M397 587q-75 0 -133 -58q-43 -43 -68 -115.5t-25 -140.5q0 -82 39.5 -134t119.5 -52q76 0 131 57q42 42 66.5 116t24.5 142q0 36 -7 67t-23.5 58.5t-48.5 43.5t-76 16zM356 720h-60q9 54 33.5 84t57.5 30q29 0 62 -20q28 -19 42 -19q23 0 34 42h59q-18 -111 -93 -111
q-32 0 -61 19q-29 18 -42 18q-21 0 -32 -43z" />
    <glyph glyph-name="uni1EE1" unicode="&#x1ee1;" horiz-adv-x="545" 
d="M299 408q-65 0 -106 -69.5t-41 -145.5q0 -51 25.5 -82.5t69.5 -31.5q62 0 103.5 69t41.5 148q0 45 -22 78.5t-71 33.5zM502 560l87 15q11 -28 11 -64q0 -54 -29.5 -84.5t-80.5 -32.5q23 -41 23 -98q0 -127 -80 -217t-202 -90q-91 0 -145 56.5t-54 144.5q0 127 79.5 217.5
t201.5 90.5q46 0 86 -16q5 -2 16.5 -7.5t18 -8.5t16 -5.5t18.5 -2.5q44 0 44 48q0 24 -10 54zM248 563h-60q7 53 29.5 83.5t57.5 30.5q26 0 62 -21q30 -18 40 -18q12 0 18.5 9t12.5 34h58q-15 -111 -88 -111q-33 0 -62 20q-23 18 -39 18q-20 0 -29 -45z" />
    <glyph glyph-name="uni1EE2" unicode="&#x1ee2;" horiz-adv-x="688" 
d="M651 742l91 15q13 -30 13 -74q0 -55 -32 -87.5t-86 -31.5q39 -62 39 -158q0 -92 -32 -178.5t-90 -143.5q-97 -95 -241 -95q-125 0 -195 79.5t-70 198.5q0 92 33 179.5t93 144.5q97 94 237 94q65 0 121 -24q7 -3 26.5 -12.5t32 -13.5t25.5 -4q47 0 47 54q0 28 -12 57z
M397 587q-75 0 -133 -58q-43 -43 -68 -115.5t-25 -140.5q0 -82 39.5 -134t119.5 -52q76 0 131 57q42 42 66.5 116t24.5 142q0 36 -7 67t-23.5 58.5t-48.5 43.5t-76 16zM266 -201q-26 0 -43.5 18t-17.5 43t18 42.5t44 17.5q24 0 41 -17.5t17 -42.5q0 -24 -17.5 -42.5
t-41.5 -18.5z" />
    <glyph glyph-name="uni1EE3" unicode="&#x1ee3;" horiz-adv-x="545" 
d="M299 408q-65 0 -106 -69.5t-41 -145.5q0 -51 25.5 -82.5t69.5 -31.5q62 0 103.5 69t41.5 148q0 45 -22 78.5t-71 33.5zM502 560l87 15q11 -28 11 -64q0 -54 -29.5 -84.5t-80.5 -32.5q23 -41 23 -98q0 -127 -80 -217t-202 -90q-91 0 -145 56.5t-54 144.5q0 127 79.5 217.5
t201.5 90.5q46 0 86 -16q5 -2 16.5 -7.5t18 -8.5t16 -5.5t18.5 -2.5q44 0 44 48q0 24 -10 54zM210 -204q-27 0 -44.5 18t-17.5 44t18 44t44 18q25 0 42.5 -18t17.5 -44t-17 -44t-43 -18z" />
    <glyph glyph-name="uni1EE4" unicode="&#x1ee4;" horiz-adv-x="639" 
d="M150 674h117l-75 -393q-8 -40 -8 -82q1 -52 30.5 -82t80.5 -30q129 0 166 193l75 394h117l-75 -392q-29 -152 -101.5 -222.5t-196.5 -70.5q-99 0 -155.5 52.5t-56.5 155.5q0 37 9 93zM245 -201q-26 0 -43.5 18t-17.5 43t17.5 42.5t43.5 17.5q25 0 41.5 -17.5t16.5 -42.5
q0 -24 -17 -42.5t-41 -18.5z" />
    <glyph glyph-name="uni1EE5" unicode="&#x1ee5;" horiz-adv-x="545" 
d="M408 487h116l-64 -336q-10 -52 -24 -151h-103l10 85h-2q-72 -96 -169 -96q-57 0 -92 33.5t-35 104.5q0 40 10 87l52 273h116l-50 -266q-8 -38 -8 -67q0 -69 62 -69q42 0 82 46t54 119zM211 -204q-27 0 -44.5 18t-17.5 44t18 44t44 18q25 0 42 -18t17 -44t-16.5 -44
t-42.5 -18z" />
    <glyph glyph-name="uni1EE6" unicode="&#x1ee6;" horiz-adv-x="639" 
d="M150 674h117l-75 -393q-8 -40 -8 -82q1 -52 30.5 -82t80.5 -30q129 0 166 193l75 394h117l-75 -392q-29 -152 -101.5 -222.5t-196.5 -70.5q-99 0 -155.5 52.5t-56.5 155.5q0 37 9 93zM420 706l-55 19q9 16 34.5 41t25.5 44q0 12 -7.5 19.5t-20.5 7.5q-23 0 -50 -31
l-36 27q47 68 113 68q38 0 61.5 -21t23.5 -53q0 -25 -14 -44t-38.5 -39.5t-36.5 -37.5z" />
    <glyph glyph-name="uni1EE7" unicode="&#x1ee7;" horiz-adv-x="545" 
d="M408 487h116l-64 -336q-10 -52 -24 -151h-103l10 85h-2q-72 -96 -169 -96q-57 0 -92 33.5t-35 104.5q0 40 10 87l52 273h116l-50 -266q-8 -38 -8 -67q0 -69 62 -69q42 0 82 46t54 119zM355 530l-60 16q7 20 37 49t30 50q0 13 -8 21t-20 8q-28 0 -51 -36l-40 27
q45 73 117 73q37 0 60.5 -22t23.5 -54q0 -30 -15.5 -51.5t-39.5 -43t-34 -37.5z" />
    <glyph glyph-name="uni1EE8" unicode="&#x1ee8;" horiz-adv-x="652" 
d="M150 674h117l-75 -393q-8 -40 -8 -82q1 -52 30.5 -82t80.5 -30q129 0 166 193l75 394h90q62 0 62 56q0 16 -9 48l87 15q8 -27 8 -54q0 -59 -34.5 -93.5t-98.5 -36.5l-63 -327q-28 -151 -101 -222t-197 -71q-98 -1 -155 51.5t-57 156.5q0 37 9 93zM433 832h137l-134 -122
h-100z" />
    <glyph glyph-name="uni1EE9" unicode="&#x1ee9;" horiz-adv-x="561" 
d="M548 590l87 15q8 -26 8 -55q0 -56 -33.5 -91t-97.5 -36l-52 -272q-14 -82 -24 -151h-103l10 85h-2q-72 -96 -169 -96q-57 0 -92 33.5t-35 104.5q0 40 10 87l52 273h116l-50 -266q-8 -38 -8 -67q0 -69 62 -69q42 0 82 46t54 119l45 237h88q62 0 62 55q0 22 -10 48z
M362 694h123l-132 -148h-88z" />
    <glyph glyph-name="uni1EEA" unicode="&#x1eea;" horiz-adv-x="652" 
d="M150 674h117l-75 -393q-8 -40 -8 -82q1 -52 30.5 -82t80.5 -30q129 0 166 193l75 394h90q62 0 62 56q0 16 -9 48l87 15q8 -27 8 -54q0 -59 -34.5 -93.5t-98.5 -36.5l-63 -327q-28 -151 -101 -222t-197 -71q-98 -1 -155 51.5t-57 156.5q0 37 9 93zM275 832h134l76 -121
h-97z" />
    <glyph glyph-name="uni1EEB" unicode="&#x1eeb;" horiz-adv-x="561" 
d="M548 590l87 15q8 -26 8 -55q0 -56 -33.5 -91t-97.5 -36l-52 -272q-14 -82 -24 -151h-103l10 85h-2q-72 -96 -169 -96q-57 0 -92 33.5t-35 104.5q0 40 10 87l52 273h116l-50 -266q-8 -38 -8 -67q0 -69 62 -69q42 0 82 46t54 119l45 237h88q62 0 62 55q0 22 -10 48z
M213 694h119l71 -148h-84z" />
    <glyph glyph-name="uni1EEC" unicode="&#x1eec;" horiz-adv-x="652" 
d="M150 674h117l-75 -393q-8 -40 -8 -82q1 -52 30.5 -82t80.5 -30q129 0 166 193l75 394h90q62 0 62 56q0 16 -9 48l87 15q8 -27 8 -54q0 -59 -34.5 -93.5t-98.5 -36.5l-63 -327q-28 -151 -101 -222t-197 -71q-98 -1 -155 51.5t-57 156.5q0 37 9 93zM428 706l-56 19
q9 16 34.5 41t25.5 44q0 12 -8 19.5t-20 7.5q-24 0 -49 -31l-37 27q47 68 113 68q38 0 61.5 -21t23.5 -53q0 -25 -14 -44t-38 -39.5t-36 -37.5z" />
    <glyph glyph-name="uni1EED" unicode="&#x1eed;" horiz-adv-x="561" 
d="M548 590l87 15q8 -26 8 -55q0 -56 -33.5 -91t-97.5 -36l-52 -272q-14 -82 -24 -151h-103l10 85h-2q-72 -96 -169 -96q-57 0 -92 33.5t-35 104.5q0 40 10 87l52 273h116l-50 -266q-8 -38 -8 -67q0 -69 62 -69q42 0 82 46t54 119l45 237h88q62 0 62 55q0 22 -10 48z
M352 530l-60 16q8 19 37.5 48t29.5 51q0 13 -7.5 21t-19.5 8q-27 0 -52 -36l-40 27q46 73 117 73q38 0 61 -22t23 -54q0 -30 -15.5 -51.5t-39.5 -43t-34 -37.5z" />
    <glyph glyph-name="uni1EEE" unicode="&#x1eee;" horiz-adv-x="652" 
d="M150 674h117l-75 -393q-8 -40 -8 -82q1 -52 30.5 -82t80.5 -30q129 0 166 193l75 394h90q62 0 62 56q0 16 -9 48l87 15q8 -27 8 -54q0 -59 -34.5 -93.5t-98.5 -36.5l-63 -327q-28 -151 -101 -222t-197 -71q-98 -1 -155 51.5t-57 156.5q0 37 9 93zM339 715h-61
q9 55 33.5 85t58.5 30q30 0 61 -20q26 -19 42 -19q13 0 20.5 9.5t14.5 32.5h59q-17 -111 -93 -111q-30 0 -62 18q-30 19 -41 19q-23 -2 -32 -44z" />
    <glyph glyph-name="uni1EEF" unicode="&#x1eef;" horiz-adv-x="561" 
d="M548 590l87 15q8 -26 8 -55q0 -56 -33.5 -91t-97.5 -36l-52 -272q-14 -82 -24 -151h-103l10 85h-2q-72 -96 -169 -96q-57 0 -92 33.5t-35 104.5q0 40 10 87l52 273h116l-50 -266q-8 -38 -8 -67q0 -69 62 -69q42 0 82 46t54 119l45 237h88q62 0 62 55q0 22 -10 48z
M256 563h-60q7 53 29.5 83.5t57.5 30.5q26 0 62 -21q30 -18 40 -18q12 0 18.5 9t12.5 34h58q-15 -111 -88 -111q-33 0 -62 20q-23 18 -39 18q-20 0 -29 -45z" />
    <glyph glyph-name="uni1EF0" unicode="&#x1ef0;" horiz-adv-x="652" 
d="M150 674h117l-75 -393q-8 -40 -8 -82q1 -52 30.5 -82t80.5 -30q129 0 166 193l75 394h90q62 0 62 56q0 16 -9 48l87 15q8 -27 8 -54q0 -59 -34.5 -93.5t-98.5 -36.5l-63 -327q-28 -151 -101 -222t-197 -71q-98 -1 -155 51.5t-57 156.5q0 37 9 93zM248 -201
q-26 0 -43.5 18t-17.5 43t17.5 42.5t43.5 17.5q25 0 41.5 -17.5t16.5 -42.5q0 -24 -17 -42.5t-41 -18.5z" />
    <glyph glyph-name="uni1EF1" unicode="&#x1ef1;" horiz-adv-x="561" 
d="M548 590l87 15q8 -26 8 -55q0 -56 -33.5 -91t-97.5 -36l-52 -272q-14 -82 -24 -151h-103l10 85h-2q-72 -96 -169 -96q-57 0 -92 33.5t-35 104.5q0 40 10 87l52 273h116l-50 -266q-8 -38 -8 -67q0 -69 62 -69q42 0 82 46t54 119l45 237h88q62 0 62 55q0 22 -10 48z
M213 -204q-26 0 -44 18t-18 44t18.5 44t44.5 18q25 0 42 -18t17 -44t-17 -44t-43 -18z" />
    <glyph glyph-name="Ygrave" unicode="&#x1ef2;" horiz-adv-x="546" 
d="M271 0h-116l53 277l-131 397h124l53 -192q19 -75 28 -118h2q30 53 70 120l121 190h138l-289 -395zM201 832h133l77 -121h-97z" />
    <glyph glyph-name="ygrave" unicode="&#x1ef3;" horiz-adv-x="472" 
d="M45 487h122l38 -235q14 -84 19 -121h2q39 98 47 116l105 240h123l-178 -359q-91 -184 -178 -268q-69 -68 -150 -84l-27 100q51 16 86 42q53 39 86 97q5 10 2 23zM145 694h119l70 -148h-83z" />
    <glyph glyph-name="uni1EF4" unicode="&#x1ef4;" horiz-adv-x="546" 
d="M271 0h-116l53 277l-131 397h124l53 -192q19 -75 28 -118h2q30 53 70 120l121 190h138l-289 -395zM194 -201q-25 0 -43 18.5t-18 42.5q0 25 18 42.5t44 17.5q25 0 41.5 -17.5t16.5 -42.5t-17 -43t-42 -18z" />
    <glyph glyph-name="uni1EF5" unicode="&#x1ef5;" horiz-adv-x="472" 
d="M45 487h122l38 -235q14 -84 19 -121h2q39 98 47 116l105 240h123l-178 -359q-91 -184 -178 -268q-69 -68 -150 -84l-27 100q51 16 86 42q53 39 86 97q5 10 2 23zM318 -204q-27 0 -45 18t-18 44t18.5 44t44.5 18q25 0 42 -18t17 -44t-17 -44t-42 -18z" />
    <glyph glyph-name="uni1EF6" unicode="&#x1ef6;" horiz-adv-x="546" 
d="M271 0h-116l53 277l-131 397h124l53 -192q19 -75 28 -118h2q30 53 70 120l121 190h138l-289 -395zM374 706l-56 19q9 16 34.5 41t25.5 44q0 12 -8 19.5t-20 7.5q-24 0 -49 -31l-37 27q47 68 113 68q38 0 61.5 -21t23.5 -53q0 -25 -14 -44t-38 -39.5t-36 -37.5z" />
    <glyph glyph-name="uni1EF7" unicode="&#x1ef7;" horiz-adv-x="472" 
d="M45 487h122l38 -235q14 -84 19 -121h2q39 98 47 116l105 240h123l-178 -359q-91 -184 -178 -268q-69 -68 -150 -84l-27 100q51 16 86 42q53 39 86 97q5 10 2 23zM318 530l-61 16q8 20 38 48.5t30 50.5q0 13 -8 21t-20 8q-27 0 -52 -36l-40 27q46 73 118 73q37 0 60.5 -22
t23.5 -54q0 -30 -15.5 -51.5t-39.5 -43t-34 -37.5z" />
    <glyph glyph-name="uni1EF8" unicode="&#x1ef8;" horiz-adv-x="546" 
d="M271 0h-116l53 277l-131 397h124l53 -192q19 -75 28 -118h2q30 53 70 120l121 190h138l-289 -395zM281 715h-60q9 55 33.5 85t57.5 30q31 0 62 -20q26 -19 42 -19q23 0 34 42h60q-19 -111 -93 -111q-30 0 -62 18q-30 19 -41 19q-23 -2 -33 -44z" />
    <glyph glyph-name="uni1EF9" unicode="&#x1ef9;" horiz-adv-x="472" 
d="M45 487h122l38 -235q14 -84 19 -121h2q39 98 47 116l105 240h123l-178 -359q-91 -184 -178 -268q-69 -68 -150 -84l-27 100q51 16 86 42q53 39 86 97q5 10 2 23zM222 563h-60q7 53 29.5 83.5t57.5 30.5q26 0 62 -21q28 -18 39 -18q12 0 19 9t12 34h59q-15 -111 -88 -111
q-33 0 -62 20q-25 18 -39 18q-20 0 -29 -45z" />
    <glyph glyph-name="uni2010" unicode="&#x2010;" horiz-adv-x="315" 
d="M46 309h250l-16 -85h-251z" />
    <glyph glyph-name="endash" unicode="&#x2013;" horiz-adv-x="500" 
d="M41 293h439l-15 -78h-440z" />
    <glyph glyph-name="emdash" unicode="&#x2014;" horiz-adv-x="1000" 
d="M41 293h939l-15 -78h-940z" />
    <glyph glyph-name="quoteleft" unicode="&#x2018;" horiz-adv-x="227" 
d="M187 431l-120 -9q70 156 146 256l78 7q-69 -137 -104 -254z" />
    <glyph glyph-name="quoteright" unicode="&#x2019;" horiz-adv-x="227" 
d="M165 675l120 10q-75 -162 -146 -256l-78 -7q65 128 104 253z" />
    <glyph glyph-name="quotesinglbase" unicode="&#x201a;" horiz-adv-x="227" 
d="M28 -110l-81 -8q72 145 106 261l125 10q-70 -156 -150 -263z" />
    <glyph glyph-name="quotedblleft" unicode="&#x201c;" horiz-adv-x="401" 
d="M186 431l-119 -9q72 160 145 256l78 7q-65 -129 -104 -254zM361 431l-120 -9q70 156 146 256l78 7q-69 -137 -104 -254z" />
    <glyph glyph-name="quotedblright" unicode="&#x201d;" horiz-adv-x="401" 
d="M164 676l120 9q-75 -162 -146 -256l-78 -7q67 128 104 254zM339 676l120 9q-75 -162 -146 -256l-78 -7q69 137 104 254z" />
    <glyph glyph-name="quotedblbase" unicode="&#x201e;" horiz-adv-x="401" 
d="M23 -110l-82 -8q72 141 107 261l125 10q-70 -156 -150 -263zM209 -110l-82 -8q72 141 107 261l125 10q-70 -156 -150 -263z" />
    <glyph glyph-name="dagger" unicode="&#x2020;" horiz-adv-x="503" 
d="M279 674h110l-51 -205l171 9l-19 -96l-166 11l-74 -443h-110l96 443l-170 -11l18 96l166 -9z" />
    <glyph glyph-name="daggerdbl" unicode="&#x2021;" horiz-adv-x="503" 
d="M280 674h108l-46 -192l168 10l-18 -96l-165 10l-34 -182l168 11l-18 -96l-165 9l-29 -198h-108l47 198l-168 -9l18 96l165 -11l34 182l-168 -10l18 96l165 -10z" />
    <glyph glyph-name="bullet" unicode="&#x2022;" horiz-adv-x="309" 
d="M158 145q-49 0 -83.5 34.5t-34.5 84.5q-1 50 34 85t84 35q50 0 85 -34.5t35 -85.5q0 -50 -35 -84.5t-85 -34.5z" />
    <glyph glyph-name="ellipsis" unicode="&#x2026;" horiz-adv-x="1000" 
d="M126 -10q-31 0 -50.5 20.5t-19.5 51.5q0 36 23.5 61t58.5 25q32 0 51.5 -20.5t19.5 -53.5q0 -36 -23.5 -60t-59.5 -24zM460 -10q-31 0 -50.5 20.5t-19.5 51.5q0 36 23.5 61t58.5 25q32 0 51.5 -20.5t19.5 -53.5q0 -36 -23.5 -60t-59.5 -24zM794 -10q-32 0 -51 20.5
t-19 51.5q0 36 23 61t59 25q31 0 50.5 -20.5t19.5 -53.5q0 -36 -23 -60t-59 -24z" />
    <glyph glyph-name="perthousand" unicode="&#x2030;" horiz-adv-x="1199" 
d="M657 392q63 0 98 -40.5t35 -102.5q0 -108 -56.5 -182.5t-141.5 -74.5q-61 0 -98.5 40.5t-37.5 109.5q0 99 56.5 174.5t144.5 75.5zM646 323q-44 0 -71.5 -60.5t-27.5 -123.5q0 -78 55 -78q43 0 70 62t27 125q0 75 -53 75zM1032 392q63 0 97.5 -40.5t34.5 -102.5
q0 -108 -56 -182.5t-141 -74.5q-62 0 -99 40.5t-37 109.5q0 99 56 174.5t145 75.5zM1020 323q-43 0 -71 -60.5t-28 -123.5q0 -78 56 -78q43 0 70 62t27 125q0 31 -13 53t-41 22zM267 660q63 0 98 -40.5t35 -101.5q0 -108 -56.5 -182.5t-141.5 -74.5q-61 0 -98.5 40.5
t-37.5 109.5q0 100 56.5 174.5t144.5 74.5zM256 591q-30 0 -53.5 -31t-34.5 -71.5t-11 -79.5q0 -79 55 -79q43 0 70 62t27 124q0 75 -53 75zM221 -11h-74l485 672h74z" />
    <glyph glyph-name="guilsinglleft" unicode="&#x2039;" horiz-adv-x="258" 
d="M261 440l-147 -190l98 -186h-85l-100 188l140 188h94z" />
    <glyph glyph-name="guilsinglright" unicode="&#x203a;" horiz-adv-x="257" 
d="M154 255l-99 185h85l100 -188l-140 -188h-94z" />
    <glyph glyph-name="fraction" unicode="&#x2044;" horiz-adv-x="142" 
d="M-119 -11h-74l489 672h74z" />
    <glyph glyph-name="zero.superior" unicode="&#x2070;" horiz-adv-x="346" 
d="M211 401q-61 0 -93.5 39.5t-32.5 104.5q0 104 55 180t141 76q60 0 92 -38t32 -95q0 -110 -54 -188.5t-140 -78.5zM220 470q41 0 67 65t26 125q0 72 -43 72q-40 0 -66.5 -65t-26.5 -123q0 -74 43 -74z" />
    <glyph glyph-name="four.superior" unicode="&#x2074;" horiz-adv-x="344" 
d="M315 406h-87l18 97h-184l11 53l209 243h108l-44 -233h53l-13 -63h-52zM258 566l18 91q4 25 17 70h-2q-45 -63 -47 -66l-80 -93v-2h94z" />
    <glyph glyph-name="five.superior" unicode="&#x2075;" horiz-adv-x="318" 
d="M382 796l-15 -73h-148l-19 -63q10 1 25 1q41 0 69 -16q61 -25 61 -90q0 -72 -55.5 -113t-138.5 -41q-65 0 -105 21l23 67q34 -18 84 -18q40 0 66.5 19.5t26.5 51.5q0 57 -97 57q-28 0 -52 -3l57 200h218z" />
    <glyph glyph-name="six.superior" unicode="&#x2076;" horiz-adv-x="341" 
d="M388 799l-13 -69q-25 2 -43 0q-103 -15 -136 -97l1 -1q34 36 85 36t79.5 -31t28.5 -80q0 -64 -48 -110t-117 -46q-64 0 -102.5 38.5t-38.5 98.5q0 65 31.5 121t78.5 88q62 43 141 50q31 3 53 2zM229 466q29 0 49 25t20 61q0 26 -14 40.5t-39 14.5q-36 0 -59 -35
q-5 -6 -8 -16q-4 -12 -4 -30q0 -26 14.5 -43t40.5 -17z" />
    <glyph glyph-name="seven.superior" unicode="&#x2077;" horiz-adv-x="301" 
d="M120 796h275l-11 -56q-20 -30 -106 -158.5t-117 -175.5h-99q12 18 101.5 146t118.5 170v2h-176z" />
    <glyph glyph-name="eight.superior" unicode="&#x2078;" horiz-adv-x="345" 
d="M278 801q52 0 87 -24t35 -70q0 -59 -78 -92v-2q63 -30 63 -86q0 -61 -50.5 -93.5t-115.5 -32.5q-63 0 -101 28t-38 72q0 38 26.5 66.5t66.5 42.5v2q-48 29 -48 72q0 52 45 84.5t108 32.5zM228 463q26 0 44.5 16t18.5 41q0 42 -56 61q-62 -18 -62 -68q0 -20 15 -35t40 -15
zM266 740q-22 0 -37 -14.5t-15 -33.5q0 -35 50 -53q51 15 51 57q0 18 -12.5 31t-36.5 13z" />
    <glyph glyph-name="nine.superior" unicode="&#x2079;" horiz-adv-x="338" 
d="M89 403l10 70q27 -2 49 0q40 3 75 25q47 25 67 71l-2 1q-32 -30 -82 -30q-49 0 -80 29.5t-31 78.5q0 63 50 108t118 45q63 0 98.5 -38t35.5 -98q0 -65 -30 -120t-74 -89q-61 -48 -152 -53q-19 -2 -52 0zM255 735q-28 0 -48 -24t-20 -58q0 -24 13.5 -38.5t37.5 -14.5
q36 0 58 29q6 6 9 19q3 21 3 28q0 26 -14 42.5t-39 16.5z" />
    <glyph glyph-name="parenleft.superior" unicode="&#x207d;" horiz-adv-x="194" 
d="M226 833h63q-116 -148 -116 -320q0 -88 27 -164h-61q-35 77 -35 160q0 191 122 324z" />
    <glyph glyph-name="parenright.superior" unicode="&#x207e;" horiz-adv-x="194" 
d="M106 349h-64q117 151 117 321q0 86 -27 163h61q35 -75 35 -160q0 -190 -122 -324z" />
    <glyph glyph-name="zero.inferior" unicode="&#x2080;" horiz-adv-x="346" 
d="M104 -152q-60 0 -92.5 39.5t-32.5 104.5q0 104 55 180t141 76q60 0 91.5 -38t31.5 -95q0 -110 -53.5 -188.5t-140.5 -78.5zM114 -83q41 0 66.5 64.5t25.5 125.5q0 72 -42 72q-40 0 -66.5 -65t-26.5 -123q0 -74 43 -74z" />
    <glyph glyph-name="one.inferior" unicode="&#x2081;" horiz-adv-x="253" 
d="M123 -147h-95l60 310h-2l-75 -32l-8 66l112 46h82z" />
    <glyph glyph-name="two.inferior" unicode="&#x2082;" horiz-adv-x="322" 
d="M225 -147h-286l9 49l75 58q76 58 111.5 95.5t35.5 72.5q0 46 -54 46q-44 0 -87 -29l-17 60q58 43 135 43q55 0 89.5 -28t34.5 -76q0 -28 -12 -54.5t-37 -52t-46.5 -43t-57.5 -43.5l-32 -24v-2h153z" />
    <glyph glyph-name="three.inferior" unicode="&#x2083;" horiz-adv-x="315" 
d="M27 153l-10 60q49 35 126 35q53 0 87.5 -25.5t34.5 -63.5q0 -34 -26.5 -59t-68.5 -37v-2q32 -6 54.5 -29.5t21.5 -56.5q0 -58 -50 -92.5t-126 -34.5q-80 0 -125 31l30 63q37 -27 91 -27q37 0 59.5 17.5t22.5 43.5q0 27 -24.5 41t-62.5 14h-19l11 57h18q36 0 65.5 15.5
t29.5 40.5q0 37 -52 37q-47 0 -87 -28z" />
    <glyph glyph-name="four.inferior" unicode="&#x2084;" horiz-adv-x="344" 
d="M209 -147h-88l19 97h-184l10 53l210 243h108l-44 -233h52l-12 -63h-53zM152 13l17 91q5 26 18 70h-3q-45 -63 -47 -66l-79 -93v-2h94z" />
    <glyph glyph-name="five.inferior" unicode="&#x2085;" horiz-adv-x="318" 
d="M275 243l-14 -73h-148l-19 -63q9 1 24 1q41 0 70 -16q61 -25 61 -90q0 -72 -55.5 -113t-139.5 -41q-66 0 -104 21l22 67q36 -18 85 -18q40 0 66.5 19.5t26.5 51.5q0 57 -97 57q-27 0 -53 -3l57 200h218z" />
    <glyph glyph-name="six.inferior" unicode="&#x2086;" horiz-adv-x="341" 
d="M281 246l-12 -69q-26 2 -43 0q-103 -15 -136 -97l1 -1q34 36 85 36t79.5 -31t28.5 -80q0 -64 -48 -110t-118 -46q-64 0 -102 38.5t-38 98.5q0 65 31 121t78 88q61 42 141 50q32 3 53 2zM122 -87q30 0 50 25t20 61q0 26 -14 40.5t-39 14.5q-37 0 -59 -35q-6 -8 -9 -16
q-3 -9 -3 -30q0 -26 14.5 -43t39.5 -17z" />
    <glyph glyph-name="seven.inferior" unicode="&#x2087;" horiz-adv-x="301" 
d="M13 243h275l-10 -56q-21 -32 -62.5 -93.5t-93 -138t-68.5 -102.5h-99q36 51 118.5 169t102.5 147v2h-177z" />
    <glyph glyph-name="eight.inferior" unicode="&#x2088;" horiz-adv-x="345" 
d="M171 248q52 0 87.5 -24.5t35.5 -69.5q0 -59 -78 -92l-1 -2q64 -30 64 -86q0 -61 -50.5 -93.5t-116.5 -32.5q-63 0 -100.5 28t-37.5 72q0 38 26.5 66.5t66.5 42.5v2q-48 29 -48 72q0 52 44.5 84.5t107.5 32.5zM122 -90q26 0 44 16t18 41q0 43 -56 61q-61 -18 -61 -68
q0 -21 15 -35.5t40 -14.5zM159 187q-22 0 -37 -14.5t-15 -33.5q0 -35 51 -53q50 15 50 57q0 19 -12 31.5t-37 12.5z" />
    <glyph glyph-name="nine.inferior" unicode="&#x2089;" horiz-adv-x="338" 
d="M-18 -150l11 70q27 -2 49 0q38 3 75 25q46 26 66 71l-1 1q-32 -30 -82 -30q-49 0 -80 29.5t-31 78.5q0 63 49.5 108t117.5 45q64 0 99 -37.5t35 -98.5q0 -65 -29.5 -120t-73.5 -89q-62 -48 -153 -53q-17 -2 -52 0zM149 182q-28 0 -48.5 -24t-20.5 -58q0 -23 14 -38
t37 -15q36 0 58 29q6 6 9 19q3 10 3 28q0 27 -13.5 43t-38.5 16z" />
    <glyph glyph-name="parenleft.inferior" unicode="&#x208d;" horiz-adv-x="194" 
d="M120 280h63q-116 -148 -116 -320q0 -92 27 -164h-61q-35 77 -35 160q0 191 122 324z" />
    <glyph glyph-name="parenright.inferior" unicode="&#x208e;" horiz-adv-x="194" 
d="M-1 -204h-63q117 151 117 321q0 87 -28 163h61q36 -74 36 -160q0 -189 -123 -324z" />
    <glyph glyph-name="dong" unicode="&#x20ab;" horiz-adv-x="519" 
d="M407 27h-345l13 74h344zM398 670h106l-12 -62h67l-13 -60h-66l-50 -265q-13 -66 -16 -126h-99l8 66h-2q-47 -74 -125 -74q-49 0 -80 36t-31 95q0 95 63.5 165t160.5 70q33 0 58 -10l8 43h-116l13 60h115zM335 335l18 96q-15 12 -45 12q-48 0 -82.5 -45t-34.5 -101
q0 -31 13.5 -50t38.5 -19q29 0 55.5 29t36.5 78z" />
    </font>
</defs>
</svg>
